<svg id="图层_1" data-name="图层 1" xmlns="http://www.w3.org/2000/svg" viewBox="0 0 376.2 19.2"><defs><style>.cls-1{fill:#cd932f;}</style></defs><path class="cls-1" d="M2.73,12.44c-.14,2-.29,4.07-.43,6.1a3.68,3.68,0,0,0-.66-.06H.38a3.47,3.47,0,0,0-.64.06C.32,15.42.83,12.31,1.29,9.23S2.16,3,2.54-.17l.56.1a4.75,4.75,0,0,0,.56,0,4.75,4.75,0,0,0,.51,0l.58-.1C5.24.92,5.75,2,6.29,3.15S7.36,5.4,7.89,6.52,9,8.73,9.5,9.8s1.05,2.08,1.54,3q1.64-3.06,3.25-6.39T17.38-.17A6.32,6.32,0,0,0,18.55,0,6.23,6.23,0,0,0,19.7-.17c.18,1.56.37,3.24.58,5s.42,3.55.62,5.27.4,3.32.59,4.8.39,2.69.55,3.6a10,10,0,0,0-1.1-.06H18.72a11.07,11.07,0,0,0-1.15.06c-.09-1.87-.24-3.9-.44-6.07S16.7,8.13,16.48,6h-.05l-3,6.32q-1.5,3.1-3,6.24l-.26,0-.26,0-.25,0-.26,0c-1-2-2-4.07-2.93-6.1s-2-4.09-3-6.18h0c-.3,2.09-.51,4.15-.66,6.18" transform="translate(0.26 0.31)"/><path class="cls-1" d="M68,18.54c-.44,0-.85-.06-1.24-.06H64.46a11,11,0,0,0-1.16.06c-.29-.89-.59-1.8-.9-2.72s-.64-1.86-1-2.78l-1.74,0-1.75,0-1.41,0L55.1,13c-.36.92-.7,1.85-1,2.78s-.59,1.83-.84,2.72a3.55,3.55,0,0,0-.64-.06h-1.3a4.51,4.51,0,0,0-.7.06c.22-.47.51-1.13.87-2s.76-1.78,1.2-2.83.9-2.19,1.4-3.4,1-2.42,1.5-3.66,1-2.45,1.47-3.65S58,.73,58.37-.31l.52.1a2.78,2.78,0,0,0,.51,0,2.89,2.89,0,0,0,.52,0l.52-.1,1.86,5c.67,1.76,1.33,3.49,2,5.19s1.32,3.31,2,4.83,1.21,2.82,1.74,3.87M58.37,5C57.9,6,57.45,7.12,57,8.18s-.82,2.14-1.22,3.25h5c-.4-1.11-.79-2.19-1.18-3.25S58.8,6,58.37,5" transform="translate(0.26 0.31)"/><path class="cls-1" d="M102.16,10c-.45-.83-1-1.77-1.55-2.82l-1.69-3c-.55-1-1-1.85-1.47-2.63L96.52-.17l1.26.1c.39,0,.8,0,1.22,0s.82,0,1.21,0l1.21-.1c.55,1.11,1.1,2.21,1.67,3.32s1.13,2.22,1.71,3.33c.69-1.11,1.37-2.22,2-3.33s1.31-2.21,2-3.32l.71.1c.21,0,.44,0,.68,0s.44,0,.66,0l.72-.1c-.3.4-.69.93-1.15,1.58s-1,1.36-1.49,2.12-1.06,1.55-1.59,2.35-1,1.53-1.51,2.2c.45.87,1,1.82,1.5,2.83s1.08,2,1.62,3l1.49,2.7,1.11,2c-.42,0-.82-.06-1.22-.06H108c-.39,0-.79,0-1.19.06-.58-1.11-1.16-2.24-1.74-3.4s-1.19-2.33-1.83-3.49c-.74,1.16-1.46,2.32-2.15,3.47s-1.35,2.29-2,3.42c-.42,0-.87-.06-1.34-.06h-.67a4.66,4.66,0,0,0-.72.06c.35-.44.75-1,1.23-1.7l1.5-2.22,1.59-2.39L102.16,10" transform="translate(0.26 0.31)"/><path class="cls-1" d="M141.62,3.36c0-1.17-.09-2.35-.16-3.53l2.42.08c.8,0,1.61.06,2.42.06,1.35,0,2.54,0,3.59,0s1.74-.06,2.1-.1a5.06,5.06,0,0,0-.1,1.14,6.35,6.35,0,0,0,0,.68c0,.17.05.35.08.55l-1.72-.11L148.44,2c-.59,0-1.12-.06-1.59-.08l-1,0q-.1,1.5-.12,3c0,1,0,2,0,3l3.21-.08c1,0,1.94-.08,3-.14-.06.31-.09.55-.11.71a4.28,4.28,0,0,0,0,.52,2.42,2.42,0,0,0,0,.45c0,.15.06.37.1.66q-3.1-.24-6.19-.24v1.39c0,1.5,0,2.84.06,4s.09,2.32.16,3.45a7.79,7.79,0,0,0-1-.06h-2.46a7.79,7.79,0,0,0-1,.06c.07-1.13.12-2.28.16-3.45s0-2.51,0-4V7.37c0-1.5,0-2.84,0-4" transform="translate(0.26 0.31)"/><path class="cls-1" d="M191.08,18.89a13.5,13.5,0,0,1-3.26-.37,6.93,6.93,0,0,1-2.63-1.22,6,6,0,0,1-1.76-2.21,7.68,7.68,0,0,1-.63-3.28c0-.72,0-1.37,0-2s0-1.1,0-1.59,0-1,0-1.41,0-.93,0-1.42q0-2.2,0-3.57c0-.9,0-1.59-.08-2l1.12.1c.38,0,.75,0,1.11,0s.74,0,1.12,0l1.12-.1q-.27,2.64-.33,4.92c0,1.51,0,3.05,0,4.61a18,18,0,0,0,.35,4,5.69,5.69,0,0,0,1,2.36,3.3,3.3,0,0,0,1.7,1.1,9,9,0,0,0,2.34.28,3.75,3.75,0,0,0,2.56-.82,5.1,5.1,0,0,0,1.41-2.18,11.87,11.87,0,0,0,.58-3.12c.07-1.17.11-2.39.11-3.66s0-2.5-.05-3.75-.1-2.49-.17-3.74l.74.1c.23,0,.45,0,.65,0s.46,0,.68,0l.68-.1c0,.4-.07.94-.11,1.61s-.07,1.44-.11,2.32-.06,1.86-.09,2.92,0,2.18,0,3.36q0,4.74-2,6.8a8.1,8.1,0,0,1-6,2.05" transform="translate(0.26 0.31)"/><path class="cls-1" d="M234.39,2.83a6.31,6.31,0,0,0-.07-1l-1,0L232,2c-.45,0-.91.06-1.38.11s-.91.09-1.31.15c0-.2.07-.4.09-.6a4,4,0,0,0,0-.6,4,4,0,0,0,0-.6c0-.2-.06-.4-.09-.6L231-.12l1.53,0,1.68,0,2.2,0,2.19,0,1.68,0,1.48,0,1.56-.05-.09.6a4,4,0,0,0,0,.6,4,4,0,0,0,0,.6l.09.6c-.36-.06-.77-.11-1.22-.15s-.9-.09-1.35-.11l-1.27-.07-1,0a1.76,1.76,0,0,0,0,.38c0,.17,0,.36,0,.58v8.25c0,1.5,0,2.84.06,4s.09,2.32.16,3.45a7.84,7.84,0,0,0-1-.06h-2.45a8,8,0,0,0-1,.06c.08-1.13.13-2.28.17-3.45s.05-2.51.05-4V4.27c0-.53,0-1,0-1.44" transform="translate(0.26 0.31)"/><path class="cls-1" d="M281.87,18.89a13.56,13.56,0,0,1-3.26-.37A6.88,6.88,0,0,1,276,17.3a5.92,5.92,0,0,1-1.76-2.21,7.52,7.52,0,0,1-.64-3.28c0-.72,0-1.37,0-2s0-1.1,0-1.59,0-1,0-1.41,0-.93,0-1.42c0-1.47,0-2.66,0-3.57s-.05-1.59-.08-2l1.11.1c.38,0,.76,0,1.12,0s.73,0,1.12,0L278-.17q-.27,2.64-.33,4.92c0,1.51-.05,3.05-.05,4.61a18,18,0,0,0,.36,4,5.57,5.57,0,0,0,1,2.36,3.34,3.34,0,0,0,1.7,1.1,9.18,9.18,0,0,0,2.35.28,3.76,3.76,0,0,0,2.56-.82A5.18,5.18,0,0,0,287,14.1a11.47,11.47,0,0,0,.58-3.12c.08-1.17.11-2.39.11-3.66s0-2.5-.05-3.75-.09-2.49-.16-3.74l.73.1c.24,0,.46,0,.66,0s.46,0,.68,0l.68-.1c0,.4-.08.94-.11,1.61s-.08,1.44-.11,2.32-.07,1.86-.1,2.92,0,2.18,0,3.36q0,4.74-2,6.8t-6,2.05" transform="translate(0.26 0.31)"/><path class="cls-1" d="M326,10v1.12c0,1.5,0,2.84.06,4s.09,2.32.16,3.45a7.84,7.84,0,0,0-1-.06h-2.45a7.68,7.68,0,0,0-1,.06c.07-1.13.12-2.28.16-3.45s.05-2.51.05-4V7.37c0-1.5,0-2.84-.05-4s-.09-2.35-.16-3.53l1,.1c.37,0,.77,0,1.23,0s1.05,0,1.67-.07,1.41-.07,2.33-.07c.69,0,1.28,0,1.77.05A11.59,11.59,0,0,1,331,.05a4.78,4.78,0,0,1,.92.28,4,4,0,0,1,.75.43A4.39,4.39,0,0,1,334,2.24a4.47,4.47,0,0,1,.47,2.11,4.72,4.72,0,0,1-1.09,3.24,5.86,5.86,0,0,1-3.13,1.77q1.31,2.31,2.81,4.62c1,1.53,2,3.05,3,4.56-.42,0-.82-.06-1.22-.06h-2.47c-.41,0-.82,0-1.24.06L326.26,10Zm4.31-5A5.85,5.85,0,0,0,330.07,3,2.08,2.08,0,0,0,329.32,2a2.72,2.72,0,0,0-1.3-.48,15.14,15.14,0,0,0-1.93-.11Q326,5.09,326,8.79l.32,0h.28a3.7,3.7,0,0,0,2.75-1,4,4,0,0,0,1-2.93" transform="translate(0.26 0.31)"/><path class="cls-1" d="M365.56,3.36c0-1.17-.09-2.35-.17-3.53l2.43.08c.8,0,1.6.06,2.42.06,1.34,0,2.54,0,3.58,0s1.75-.06,2.11-.1A5,5,0,0,0,375.82,1a5.89,5.89,0,0,0,0,.68c0,.17,0,.35.08.55l-1.73-.11L372.38,2c-.59,0-1.12-.06-1.6-.08l-1,0c-.07,1-.12,2-.13,3s0,2,0,3l3.2-.08c1,0,2-.08,3-.14-.05.31-.09.55-.11.71s0,.34,0,.52a2.42,2.42,0,0,0,0,.45c0,.15.06.37.09.66q-3.1-.24-6.18-.24c0,.58,0,1.16,0,1.74s0,1.16,0,1.74c0,1.18,0,2.32.09,3.41,1,0,2.07,0,3.1-.08s2.08-.15,3.13-.28c0,.2-.06.38-.08.55a7.72,7.72,0,0,0,0,1.36,2,2,0,0,0,.08.41l-1.81,0-2.95,0h-4.32l-.93,0-.53,0c.08-1.13.13-2.28.17-3.45s.05-2.51.05-4V7.37c0-1.5,0-2.84-.05-4" transform="translate(0.26 0.31)"/></svg>