<svg xmlns="http://www.w3.org/2000/svg" viewBox="0 0 465 537"><defs><style>.cls-1{fill:#fefefe;}.cls-2{fill:#fefefd;}.cls-3{fill:#f9f4ea;}.cls-4{fill:#e0be83;}.cls-5{fill:#f8f1e5;}.cls-6{fill:#ca922f;}.cls-7{fill:#c68f2d;}.cls-8{fill:#c78f2d;}.cls-9{fill:#ca912e;}.cls-10{fill:#c7902d;}.cls-11{fill:#ca922e;}</style></defs><g id="图层_2" data-name="图层 2"><g id="图层_1-2" data-name="图层 1"><path class="cls-1" d="M465,402.52V537H0V372H.42c0,9.33.09,18.66,0,28a3.66,3.66,0,0,0,2.11,3.72q29.55,17,59,34.13a3.44,3.44,0,0,0,4-.08C78.08,430.5,90.64,423.3,103.15,416a3.48,3.48,0,0,1,4-.09q30.11,17.5,60.32,34.83a3.47,3.47,0,0,1,2,3.5c-.07,14.58,0,29.16-.08,43.74a3.28,3.28,0,0,0,1.91,3.31q29.68,17,59.26,34.17a3.27,3.27,0,0,0,3.81.08q29.47-17.1,59-34a3.86,3.86,0,0,0,2.17-3.95c-.08-14.41,0-28.82-.08-43.23a3.47,3.47,0,0,1,2-3.53q30.11-17.26,60.1-34.71a3.87,3.87,0,0,1,4.51,0c12.42,7.28,24.92,14.42,37.35,21.69a3.66,3.66,0,0,0,4.28,0c8.16-4.84,16.41-9.53,24.61-14.29q18-10.47,36-21h.5Z"/><path class="cls-1" d="M0,134.51V0H465V134.51a.39.39,0,0,0-.42-.08,4.2,4.2,0,0,0-.55-.49q-30.46-17.65-61-35.23A3.74,3.74,0,0,0,400,99q-19.1,10.89-38.07,22a3.26,3.26,0,0,1-3.81,0Q328,103.47,297.77,86.14a3.74,3.74,0,0,1-2.16-3.74c.07-14.25,0-28.5.1-42.74A4.61,4.61,0,0,0,293,35q-29-16.6-58-33.41a4.07,4.07,0,0,0-4.72,0q-29.47,17.1-59.06,34.05a3.11,3.11,0,0,0-1.71,3.18c.05,14.58,0,29.16.07,43.75a3.47,3.47,0,0,1-2,3.51q-30,17.19-59.91,34.59a4.2,4.2,0,0,1-4.93-.06c-12.28-7.2-24.65-14.24-36.92-21.44a4,4,0,0,0-4.7.06c-8.38,5-16.85,9.78-25.27,14.67Q18.14,124.19.47,134.5Z"/><path class="cls-1" d="M0,329.52v-122l.63-.07c13.42,7.7,26.85,15.38,40.22,23.16A3.18,3.18,0,0,1,42,233q.09,35.37,0,70.72a3.69,3.69,0,0,1-1.46,2.71c-13.29,7.77-26.64,15.43-40,23.11Z"/><path class="cls-2" d="M465,207.51v122l-.52,0Q444.93,318.23,425.37,307a3.88,3.88,0,0,1-2.33-3.87q.12-34.6,0-69.21A3.87,3.87,0,0,1,425.3,230c13.08-7.46,26.1-15,39.13-22.56Z"/><path class="cls-3" d="M.63,207.44l-.63.07v-73H.47q0,35,0,70C.49,205.45.59,206.45.63,207.44Z"/><path class="cls-4" d="M465,207.51l-.57-.12c0-6.24.07-12.49.08-18.74q0-27.1.07-54.22a.39.39,0,0,1,.42.08Z"/><path class="cls-4" d="M464.48,329.54l.52,0v73h-.5Q464.49,366,464.48,329.54Z"/><path class="cls-5" d="M0,329.52l.55,0c0,.91-.05,1.83-.05,2.75Q.45,352.15.42,372H0Z"/><path class="cls-6" d="M.42,372q0-19.87.08-39.74c0-.92,0-1.84.05-2.75,13.34-7.68,26.69-15.34,40-23.11A3.69,3.69,0,0,0,42,303.72q.12-35.36,0-70.72a3.18,3.18,0,0,0-1.15-2.4c-13.37-7.78-26.8-15.46-40.22-23.16,0-1-.14-2-.14-3q0-35,0-70,17.68-10.31,35.37-20.6c8.42-4.89,16.89-9.71,25.27-14.67a4,4,0,0,1,4.7-.06c12.27,7.2,24.64,14.24,36.92,21.44a4.2,4.2,0,0,0,4.93.06q29.9-17.42,59.91-34.59a3.47,3.47,0,0,0,2-3.51c-.07-14.59,0-29.17-.07-43.75a3.11,3.11,0,0,1,1.71-3.18q29.58-17,59.06-34a4.07,4.07,0,0,1,4.72,0Q263.93,18.4,293,35a4.61,4.61,0,0,1,2.74,4.65c-.13,14.24,0,28.49-.1,42.74a3.74,3.74,0,0,0,2.16,3.74Q328,103.47,358.11,121a3.26,3.26,0,0,0,3.81,0q19-11.07,38.07-22a3.74,3.74,0,0,1,3.06-.27q30.54,17.52,61,35.23a4.2,4.2,0,0,1,.55.49q0,27.1-.07,54.22c0,6.25-.05,12.5-.08,18.74-13,7.54-26.05,15.1-39.13,22.56a3.87,3.87,0,0,0-2.25,3.92q.1,34.61,0,69.21a3.88,3.88,0,0,0,2.33,3.87q19.59,11.24,39.11,22.59,0,36.49,0,73-18,10.49-36,21c-8.2,4.76-16.45,9.45-24.61,14.29a3.66,3.66,0,0,1-4.28,0c-12.43-7.27-24.93-14.41-37.35-21.69a3.87,3.87,0,0,0-4.51,0q-30,17.44-60.1,34.71a3.47,3.47,0,0,0-2,3.53c.06,14.41,0,28.82.08,43.23a3.86,3.86,0,0,1-2.17,3.95q-29.58,16.92-59,34a3.27,3.27,0,0,1-3.81-.08q-29.58-17.15-59.26-34.17a3.28,3.28,0,0,1-1.91-3.31c.07-14.58,0-29.16.08-43.74a3.47,3.47,0,0,0-2-3.5q-30.2-17.34-60.32-34.83a3.48,3.48,0,0,0-4,.09c-12.51,7.29-25.07,14.49-37.58,21.78a3.44,3.44,0,0,1-4,.08q-29.44-17.16-59-34.13A3.66,3.66,0,0,1,.44,400C.51,390.69.44,381.36.42,372Zm352.06,38.49c-4.23-2.46-7.93-4.7-11.73-6.76a3.23,3.23,0,0,1-1.93-3.32q.09-34.24,0-68.5a3.31,3.31,0,0,1,1.9-3.34Q370.4,311.55,400,294.35a3.21,3.21,0,0,1,3.83,0c3.75,2.28,7.59,4.4,11.58,6.68V235.76c-4,2.32-7.82,4.4-11.49,6.65a3.41,3.41,0,0,1-4,0q-29.36-17.08-58.8-34a3.83,3.83,0,0,1-2.23-3.9c.06-21.67.15-43.34-.1-65,0-4,.94-6.44,4.69-8.06,3.05-1.31,5.83-3.28,9.07-5.14L295.65,93.53c0,4.71-.16,8.85.06,13,.11,2.26-.73,3.39-2.62,4.47q-29.26,16.73-58.42,33.65a3.47,3.47,0,0,1-4.06,0c-19.07-11.08-38.15-22.15-57.36-33-3-1.68-4.07-3.47-3.79-6.78.3-3.57.07-7.2.07-11.28l-56.75,32.75c4.19,2.44,8.11,4.78,12.09,7a2.7,2.7,0,0,1,1.65,2.69c-.06,23.09,0,46.17-.14,69.25a3.68,3.68,0,0,1-1.56,2.68q-30,17.49-60.09,34.75a3.44,3.44,0,0,1-2.84-.1c-3.53-1.87-7-3.95-10.42-5.93a16.06,16.06,0,0,0-1.79-.76V301.2c4.06-2.34,7.89-4.46,11.63-6.74a3.43,3.43,0,0,1,4-.06q29.56,17.22,59.23,34.26a3.3,3.3,0,0,1,1.9,3.33q-.08,34.13,0,68.25a3.4,3.4,0,0,1-2,3.52c-3.85,2.07-7.59,4.35-11.75,6.76l56.77,32.76c0-4.88.06-9.27,0-13.67a3.1,3.1,0,0,1,1.75-3.18q29.67-17,59.28-34.16a3.51,3.51,0,0,1,4.07-.08q29.27,17,58.64,33.79a4.11,4.11,0,0,1,2.46,4.29c-.18,4.19-.05,8.39-.05,13.05Zm104.9-239.66h-.06c0-9.91,0-19.82,0-29.73a3.53,3.53,0,0,0-2-3.58q-26-14.93-51.86-30a3,3,0,0,0-3.41-.09q-26,15.11-52.08,30.09a3,3,0,0,0-1.72,2.95c.06,20.15,0,40.31.13,60.46a3.72,3.72,0,0,0,1.54,2.67c17.31,10.12,34.69,20.13,52,30.2a3.17,3.17,0,0,0,3.64.06q25.91-15.06,51.87-30a3.3,3.3,0,0,0,1.91-3.34C457.34,190.68,457.38,180.77,457.38,170.86ZM288.15,463.77c0-9.83,0-19.66,0-29.49a3.65,3.65,0,0,0-2.07-3.74q-25.8-14.75-51.48-29.67a3.5,3.5,0,0,0-4.06,0q-25.68,14.89-51.47,29.65a3.65,3.65,0,0,0-2.13,3.7q.12,29.49,0,59a4,4,0,0,0,2.43,4q25.56,14.63,51,29.42a3.68,3.68,0,0,0,4.29,0q25.78-15,51.69-29.79a3.14,3.14,0,0,0,1.76-3.17C288.12,483.76,288.15,473.77,288.15,463.77Zm58.23-97.65h0c0,10.08,0,20.16,0,30.24A3,3,0,0,0,348,399.3q26,14.93,51.88,30a3.16,3.16,0,0,0,3.63,0q25.89-15.06,51.86-30a3.33,3.33,0,0,0,2-3.33q-.06-29.86.06-59.72a3.28,3.28,0,0,0-1.92-3.32q-26-14.91-51.89-30a3,3,0,0,0-3.58,0q-25.78,15-51.65,29.88a3.51,3.51,0,0,0-2,3.52C346.43,346.29,346.38,356.21,346.38,366.12ZM288.14,73.26c0-10.08,0-20.16,0-30.24a3.11,3.11,0,0,0-1.83-3.13Q260.35,25,234.44,10a3.08,3.08,0,0,0-3.58,0q-25.8,15-51.7,29.8A3.69,3.69,0,0,0,177,43.41q.12,29.49,0,59a4.06,4.06,0,0,0,2.42,4q25.47,14.58,50.83,29.3a4,4,0,0,0,4.69.09q25.68-15,51.46-29.7a3.11,3.11,0,0,0,1.81-3.14C288.11,93.09,288.14,83.17,288.14,73.26ZM119,366.25h0c0-10,0-20,0-30a3.11,3.11,0,0,0-1.73-3.18q-26.09-15-52.1-30.11a3.06,3.06,0,0,0-3.58,0q-25.8,15-51.68,29.84a3.29,3.29,0,0,0-2,3.31q.11,30,0,60a3.12,3.12,0,0,0,1.82,3.12q26,14.92,51.88,30a3.09,3.09,0,0,0,3.61.07q25.8-15,51.7-29.83a3.64,3.64,0,0,0,2.07-3.73C118.94,385.91,119,376.08,119,366.25ZM8,170.62H8c0,10.08,0,20.16.06,30.25a3.67,3.67,0,0,0,1.38,2.74q26.09,15.24,52.32,30.23a4,4,0,0,0,3.33,0c17.41-10,34.75-20.06,52.14-30.06a3.11,3.11,0,0,0,1.78-3.14q-.06-30,0-60a3.1,3.1,0,0,0-1.81-3.12Q91.34,122.69,65.53,107.7a3.44,3.44,0,0,0-4,0q-25.78,15-51.67,29.88a3.28,3.28,0,0,0-1.9,3.32C8,150.79,8,160.7,8,170.62Z"/><path class="cls-1" d="M352.48,410.52l-56.83,32.8c0-4.66-.13-8.86.05-13.05a4.11,4.11,0,0,0-2.46-4.29q-29.39-16.78-58.64-33.79a3.51,3.51,0,0,0-4.07.08q-29.61,17.13-59.28,34.16a3.1,3.1,0,0,0-1.75,3.18c.09,4.4,0,8.79,0,13.67l-56.77-32.76c4.16-2.41,7.9-4.69,11.75-6.76a3.4,3.4,0,0,0,2-3.52q-.09-34.12,0-68.25a3.3,3.3,0,0,0-1.9-3.33Q94.93,311.61,65.36,294.4a3.43,3.43,0,0,0-4,.06c-3.74,2.28-7.57,4.4-11.63,6.74V235.91a16.06,16.06,0,0,1,1.79.76c3.47,2,6.89,4.06,10.42,5.93a3.44,3.44,0,0,0,2.84.1q30.1-17.26,60.09-34.75a3.68,3.68,0,0,0,1.56-2.68c.1-23.08.08-46.16.14-69.25a2.7,2.7,0,0,0-1.65-2.69c-4-2.23-7.9-4.57-12.09-7l56.75-32.75c0,4.08.23,7.71-.07,11.28-.28,3.31.82,5.1,3.79,6.78,19.21,10.85,38.29,21.92,57.36,33a3.47,3.47,0,0,0,4.06,0q29.16-16.91,58.42-33.65c1.89-1.08,2.73-2.21,2.62-4.47-.22-4.11-.06-8.25-.06-13l56.85,32.81c-3.24,1.86-6,3.83-9.07,5.14-3.75,1.62-4.73,4-4.69,8.06.25,21.66.16,43.33.1,65a3.83,3.83,0,0,0,2.23,3.9q29.44,16.92,58.8,34a3.41,3.41,0,0,0,4,0c3.67-2.25,7.45-4.33,11.49-6.65v65.32c-4-2.28-7.83-4.4-11.58-6.68a3.21,3.21,0,0,0-3.83,0q-29.57,17.2-59.23,34.25a3.31,3.31,0,0,0-1.9,3.34q.07,34.26,0,68.5a3.23,3.23,0,0,0,1.93,3.32C344.55,405.82,348.25,408.06,352.48,410.52Z"/><path class="cls-7" d="M382.63,172.28H375c0-3.19,0-6.25,0-9.31a2.51,2.51,0,0,1,.78-1.45c2.09-2.16,4.14-4.34,6.37-6.34a4.68,4.68,0,0,1,2.88-1c8-.08,16,0,24,0h3v-7.22l13.47,11.18-13.39,11.16V162H389.92c-5.28,0-7.28,2-7.29,7.22Z"/><path class="cls-8" d="M378.06,183.42l13.31-11.1v7.2h23.69a5.93,5.93,0,0,0,5.84-6v-4.32h7.58c0,3.16,0,6.36-.06,9.56,0,.54-.72,1.05-1.1,1.58-4.05,5.69-9.34,7.86-16.44,7.11-6.26-.66-12.64-.14-19.27-.14v7.32Z"/><path class="cls-9" d="M210.41,481.36a38.09,38.09,0,0,1,.11-6.62A4.65,4.65,0,0,1,213,472c3.61-1.67,7.46-2.85,11-4.65,1.55-.79,2.57-2.61,3.47-3.57-.41-1.89-.68-3.24-1-4.58a9.82,9.82,0,0,0-.57-1.57c-.61-1.45-1.62-2.86-1.78-4.35a55,55,0,0,1,0-8.12c.11-2.84.73-5.63,3.53-7,3.36-1.64,6.69-2.24,10.49-.38s3.78,4.88,3.73,8.25c0,1.95.52,3.92.37,5.86a24.67,24.67,0,0,1-1.34,5.5c-.63,1.92-1.48,3.76-2.3,5.81.15.13.45.28.58.53,2.6,4.9,7.93,5.37,12.27,7.16,3.56,1.47,5.33,3.3,4.95,7.12-.1,1.06,0,2.14,0,3.37Z"/><path class="cls-10" d="M220.84,466.62a58.92,58.92,0,0,1-5.74,2.46c-4.35,1.43-7.76,3.41-6.42,9.06H201c0-1.25.07-2.48,0-3.69a3,3,0,0,1,2.21-3.19c2.23-.89,4.43-1.88,6.67-2.77,3.29-1.31,4.16-4.49,2.1-7.41a6,6,0,0,1-1.11-2.87,67,67,0,0,1,.1-6.94c.14-2.61,1.79-3.91,4.14-4.69a6.73,6.73,0,0,1,6.94,1.44c.48.41.37,1.53.47,2.33.33,2.56.71,5.12.91,7.7a7.88,7.88,0,0,1-.52,2.89C222.37,462.63,221.7,464.27,220.84,466.62Z"/><path class="cls-7" d="M265.3,478.18h-7.17a14.76,14.76,0,0,1-.11-2.12c.28-3.19-1.46-4.93-4.19-6a47.53,47.53,0,0,0-6-2.41c-2.43-.62-3.05-2.33-3.57-4.37-.23-.9-.87-1.7-1.09-2.6a4.58,4.58,0,0,1-.11-2.75,10.63,10.63,0,0,0,.64-7.52,3.26,3.26,0,0,1,.94-2.72c2.49-2.13,7.41-1.79,9.7.46.05.06.09.14.14.2.83,1,1.21,11.32.42,12.39-2.55,3.51-2.25,6.48,2.3,8,1.34.44,2.59,1.14,3.89,1.68C266,472.46,266,472.46,265.3,478.18Z"/><path class="cls-9" d="M390.24,371.8c-4.33-10.32-8.54-20.46-12.86-30.55a2.64,2.64,0,0,1,.77-3.47c5.4-5,11-5,16.41-.06a37.62,37.62,0,0,0,6.34,4.8c5.29,3,10.68,2.28,15.22-1.74.49-.44,1-.89,1.69-1.57.86,2,1.64,3.8,2.39,5.59,3.55,8.43,7.07,16.88,10.68,25.28a2.34,2.34,0,0,1-.57,3c-5.18,5.18-11.22,5.36-16.58.44a64.26,64.26,0,0,0-5.5-4.69C400.65,363.38,395.75,364.16,390.24,371.8Z"/><path class="cls-10" d="M396.66,395.85l-6.54,2.7c-7.71-18.46-15.38-36.84-23.15-55.43l6.54-2.73C381.23,358.87,388.9,377.25,396.66,395.85Z"/><path class="cls-9" d="M240.9,73.16a26.77,26.77,0,0,0,2.27,2.75,13.94,13.94,0,0,0,3.69,3c5.18,2.26,10.48,4.24,15.69,6.42A4.52,4.52,0,0,1,265.47,90c-.1,2.56,0,5.12,0,7.83h-27c-1.05-4.46-2.25-9-3.05-13.52-.21-1.19.83-2.61,1.31-3.92-2.71-2.4-2.93-2.4-6.61-.14,2.06,5.93.54,8.18-.86,17.58H201.12a68.53,68.53,0,0,1,.14-9.41c.18-1.24,1.74-2.71,3-3.28,5.25-2.32,10.66-4.25,15.93-6.5a9.75,9.75,0,0,0,3-2.64A18.78,18.78,0,0,0,225,73.37c-.51-2.25-1-4.38-1.49-6.5a3.1,3.1,0,0,0-.59-1.51,8.57,8.57,0,0,1-2.38-8.88,7.18,7.18,0,0,0,.19-2.41c-.07-1.58-.36-3.15-.36-4.72,0-5.19,1.7-7.57,6.56-9.38a15.58,15.58,0,0,1,14,.89c3.87,2.11,4.13,4.67,4.15,8,0,3-.3,6,.67,9.09.81,2.59.55,5.69-2.42,7.51a2.16,2.16,0,0,0-.77,1.23C242,68.86,241.44,71.06,240.9,73.16Z"/><path class="cls-9" d="M86.38,330.49v57l-7.16.63V395c-1.68-.14-3.12-.28-4.57-.39-11-.86-21.89-1.74-32.84-2.56-5.13-.38-7.31-2.62-7.31-7.71V338.9c0-4.14,2-6.62,6.19-6.91,6.14-.43,12.3-.53,18.46-.72C68.13,331,77.11,330.75,86.38,330.49ZM82.3,383.72V335c-3.87,0-7.52-.08-11.17,0q-14.47.36-28.95.9A15.88,15.88,0,0,0,38.44,337l0,1.17A29.86,29.86,0,0,0,43,339.34c7.21.63,14.43,1.12,21.64,1.69,4.78.37,9.55.78,14.52,1.19v41.65ZM44.93,351l-.38,4.56,26.37,2.12.33-4.51ZM64.56,364.1l-15.35-1.2v4.53l14.9,1.19Z"/><path class="cls-11" d="M28.68,142.62H92.87v55.69H28.68Zm60.72,9.5H32.26c0,.56-.12,1-.12,1.36,0,13.08,0,26.15,0,39.23,0,2.13,1,2.19,2.61,2.18q26.23,0,52.46,0c.72,0,1.45-.1,2.24-.16Z"/><path class="cls-11" d="M85.54,155.74v35.14H36.15V155.74Zm-44.28,3.91c-.85,2.08,0,3,1.82,3.55s3.58,1.29,5.88,2.14c-2.32.84-4.14,1.64-6,2.15s-2.37,1.66-1.64,3.6c3.16-1.34,6.23-2.58,9.25-4a1.9,1.9,0,0,0,.11-3.48C47.56,162.23,44.4,161,41.26,159.65Zm23.63,11.09v-2.37H55.1v2.37Z"/></g></g></svg>