<?xml version="1.0" encoding="utf-8"?>
<!-- Generator: Adobe Illustrator 25.4.1, SVG Export Plug-In . SVG Version: 6.00 Build 0)  -->
<svg version="1.1" id="图层_1" xmlns="http://www.w3.org/2000/svg" xmlns:xlink="http://www.w3.org/1999/xlink" x="0px" y="0px"
	 viewBox="0 0 465 537" style="enable-background:new 0 0 465 537;" xml:space="preserve">
<style type="text/css">
	.st0{display:none;fill:#FEFEFE;}
	.st1{display:none;fill:#FEFEFD;}
	.st2{display:none;fill:#F9F4EA;}
	.st3{display:none;fill:#E0BE83;}
	.st4{display:none;fill:#F8F1E5;}
	.st5{fill:#CA922F;}
	.st6{fill:#09100B;}
	.st7{fill:#09110B;}
	.st8{fill:#C68F2D;}
	.st9{fill:#C78F2D;}
	.st10{fill:#CA912E;}
	.st11{fill:#C7902D;}
	.st12{fill:#CA922E;}
	.st13{fill:#10150C;}
	.st14{fill:#0E140C;}
	.st15{fill:#14180D;}
	.st16{fill:#1B1D0F;}
</style>
<g id="图层_2_00000116916703862615832990000009643373317777927813_">
	<g id="图层_1-2">
		<path class="st0" d="M465,402.5V537H0V372h0.4c0,9.3,0.1,18.7,0,28c-0.2,1.6,0.7,3.1,2.1,3.7c19.7,11.3,39.4,22.7,59,34.1
			c1.2,0.8,2.8,0.8,4-0.1c12.6-7.3,25.1-14.5,37.6-21.8c1.2-0.9,2.8-0.9,4-0.1c20.1,11.7,40.2,23.3,60.3,34.8c1.3,0.6,2.1,2,2,3.5
			c-0.1,14.6,0,29.2-0.1,43.7c-0.1,1.4,0.6,2.7,1.9,3.3c19.8,11.3,39.5,22.7,59.3,34.2c1.1,0.8,2.7,0.9,3.8,0.1
			c19.6-11.4,39.3-22.7,59-34c1.5-0.7,2.4-2.3,2.2-4c-0.1-14.4,0-28.8-0.1-43.2c-0.2-1.5,0.6-2.9,2-3.5
			c20.1-11.5,40.1-23.1,60.1-34.7c1.3-1,3.2-1,4.5,0c12.4,7.3,24.9,14.4,37.4,21.7c1.3,0.9,3,0.9,4.3,0c8.2-4.8,16.4-9.5,24.6-14.3
			c12-7,24-14,36-21h0.5L465,402.5z"/>
		<path class="st0" d="M0,134.5V0h465v134.5c-0.1-0.1-0.3-0.1-0.4-0.1c-0.2-0.2-0.4-0.3-0.5-0.5c-20.3-11.8-40.6-23.5-61-35.2
			c-1-0.3-2.1-0.2-3,0.3c-12.7,7.3-25.4,14.6-38.1,22c-1.1,0.8-2.7,0.8-3.8,0c-20.1-11.7-40.2-23.3-60.4-34.9
			c-1.4-0.7-2.3-2.2-2.2-3.7c0.1-14.2,0-28.5,0.1-42.7c0.2-2-0.9-3.9-2.7-4.7c-19.3-11.1-38.7-22.2-58-33.4c-1.4-1-3.3-1-4.7,0
			c-19.6,11.4-39.3,22.8-59.1,34c-1.2,0.6-1.9,1.9-1.7,3.2c0.1,14.6,0,29.2,0.1,43.8c0.2,1.5-0.7,2.9-2,3.5
			c-20,11.5-40,23-59.9,34.6c-1.5,1-3.5,1-4.9-0.1c-12.3-7.2-24.7-14.2-36.9-21.4c-1.4-1-3.3-1-4.7,0.1c-8.4,5-16.9,9.8-25.3,14.7
			c-11.8,6.9-23.6,13.7-35.4,20.6L0,134.5z"/>
		<path class="st0" d="M0,329.5v-122l0.6-0.1c13.4,7.7,26.9,15.4,40.2,23.2c0.7,0.6,1.1,1.5,1.1,2.4c0.1,23.6,0.1,47.2,0,70.7
			c-0.1,1.1-0.6,2.1-1.5,2.7c-13.3,7.8-26.6,15.4-40,23.1L0,329.5z"/>
		<path class="st1" d="M465,207.5v122h-0.5c-13-7.5-26.1-15-39.1-22.5c-1.5-0.7-2.5-2.2-2.3-3.9c0.1-23.1,0.1-46.1,0-69.2
			c-0.2-1.7,0.7-3.2,2.3-3.9c13.1-7.5,26.1-15,39.1-22.6L465,207.5z"/>
		<path class="st2" d="M0.6,207.4L0,207.5v-73h0.5c0,23.3,0,46.7,0,70C0.5,205.4,0.6,206.4,0.6,207.4z"/>
		<path class="st3" d="M465,207.5l-0.6-0.1c0-6.2,0.1-12.5,0.1-18.7c0-18.1,0-36.1,0.1-54.2c0.1-0.1,0.3,0,0.4,0.1V207.5z"/>
		<path class="st3" d="M464.5,329.5h0.5v73h-0.5C464.5,378.2,464.5,353.8,464.5,329.5z"/>
		<path class="st4" d="M0,329.5h0.6c0,0.9-0.1,1.8-0.1,2.8c0,13.3-0.1,26.5-0.1,39.7H0V329.5z"/>
		<path class="st5" d="M0.4,372c0-13.2,0-26.5,0.1-39.7c0-0.9,0-1.8,0.1-2.8c13.3-7.7,26.7-15.3,40-23.1c0.8-0.6,1.4-1.6,1.5-2.7
			c0.1-23.6,0.1-47.1,0-70.7c0-0.9-0.4-1.8-1.2-2.4c-13.4-7.8-26.8-15.5-40.2-23.2c0-1-0.1-2-0.1-3c0-23.3,0-46.7,0-70
			c11.8-6.9,23.6-13.7,35.4-20.6c8.4-4.9,16.9-9.7,25.3-14.7c1.4-1,3.3-1.1,4.7-0.1c12.3,7.2,24.6,14.2,36.9,21.4
			c1.5,1.1,3.4,1.1,4.9,0.1c19.9-11.6,39.9-23.1,59.9-34.6c1.3-0.6,2.2-2,2-3.5c-0.1-14.6,0-29.2-0.1-43.8c-0.2-1.3,0.5-2.6,1.7-3.2
			c19.7-11.3,39.4-22.7,59.1-34c1.4-1,3.3-1,4.7,0c19.3,11.2,38.6,22.4,58,33.4c1.8,0.8,2.9,2.7,2.7,4.7c-0.1,14.2,0,28.5-0.1,42.7
			c-0.1,1.6,0.7,3.1,2.2,3.7c20.1,11.6,40.2,23.2,60.3,34.9c1.1,0.8,2.7,0.8,3.8,0c12.7-7.4,25.4-14.7,38.1-22
			c0.9-0.5,2-0.6,3.1-0.3c20.4,11.7,40.7,23.4,61,35.2c0.2,0.1,0.4,0.3,0.5,0.5c0,18.1,0,36.1-0.1,54.2c0,6.2,0,12.5-0.1,18.7
			c-13,7.5-26,15.1-39.1,22.6c-1.5,0.7-2.4,2.3-2.2,3.9c0.1,23.1,0.1,46.1,0,69.2c-0.1,1.7,0.8,3.2,2.3,3.9
			c13.1,7.5,26.1,15,39.1,22.6c0,24.3,0,48.7,0,73c-12,7-24,14-36,21c-8.2,4.8-16.5,9.5-24.6,14.3c-1.3,0.9-3,0.9-4.3,0
			c-12.4-7.3-24.9-14.4-37.4-21.7c-1.3-1-3.2-1-4.5,0c-20,11.6-40,23.2-60.1,34.7c-1.4,0.6-2.2,2-2,3.5c0.1,14.4,0,28.8,0.1,43.2
			c0.2,1.6-0.7,3.2-2.2,4c-19.7,11.3-39.4,22.6-59,34c-1.2,0.8-2.7,0.8-3.8-0.1c-19.7-11.4-39.5-22.8-59.3-34.2
			c-1.3-0.6-2-1.9-1.9-3.3c0.1-14.6,0-29.2,0.1-43.7c0.1-1.5-0.7-2.9-2-3.5c-20.1-11.6-40.2-23.2-60.3-34.8c-1.2-0.8-2.8-0.8-4,0.1
			c-12.5,7.3-25.1,14.5-37.6,21.8c-1.2,0.9-2.8,0.9-4,0.1c-19.6-11.4-39.3-22.8-59-34.1c-1.5-0.6-2.5-2.1-2.3-3.8
			C0.5,390.7,0.4,381.4,0.4,372z M352.5,410.5c-4.2-2.5-7.9-4.7-11.7-6.8c-1.3-0.6-2.1-1.9-1.9-3.3c0.1-22.8,0.1-45.7,0-68.5
			c-0.1-1.4,0.6-2.7,1.9-3.3c19.8-11.3,39.5-22.8,59.3-34.2c1.1-0.8,2.7-0.8,3.8,0c3.8,2.3,7.6,4.4,11.6,6.7v-65.3
			c-4,2.3-7.8,4.4-11.5,6.6c-1.2,0.9-2.8,0.9-4,0c-19.6-11.4-39.2-22.7-58.8-34c-1.5-0.7-2.4-2.3-2.2-3.9c0.1-21.7,0.1-43.3-0.1-65
			c0-4,0.9-6.4,4.7-8.1c3-1.3,5.8-3.3,9.1-5.1l-56.9-32.8c0,4.7-0.2,8.8,0.1,13c0.1,2.3-0.7,3.4-2.6,4.5
			c-19.5,11.2-39,22.4-58.4,33.6c-1.2,0.9-2.8,0.9-4.1,0c-19.1-11.1-38.2-22.2-57.4-33c-3-1.7-4.1-3.5-3.8-6.8
			c0.3-3.6,0.1-7.2,0.1-11.3l-56.8,32.8c4.2,2.4,8.1,4.8,12.1,7c1.1,0.4,1.7,1.5,1.7,2.7c-0.1,23.1,0,46.2-0.1,69.2
			c-0.1,1.1-0.7,2.1-1.6,2.7c-20,11.7-40,23.2-60.1,34.8c-0.9,0.4-2,0.3-2.8-0.1c-3.5-1.9-7-3.9-10.4-5.9c-0.6-0.3-1.2-0.5-1.8-0.8
			v65.3c4.1-2.3,7.9-4.5,11.6-6.7c1.2-0.9,2.8-0.9,4-0.1c19.7,11.5,39.4,22.9,59.2,34.3c1.3,0.6,2,1.9,1.9,3.3
			c-0.1,22.8-0.1,45.5,0,68.2c0.2,1.5-0.6,2.9-2,3.5c-3.8,2.1-7.6,4.4-11.8,6.8l56.8,32.8c0-4.9,0.1-9.3,0-13.7
			c-0.2-1.3,0.5-2.6,1.8-3.2c19.8-11.3,39.5-22.7,59.3-34.2c1.2-0.9,2.8-0.9,4.1-0.1c19.5,11.3,39.1,22.6,58.6,33.8
			c1.7,0.7,2.7,2.5,2.5,4.3c-0.2,4.2,0,8.4,0,13L352.5,410.5z M457.4,170.8L457.4,170.8c-0.1-9.9-0.1-19.8-0.1-29.7
			c0.2-1.5-0.6-2.9-2-3.6c-17.3-10-34.6-20-51.9-30c-1-0.7-2.4-0.8-3.4-0.1c-17.3,10.1-34.7,20.1-52.1,30.1
			c-1.1,0.5-1.8,1.7-1.7,2.9c0.1,20.1,0,40.3,0.1,60.5c0.1,1.1,0.7,2,1.5,2.7c17.3,10.1,34.7,20.1,52,30.2c1.1,0.8,2.5,0.8,3.6,0.1
			c17.3-10,34.6-20,51.9-30c1.3-0.6,2.1-1.9,1.9-3.3C457.3,190.7,457.4,180.8,457.4,170.8L457.4,170.8z M288.1,463.8
			c0-9.8,0-19.7,0-29.5c0.2-1.6-0.6-3.1-2.1-3.7c-17.2-9.8-34.4-19.7-51.5-29.7c-1.2-0.9-2.8-0.9-4.1,0
			c-17.1,9.9-34.3,19.8-51.5,29.6c-1.4,0.6-2.3,2.1-2.1,3.7c0.1,19.7,0.1,39.3,0,59c-0.1,1.7,0.8,3.3,2.4,4c17,9.8,34,19.6,51,29.4
			c1.3,0.9,3,0.9,4.3,0c17.2-10,34.4-19.9,51.7-29.8c1.2-0.6,1.9-1.8,1.8-3.2C288.1,483.8,288.1,473.8,288.1,463.8z M346.4,366.1
			L346.4,366.1c0,10.1,0,20.2,0,30.2c-0.1,1.2,0.5,2.4,1.6,2.9c17.3,10,34.6,20,51.9,30c1.1,0.8,2.5,0.8,3.6,0
			c17.3-10,34.5-20,51.9-30c1.3-0.6,2.1-1.9,2-3.3c0-19.9,0-39.8,0.1-59.7c0.1-1.4-0.6-2.7-1.9-3.3c-17.3-9.9-34.6-19.9-51.9-30
			c-1.1-0.8-2.5-0.8-3.6,0c-17.2,10-34.4,20-51.6,29.9c-1.3,0.6-2.1,2-2,3.5C346.4,346.3,346.4,356.2,346.4,366.1z M288.1,73.3
			c0-10.1,0-20.2,0-30.2c0.1-1.3-0.6-2.6-1.8-3.1C269,30,251.7,20,234.4,10c-1.1-0.8-2.5-0.8-3.6,0c-17.2,10-34.4,19.9-51.7,29.8
			c-1.4,0.6-2.3,2.1-2.2,3.6c0.1,19.7,0.1,39.3,0,59c-0.1,1.7,0.8,3.3,2.4,4c17,9.7,33.9,19.5,50.8,29.3c1.4,1,3.3,1.1,4.7,0.1
			c17.1-10,34.3-19.9,51.5-29.7c1.2-0.6,1.9-1.8,1.8-3.1C288.1,93.1,288.1,83.2,288.1,73.3z M119,366.2L119,366.2c0-10,0-20,0-30
			c0.2-1.3-0.5-2.6-1.7-3.2c-17.4-10-34.8-20-52.1-30.1c-1.1-0.8-2.5-0.8-3.6,0c-17.2,10-34.4,19.9-51.7,29.8
			c-1.3,0.6-2.1,1.9-2,3.3c0.1,20,0.1,40,0,60c-0.1,1.3,0.6,2.6,1.8,3.1c17.3,9.9,34.6,19.9,51.9,30c1.1,0.8,2.5,0.8,3.6,0.1
			c17.2-10,34.4-19.9,51.7-29.8c1.4-0.7,2.3-2.2,2.1-3.7C118.9,385.9,119,376.1,119,366.2z M8,170.6L8,170.6c0,10.1,0,20.2,0.1,30.2
			c0,1.1,0.5,2.1,1.4,2.7c17.4,10.2,34.8,20.2,52.3,30.2c1.1,0.5,2.3,0.5,3.3,0c17.4-10,34.8-20.1,52.1-30.1
			c1.2-0.6,1.9-1.8,1.8-3.1c0-20,0-40,0-60c0.1-1.3-0.6-2.6-1.8-3.1c-17.2-9.9-34.5-19.8-51.7-29.8c-1.2-0.9-2.8-0.9-4,0
			c-17.2,10-34.4,20-51.7,29.9c-1.3,0.6-2,1.9-1.9,3.3C8,150.8,8,160.7,8,170.6z"/>
		<path class="st0" d="M352.5,410.5l-56.8,32.8c0-4.7-0.1-8.9,0-13c0.2-1.8-0.8-3.6-2.5-4.3c-19.6-11.2-39.1-22.4-58.6-33.8
			c-1.2-0.8-2.9-0.8-4.1,0.1c-19.7,11.4-39.5,22.8-59.3,34.2c-1.2,0.6-1.9,1.9-1.8,3.2c0.1,4.4,0,8.8,0,13.7l-56.8-32.8
			c4.2-2.4,7.9-4.7,11.8-6.8c1.4-0.6,2.2-2,2-3.5c-0.1-22.7-0.1-45.5,0-68.2c0.1-1.4-0.6-2.7-1.9-3.3
			c-19.8-11.4-39.5-22.8-59.2-34.3c-1.2-0.8-2.8-0.8-4,0.1c-3.7,2.3-7.6,4.4-11.6,6.7v-65.3c0.6,0.2,1.2,0.5,1.8,0.8
			c3.5,2,6.9,4.1,10.4,5.9c0.9,0.4,1.9,0.5,2.8,0.1c20.1-11.5,40.1-23.1,60.1-34.8c0.9-0.6,1.5-1.6,1.6-2.7
			c0.1-23.1,0.1-46.2,0.1-69.2c0.1-1.2-0.6-2.2-1.7-2.7c-4-2.2-7.9-4.6-12.1-7l56.8-32.8c0,4.1,0.2,7.7-0.1,11.3
			c-0.3,3.3,0.8,5.1,3.8,6.8c19.2,10.8,38.3,21.9,57.4,33c1.2,0.9,2.8,0.9,4.1,0c19.4-11.3,38.9-22.5,58.4-33.7
			c1.9-1.1,2.7-2.2,2.6-4.5c-0.2-4.1-0.1-8.2-0.1-13l56.9,32.8c-3.2,1.9-6,3.8-9.1,5.1c-3.8,1.6-4.7,4-4.7,8.1
			c0.2,21.7,0.2,43.3,0.1,65c-0.2,1.6,0.7,3.2,2.2,3.9c19.6,11.3,39.2,22.6,58.8,34c1.2,0.9,2.8,0.9,4,0c3.7-2.2,7.5-4.3,11.5-6.6
			v65.3c-4-2.3-7.8-4.4-11.6-6.7c-1.1-0.8-2.7-0.8-3.8,0c-19.7,11.5-39.5,22.9-59.2,34.2c-1.3,0.6-2,1.9-1.9,3.3
			c0,22.8,0,45.7,0,68.5c-0.2,1.4,0.6,2.8,1.9,3.3C344.5,405.8,348.2,408.1,352.5,410.5z"/>
		<path class="st6" d="M457.4,170.9c0,9.9,0,19.8,0,29.7c0.1,1.4-0.6,2.8-1.9,3.3c-17.3,9.9-34.6,19.9-51.9,30
			c-1.1,0.7-2.6,0.7-3.6-0.1c-17.3-10.1-34.7-20.1-52-30.2c-0.9-0.6-1.4-1.6-1.5-2.7c-0.1-20.1-0.1-40.3-0.1-60.5
			c-0.1-1.2,0.6-2.4,1.7-2.9c17.4-10,34.7-20,52.1-30.1c1-0.7,2.4-0.6,3.4,0.1c17.3,10,34.6,20,51.9,30c1.4,0.6,2.2,2.1,2,3.6
			C457.3,151.1,457.4,161,457.4,170.9L457.4,170.9z M382.6,172.3v-3.1c0-5.2,2-7.2,7.3-7.2h22.2v7.3l13.4-11.2L412,146.9v7.2h-3
			c-8,0-16,0-24,0c-1,0-2.1,0.4-2.9,1c-2.2,2-4.3,4.2-6.4,6.3c-0.4,0.4-0.7,0.9-0.8,1.5c-0.1,3.1,0,6.1,0,9.3L382.6,172.3z
			 M378.1,183.4l13.5,11.3v-7.3c6.6,0,13-0.5,19.3,0.1c7.1,0.8,12.4-1.4,16.4-7.1c0.4-0.5,1.1-1,1.1-1.6c0.1-3.2,0.1-6.4,0.1-9.6
			h-7.6v4.3c0,3.3-2.6,6-5.8,6h-23.7v-7.2L378.1,183.4z"/>
		<path class="st6" d="M288.1,463.8c0,10,0,20,0,30c0.1,1.3-0.6,2.6-1.8,3.2c-17.3,9.9-34.5,19.8-51.7,29.8c-1.3,0.9-3,0.9-4.3,0
			c-17-9.9-34-19.7-51-29.4c-1.6-0.7-2.6-2.3-2.4-4c0.1-19.7,0.1-39.3,0-59c-0.2-1.6,0.7-3.1,2.1-3.7c17.2-9.8,34.3-19.7,51.5-29.6
			c1.2-0.9,2.8-0.9,4.1,0c17.1,9.9,34.3,19.8,51.5,29.7c1.4,0.7,2.3,2.2,2.1,3.7C288.1,444.1,288.1,453.9,288.1,463.8z M210.4,481.4
			h45.9c0-1.2-0.1-2.3,0-3.4c0.4-3.8-1.4-5.6-4.9-7.1c-4.3-1.8-9.7-2.3-12.3-7.2c-0.1-0.2-0.4-0.4-0.6-0.5c0.8-2,1.7-3.9,2.3-5.8
			c0.7-1.8,1.1-3.6,1.3-5.5c0.1-1.9-0.4-3.9-0.4-5.9c0.1-3.4,0.2-6.4-3.7-8.2s-7.1-1.3-10.5,0.4c-2.8,1.4-3.4,4.1-3.5,7
			c-0.2,2.7-0.2,5.4,0,8.1c0.2,1.5,1.2,2.9,1.8,4.4c0.2,0.5,0.4,1,0.6,1.6c0.3,1.3,0.6,2.7,1,4.6c-0.9,1-1.9,2.8-3.5,3.6
			c-3.6,1.8-7.4,3-11,4.6c-1.2,0.5-2,1.6-2.4,2.8C210.3,476.9,210.2,479.2,210.4,481.4z M220.8,466.6c0.9-2.4,1.5-4,2.1-5.7
			c0.4-0.9,0.5-1.9,0.5-2.9c-0.2-2.6-0.6-5.1-0.9-7.7c-0.1-0.8,0-1.9-0.5-2.3c-1.9-1.8-4.5-2.3-6.9-1.4c-2.4,0.8-4,2.1-4.1,4.7
			c-0.2,2.3-0.2,4.6-0.1,6.9c0.1,1,0.5,2,1.1,2.9c2.1,2.9,1.2,6.1-2.1,7.4c-2.2,0.9-4.4,1.9-6.7,2.8c-1.4,0.4-2.4,1.7-2.2,3.2
			c0.1,1.2,0,2.4,0,3.7h7.7c-1.3-5.6,2.1-7.6,6.4-9.1C217,468.4,219,467.5,220.8,466.6z M265.3,478.2c0.7-5.7,0.7-5.7-4.2-7.8
			c-1.3-0.5-2.5-1.2-3.9-1.7c-4.6-1.5-4.9-4.5-2.3-8c0.8-1.1,0.4-11.4-0.4-12.4c-0.1-0.1-0.1-0.1-0.1-0.2c-2.3-2.2-7.2-2.6-9.7-0.5
			c-0.7,0.7-1.1,1.7-0.9,2.7c0.7,2.5,0.5,5.2-0.6,7.5c-0.2,0.9-0.2,1.9,0.1,2.8c0.2,0.9,0.9,1.7,1.1,2.6c0.5,2,1.1,3.8,3.6,4.4
			c2.1,0.7,4.1,1.5,6,2.4c2.7,1.1,4.5,2.8,4.2,6c0,0.7,0,1.4,0.1,2.1L265.3,478.2z"/>
		<path class="st7" d="M346.4,366.1c0-9.9,0-19.8,0-29.7c-0.1-1.5,0.7-2.9,2-3.5C365.6,323,382.8,313,400,303c1.1-0.8,2.5-0.8,3.6,0
			c17.3,10,34.6,20,51.9,30c1.3,0.6,2.1,1.9,1.9,3.3c-0.1,19.9-0.1,39.8-0.1,59.7c0.1,1.4-0.7,2.8-2,3.3c-17.3,10-34.6,20-51.9,30
			c-1.1,0.8-2.5,0.8-3.6,0c-17.3-10-34.6-20-51.9-30c-1.1-0.5-1.8-1.7-1.7-2.9c0.1-10.1,0-20.2,0-30.2L346.4,366.1z M390.2,371.8
			c5.5-7.6,10.4-8.4,18-2.9c1.9,1.5,3.8,3,5.5,4.7c5.4,4.9,11.4,4.7,16.6-0.4c0.9-0.7,1.1-2,0.6-3c-3.6-8.4-7.1-16.9-10.7-25.3
			c-0.8-1.8-1.5-3.6-2.4-5.6c-0.7,0.7-1.2,1.1-1.7,1.6c-4.5,4-9.9,4.8-15.2,1.7c-2.3-1.4-4.4-3-6.3-4.8c-5.5-4.9-11-4.9-16.4,0.1
			c-1.1,0.8-1.4,2.3-0.8,3.5C381.7,351.3,385.9,361.5,390.2,371.8z M396.7,395.8c-7.8-18.6-15.4-37-23.1-55.5l-6.5,2.7
			c7.8,18.6,15.4,37,23.1,55.4L396.7,395.8z"/>
		<path class="st6" d="M288.1,73.3c0,9.9,0,19.8,0,29.7c0.1,1.3-0.6,2.6-1.8,3.1c-17.2,9.8-34.3,19.7-51.5,29.7
			c-1.4,1-3.3,0.9-4.7-0.1c-16.9-9.8-33.8-19.6-50.8-29.3c-1.6-0.7-2.5-2.3-2.4-4c0.1-19.7,0.1-39.3,0-59c-0.1-1.6,0.7-3,2.2-3.7
			c17.3-9.9,34.5-19.8,51.7-29.8c1.1-0.8,2.5-0.8,3.6,0c17.3,10,34.6,20,51.9,29.9c1.2,0.5,2,1.8,1.9,3.1
			C288.1,53.1,288.1,63.2,288.1,73.3z M240.9,73.2c0.5-2.1,1.1-4.3,1.7-6.5c0.1-0.5,0.4-0.9,0.8-1.2c3-1.8,3.2-4.9,2.4-7.5
			c-1-3.1-0.7-6-0.7-9.1c0-3.3-0.3-5.9-4.1-8c-4.3-2.5-9.4-2.8-14-0.8c-4.9,1.8-6.6,4.2-6.6,9.4c0,1.6,0.3,3.1,0.4,4.7
			c0.1,0.8,0,1.6-0.2,2.4c-1,3.2-0.1,6.6,2.4,8.9c0.3,0.4,0.5,1,0.6,1.5c0.5,2.1,1,4.2,1.5,6.5c-0.5,0.9-1.1,1.8-1.8,2.6
			c-0.8,1.1-1.8,2-3,2.6c-5.3,2.2-10.7,4.2-15.9,6.5c-1.3,0.6-2.8,2-3,3.3c-0.3,3.1-0.3,6.3-0.1,9.4h28.1c1.4-9.4,2.9-11.7,0.9-17.6
			c3.7-2.3,3.9-2.3,6.6,0.1c-0.5,1.3-1.5,2.7-1.3,3.9c0.8,4.6,2,9.1,3.1,13.5h27c0-2.7-0.1-5.3,0-7.8c0.2-2.1-1-4-2.9-4.8
			c-5.2-2.2-10.5-4.2-15.7-6.4c-1.4-0.8-2.6-1.8-3.7-3C242.3,75,241.6,74.1,240.9,73.2L240.9,73.2z"/>
		<path class="st6" d="M119,366.2c0,9.8,0,19.7,0,29.5c0.2,1.6-0.6,3.1-2.1,3.7c-17.3,9.9-34.5,19.8-51.7,29.8
			c-1.1,0.8-2.5,0.7-3.6-0.1c-17.3-10-34.6-20-51.9-30c-1.2-0.6-1.9-1.8-1.7-3.1c0.1-20,0.1-40,0-60c-0.1-1.4,0.7-2.8,2-3.3
			c17.2-9.9,34.4-19.8,51.6-29.8c1.1-0.8,2.5-0.8,3.6,0c17.3,10.1,34.7,20.1,52.1,30.1c1.2,0.6,1.9,1.9,1.7,3.2
			C118.9,346.3,119,356.3,119,366.2L119,366.2z M86.4,330.5c-9.3,0.3-18.2,0.5-27.2,0.8c-6.2,0.2-12.3,0.3-18.5,0.7
			c-4.2,0.3-6.2,2.8-6.2,6.9v45.5c0,5.1,2.2,7.3,7.3,7.7c11,0.8,21.9,1.7,32.8,2.6c1.4,0.1,2.9,0.2,4.6,0.4v-6.9l7.2-0.6L86.4,330.5
			z"/>
		<path class="st6" d="M8,170.6c0-9.9,0-19.8,0-29.8c-0.1-1.4,0.6-2.7,1.9-3.3c17.3-9.9,34.5-19.9,51.7-29.9c1.2-0.9,2.8-0.9,4,0
			c17.2,10,34.4,19.9,51.7,29.8c1.2,0.5,1.9,1.8,1.8,3.1c-0.1,20-0.1,40,0,60c0.1,1.3-0.6,2.6-1.8,3.1c-17.4,10-34.7,20.1-52.1,30.1
			c-1.1,0.5-2.3,0.5-3.3,0c-17.5-10-34.9-20.1-52.3-30.2C8.6,203,8.1,202,8,200.9C7.9,190.8,8,180.7,8,170.6z M28.7,142.6v55.7h64.2
			v-55.7H28.7z"/>
		<path class="st8" d="M382.6,172.3H375c0-3.2,0-6.2,0-9.3c0.1-0.6,0.4-1.1,0.8-1.4c2.1-2.2,4.1-4.3,6.4-6.3c0.8-0.6,1.8-1,2.9-1
			c8-0.1,16,0,24,0h3V147l13.5,11.2l-13.4,11.2V162h-22.2c-5.3,0-7.3,2-7.3,7.2V172.3z"/>
		<path class="st9" d="M378.1,183.4l13.3-11.1v7.2h23.7c3.3,0,5.9-2.7,5.8-6v-4.3h7.6c0,3.2,0,6.4-0.1,9.6c0,0.5-0.7,1.1-1.1,1.6
			c-4,5.7-9.3,7.9-16.4,7.1c-6.3-0.7-12.6-0.1-19.3-0.1v7.3L378.1,183.4z"/>
		<path class="st10" d="M210.4,481.4c-0.2-2.2-0.1-4.4,0.1-6.6c0.4-1.2,1.3-2.2,2.5-2.7c3.6-1.7,7.5-2.9,11-4.6
			c1.6-0.8,2.6-2.6,3.5-3.6c-0.4-1.9-0.7-3.2-1-4.6c-0.1-0.5-0.3-1.1-0.6-1.6c-0.6-1.5-1.6-2.9-1.8-4.4c-0.2-2.7-0.2-5.4,0-8.1
			c0.1-2.8,0.7-5.6,3.5-7c3.4-1.6,6.7-2.2,10.5-0.4s3.8,4.9,3.7,8.2c0,2,0.5,3.9,0.4,5.9c-0.2,1.9-0.7,3.7-1.3,5.5
			c-0.6,1.9-1.5,3.8-2.3,5.8c0.1,0.1,0.4,0.3,0.6,0.5c2.6,4.9,7.9,5.4,12.3,7.2c3.6,1.5,5.3,3.3,4.9,7.1c-0.1,1.1,0,2.1,0,3.4
			L210.4,481.4z"/>
		<path class="st11" d="M220.8,466.6c-1.9,0.9-3.8,1.7-5.7,2.5c-4.4,1.4-7.8,3.4-6.4,9.1H201c0-1.2,0.1-2.5,0-3.7
			c-0.1-1.5,0.8-2.8,2.2-3.2c2.2-0.9,4.4-1.9,6.7-2.8c3.3-1.3,4.2-4.5,2.1-7.4c-0.6-0.8-1-1.8-1.1-2.9c-0.1-2.3-0.1-4.6,0.1-6.9
			c0.1-2.6,1.8-3.9,4.1-4.7c2.4-0.9,5.1-0.3,6.9,1.4c0.5,0.4,0.4,1.5,0.5,2.3c0.3,2.6,0.7,5.1,0.9,7.7c0,1-0.2,2-0.5,2.9
			C222.4,462.6,221.7,464.3,220.8,466.6z"/>
		<path class="st8" d="M265.3,478.2h-7.2c-0.1-0.7-0.1-1.4-0.1-2.1c0.3-3.2-1.5-4.9-4.2-6c-1.9-0.9-3.9-1.7-6-2.4
			c-2.4-0.6-3.1-2.3-3.6-4.4c-0.2-0.9-0.9-1.7-1.1-2.6c-0.3-0.9-0.4-1.8-0.1-2.8c1.1-2.3,1.4-5,0.6-7.5c-0.1-1,0.2-2,0.9-2.7
			c2.5-2.1,7.4-1.8,9.7,0.5c0.1,0.1,0.1,0.1,0.1,0.2c0.8,1,1.2,11.3,0.4,12.4c-2.6,3.5-2.2,6.5,2.3,8c1.3,0.4,2.6,1.1,3.9,1.7
			C266,472.5,266,472.5,265.3,478.2z"/>
		<path class="st10" d="M390.2,371.8c-4.3-10.3-8.5-20.5-12.9-30.5c-0.7-1.2-0.3-2.7,0.8-3.5c5.4-5,11-5,16.4-0.1
			c1.9,1.8,4.1,3.4,6.3,4.8c5.3,3,10.7,2.3,15.2-1.7c0.5-0.4,1-0.9,1.7-1.6c0.9,2,1.6,3.8,2.4,5.6c3.5,8.4,7.1,16.9,10.7,25.3
			c0.6,1,0.3,2.3-0.6,3c-5.2,5.2-11.2,5.4-16.6,0.4c-1.7-1.7-3.6-3.2-5.5-4.7C400.6,363.4,395.8,364.2,390.2,371.8z"/>
		<path class="st11" d="M396.7,395.9l-6.5,2.7c-7.7-18.5-15.4-36.8-23.1-55.4l6.5-2.7C381.2,358.9,388.9,377.2,396.7,395.9z"/>
		<path class="st10" d="M240.9,73.2c0.7,1,1.5,1.9,2.3,2.8c1,1.2,2.3,2.2,3.7,3c5.2,2.3,10.5,4.2,15.7,6.4c1.9,0.7,3.1,2.6,2.9,4.7
			c-0.1,2.6,0,5.1,0,7.8h-27c-1.1-4.5-2.2-9-3.1-13.5c-0.2-1.2,0.8-2.6,1.3-3.9c-2.7-2.4-2.9-2.4-6.6-0.1c2.1,5.9,0.5,8.2-0.9,17.6
			h-28.1c-0.2-3.1-0.1-6.3,0.1-9.4c0.2-1.2,1.7-2.7,3-3.3c5.2-2.3,10.7-4.2,15.9-6.5c1.2-0.7,2.2-1.6,3-2.6c0.7-0.8,1.3-1.7,1.8-2.6
			c-0.5-2.2-1-4.4-1.5-6.5c-0.1-0.5-0.3-1.1-0.6-1.5c-2.4-2.2-3.4-5.7-2.4-8.9c0.2-0.8,0.3-1.6,0.2-2.4c-0.1-1.6-0.4-3.2-0.4-4.7
			c0-5.2,1.7-7.6,6.6-9.4c4.5-1.9,9.7-1.6,14,0.9c3.9,2.1,4.1,4.7,4.1,8c0,3-0.3,6,0.7,9.1c0.8,2.6,0.6,5.7-2.4,7.5
			c-0.4,0.3-0.7,0.7-0.8,1.2C242,68.9,241.4,71.1,240.9,73.2z"/>
		<path class="st10" d="M86.4,330.5v57l-7.2,0.6v6.9c-1.7-0.1-3.1-0.3-4.6-0.4c-11-0.9-21.9-1.7-32.8-2.6c-5.1-0.4-7.3-2.6-7.3-7.7
			v-45.4c0-4.1,2-6.6,6.2-6.9c6.1-0.4,12.3-0.5,18.5-0.7C68.1,331,77.1,330.8,86.4,330.5z M82.3,383.7V335c-3.9,0-7.5-0.1-11.2,0
			c-9.6,0.2-19.3,0.5-29,0.9c-1.3,0.2-2.5,0.6-3.7,1.1v1.2c1.5,0.5,3,0.9,4.6,1.2c7.2,0.6,14.4,1.1,21.6,1.7
			c4.8,0.4,9.6,0.8,14.5,1.2v41.6L82.3,383.7z M44.9,351l-0.4,4.6l26.4,2.1l0.3-4.5L44.9,351z M64.6,364.1l-15.3-1.2v4.5l14.9,1.2
			L64.6,364.1z"/>
		<path class="st12" d="M28.7,142.6h64.2v55.7H28.7V142.6z M89.4,152.1H32.3c0,0.6-0.1,1-0.1,1.4c0,13.1,0,26.1,0,39.2
			c0,2.1,1,2.2,2.6,2.2c17.5,0,35,0,52.5,0c0.7,0,1.4-0.1,2.2-0.2L89.4,152.1z"/>
		<path class="st13" d="M82.3,383.7l-3.1,0.1v-41.6c-5-0.4-9.7-0.8-14.5-1.2c-7.2-0.6-14.4-1.1-21.6-1.7c-1.5-0.3-3.1-0.6-4.6-1.1
			V337c1.2-0.5,2.5-0.9,3.7-1.1c9.7-0.4,19.3-0.7,29-0.9c3.7-0.1,7.3,0,11.2,0L82.3,383.7z"/>
		<path class="st14" d="M44.9,351l26.3,2.2l-0.3,4.5l-26.4-2.1L44.9,351z"/>
		<path class="st13" d="M64.6,364.1l-0.4,4.5l-14.9-1.2v-4.5L64.6,364.1z"/>
		<path class="st15" d="M89.4,152.1v42.6c-0.8,0.1-1.5,0.2-2.2,0.2c-17.5,0-35,0-52.5,0c-1.6,0-2.6,0-2.6-2.2
			c0.1-13.1,0-26.1,0-39.2c0-0.4,0.1-0.8,0.1-1.4L89.4,152.1z M85.5,155.7H36.2v35.1h49.4V155.7z"/>
		<path class="st12" d="M85.5,155.7v35.1H36.2v-35.1H85.5z M41.3,159.7c-0.8,2.1,0,3,1.8,3.6s3.6,1.3,5.9,2.1
			c-2.3,0.8-4.1,1.6-6,2.1s-2.4,1.7-1.6,3.6c3.2-1.3,6.2-2.6,9.2-4c1-0.4,1.4-1.5,1.1-2.5c-0.2-0.4-0.5-0.8-0.9-1
			C47.6,162.2,44.4,161,41.3,159.7L41.3,159.7z M64.9,170.7v-2.4h-9.8v2.4H64.9z"/>
		<path class="st13" d="M41.3,159.6c3.1,1.3,6.3,2.6,9.4,4c0.9,0.5,1.4,1.6,0.9,2.5c-0.2,0.4-0.6,0.8-1,0.9c-3,1.4-6.1,2.6-9.2,4
			c-0.7-1.9-0.4-3.1,1.6-3.6s3.7-1.3,6-2.1c-2.3-0.9-4-1.6-5.9-2.1S40.4,161.7,41.3,159.6z"/>
		<path class="st16" d="M64.9,170.7h-9.8v-2.4h9.8V170.7z"/>
	</g>
</g>
</svg>
