<?xml version="1.0" encoding="utf-8"?>
<!-- Generator: Adobe Illustrator 25.4.1, SVG Export Plug-In . SVG Version: 6.00 Build 0)  -->
<svg version="1.1" id="图层_1" xmlns="http://www.w3.org/2000/svg" xmlns:xlink="http://www.w3.org/1999/xlink" x="0px" y="0px"
	 viewBox="0 0 460 261" style="enable-background:new 0 0 460 261;" xml:space="preserve">
<style type="text/css">
	.st0{fill:#cd932f;}
</style>
<g>
	<path class="st0" d="M6.5,157.2c-2.1,0-4.3-1.1-5.5-3c-1.9-3-1-7,2-9L231.5,0L457,145.3c3,1.9,3.9,6,1.9,9c-1.9,3-6,3.9-9,1.9
		L231.5,15.4L10,156.2C8.9,156.9,7.7,157.2,6.5,157.2z"/>
</g>
<g>
	<path class="st0" d="M6.5,261c-2.1,0-4.3-1.1-5.5-3c-1.9-3-1-7,2-9l228.5-145.3L457,249c3,1.9,3.9,6,1.9,9c-1.9,3-6,3.9-9,1.9
		L231.5,119.2L10,260C8.9,260.6,7.7,261,6.5,261z"/>
</g>
</svg>
