<?xml version="1.0" encoding="utf-8"?>
<!-- Generator: Adobe Illustrator 25.4.1, SVG Export Plug-In . SVG Version: 6.00 Build 0)  -->
<svg version="1.1" id="图层_1" xmlns="http://www.w3.org/2000/svg" xmlns:xlink="http://www.w3.org/1999/xlink" x="0px" y="0px"
	 viewBox="0 0 240 228" style="enable-background:new 0 0 240 228;" xml:space="preserve">
<style type="text/css">
	.st0{fill:#0C0C0C;}
	.st1{fill:#CD932F;}
</style>
<g>
	<g>
		<path class="st0" d="M-860.41,211.55h5.78c0-2.13-0.04-3.83-0.12-5.08l3.16,1.02c0.44,0.14,0.66,0.31,0.66,0.51
			c0,0.2-0.15,0.39-0.45,0.55l-0.74,0.37v2.62h5.78l1.27-1.89l2.46,1.64c0.22,0.14,0.33,0.29,0.33,0.47c0,0.18-0.11,0.35-0.33,0.51
			l-0.9,0.74V215c0,0.66,0.04,1.45,0.12,2.38c0.08,0.93,0.12,1.48,0.12,1.64c0,0.49-0.36,0.93-1.09,1.31
			c-0.73,0.38-1.2,0.57-1.44,0.57s-0.35-0.19-0.35-0.57v-1.56h-23.24c-0.03,5.16-0.62,9.07-1.76,11.7
			c-1.15,2.64-2.95,5.05-5.41,7.24l-0.61-0.41c1.75-2.19,3.04-4.51,3.87-6.97c0.83-2.46,1.25-5.67,1.25-9.63v-13.77
			c0-1.37-0.06-2.79-0.16-4.26l3.2,2.38h23.57l2.54-2.91l2.7,3.12c0.3,0.38,0.45,0.67,0.45,0.86c0,0.19-0.23,0.29-0.7,0.29h-28.94
			v5.16h6.52c0-2.13-0.04-3.81-0.12-5.04l3.12,1.02c0.44,0.14,0.66,0.31,0.66,0.51c0,0.21-0.15,0.39-0.45,0.55l-0.74,0.37V211.55z
			 M-862.87,212.78h-6.52v4.76h6.52V212.78z M-863.03,225.82v6.93l6.76-3.32l0.41,0.66l-5.98,4.59c-0.85,0.63-1.71,1.41-2.58,2.34
			c-0.25,0.27-0.49,0.41-0.74,0.41c-0.25,0-0.45-0.16-0.61-0.49l-1.23-2.5c0.68-0.19,1.11-0.43,1.27-0.72
			c0.16-0.29,0.25-0.87,0.25-1.74v-8.85c0-1.37-0.05-2.77-0.16-4.22l3.24,1.35c0.38,0.14,0.57,0.27,0.57,0.41
			c0,0.14-0.16,0.29-0.49,0.45l-0.7,0.37v3.2h3.28l1.64-2.01l1.89,2.34c0.19,0.22,0.29,0.41,0.29,0.57c0,0.16-0.16,0.25-0.49,0.25
			H-863.03z M-854.63,212.78h-5.78v4.76h5.78V212.78z M-859.75,199.13c3.47,0.85,5.21,1.9,5.21,3.16c0,0.57-0.22,1.09-0.66,1.56
			c-0.44,0.46-0.86,0.7-1.27,0.7c-0.41,0-0.75-0.12-1.01-0.35c-0.26-0.23-0.45-0.7-0.57-1.39c-0.12-0.7-0.35-1.28-0.68-1.76
			c-0.33-0.48-0.77-0.91-1.31-1.29L-859.75,199.13z M-852.62,228.73v4.51c0,0.49,0.27,0.79,0.82,0.9c0.55,0.11,1.76,0.16,3.65,0.16
			c1.89,0,3.01-0.08,3.38-0.23c0.37-0.15,0.66-0.61,0.88-1.37c0.22-0.77,0.48-2.24,0.78-4.43h0.61c0.11,1.56,0.23,2.69,0.37,3.38
			c0.14,0.7,0.3,1.18,0.49,1.45c0.19,0.27,0.48,0.49,0.86,0.66c0.38,0.16,0.57,0.36,0.57,0.59c0,0.23-0.29,0.65-0.86,1.25
			c-0.57,0.6-1.38,0.97-2.42,1.11c-1.04,0.14-2.79,0.2-5.25,0.2c-2.46,0-4.04-0.1-4.75-0.29c-0.71-0.19-1.18-0.52-1.39-0.98
			c-0.22-0.46-0.33-1.15-0.33-2.05v-8.24c0-2.1-0.06-4.26-0.16-6.48l3.53,1.35c0.35,0.14,0.53,0.29,0.53,0.47
			c0,0.18-0.18,0.36-0.53,0.55l-0.78,0.37v6.27c3.47-2.08,6.26-4.02,8.36-5.82l1.89,2.25c0.27,0.33,0.41,0.59,0.41,0.8
			s-0.27,0.32-0.82,0.35c-0.55,0.03-1.13,0.14-1.76,0.33L-852.62,228.73z M-846.15,212.78h-5.98v4.76h5.98V212.78z"/>
		<path class="st0" d="M-779.87,233.85v1.64c0,0.71-0.44,1.24-1.31,1.6c-0.88,0.36-1.42,0.53-1.64,0.53c-0.22,0-0.33-0.15-0.33-0.45
			s0.01-0.63,0.04-0.98c0.22-2.24,0.33-4.3,0.33-6.19v-5.45c-3.69,2.05-7.34,3.67-10.94,4.88l-0.33-0.78
			c4.1-1.83,7.84-3.88,11.23-6.15l-0.16-1.68l1.68,0.61c3.31-2.24,6.03-4.43,8.18-6.56c2.14-2.13,4.21-4.78,6.21-7.95h-12.62
			c-0.88,1.29-1.65,2.38-2.34,3.28c4.07,1.37,6.11,2.87,6.11,4.51c0,0.47-0.16,0.96-0.47,1.48c-0.31,0.52-0.7,0.78-1.15,0.78
			c-0.45,0-0.77-0.1-0.94-0.31c-0.18-0.21-0.36-0.57-0.53-1.09c-0.18-0.52-0.6-1.26-1.25-2.23c-0.65-0.97-1.38-1.84-2.17-2.6
			c-2.4,3.31-5.55,6.37-9.43,9.18l-0.49-0.49c2.79-2.6,5.33-5.67,7.62-9.22c2.3-3.55,4.06-7.12,5.29-10.7l3.4,2.05
			c0.33,0.19,0.49,0.36,0.49,0.51c0,0.15-0.2,0.27-0.59,0.35c-0.4,0.08-0.84,0.49-1.33,1.23l-1.39,2.13h12.09l1.93-2.01l3.53,2.5
			c0.25,0.16,0.37,0.35,0.37,0.55c0,0.21-0.21,0.32-0.63,0.35c-0.42,0.03-0.84,0.19-1.25,0.49c-0.41,0.3-1.02,0.92-1.84,1.84
			c-4.1,4.81-8.89,9.03-14.39,12.67h13.53l1.43-2.21l3.48,2.3c0.19,0.16,0.29,0.32,0.29,0.47c0,0.15-0.14,0.31-0.41,0.47l-1.15,0.82
			v5.41c0,1.04,0.04,2.1,0.12,3.2l0.12,2.46c0,0.52-0.41,0.97-1.23,1.35c-0.82,0.38-1.34,0.57-1.56,0.57
			c-0.22,0-0.33-0.18-0.33-0.53v-2.62H-779.87z M-779.87,232.74h15.25v-9.47h-15.25V232.74z"/>
		<path class="st0" d="M-682.39,233.56h-24.06v1.97c0,0.44-0.13,0.76-0.39,0.96c-0.26,0.21-0.66,0.42-1.19,0.66
			c-0.53,0.23-0.92,0.35-1.17,0.35c-0.49,0-0.67-0.45-0.53-1.35c0.27-2.6,0.41-5.56,0.41-8.89v-20.82c0-2.43-0.06-4.29-0.16-5.57
			l2.91,1.8h23.69l1.39-1.72l3.12,2.13c0.22,0.11,0.33,0.24,0.33,0.39c0,0.15-0.12,0.31-0.37,0.47l-1.11,0.78v21.89
			c0,1.86,0.06,3.55,0.16,5.08l0.25,3.49c0,0.33-0.41,0.74-1.23,1.23c-0.82,0.49-1.37,0.74-1.64,0.74c-0.27,0-0.41-0.19-0.41-0.57
			V233.56z M-706.45,232.42h24.06v-28.65h-24.06V232.42z M-696.33,226.55v-9.1h-3.85c-1.17,0-2.08,0.14-2.7,0.41l-1.43-1.72
			c1.01,0.14,2.12,0.21,3.32,0.21h4.67v-6.76h-5.33c-0.98,0-1.89,0.14-2.7,0.41l-1.39-1.68c1.07,0.11,2.17,0.16,3.32,0.16h14.02
			l2.13-2.58l2.42,2.83c0.22,0.27,0.33,0.49,0.33,0.64c0,0.15-0.19,0.23-0.57,0.23h-9.59v6.76h3.57l2.09-2.42l2.25,2.71
			c0.25,0.27,0.37,0.48,0.37,0.61c0,0.14-0.22,0.21-0.66,0.21h-7.62v9.1h5.86l2.25-2.66l2.46,2.91c0.19,0.27,0.29,0.48,0.29,0.63
			c0,0.15-0.19,0.23-0.57,0.23h-18.57c-1.09,0-1.99,0.12-2.7,0.37l-1.43-1.68c1.07,0.14,2.16,0.21,3.28,0.21H-696.33z
			 M-692.35,218.68c1.12,0.3,2.13,0.68,3.03,1.15s1.51,0.88,1.82,1.25c0.31,0.37,0.47,0.82,0.47,1.35c0,0.53-0.16,1.05-0.49,1.56
			c-0.33,0.51-0.7,0.76-1.11,0.76c-0.33,0-0.64-0.42-0.94-1.27c-0.52-1.45-1.53-2.9-3.03-4.35L-692.35,218.68z"/>
		<path class="st0" d="M-625.33,203.19h4.3l1.48-2.01l2.79,2.7c0.25,0.25,0.37,0.44,0.37,0.57c0,0.14-0.2,0.25-0.59,0.33
			c-0.4,0.08-0.77,0.31-1.11,0.68c-0.34,0.37-0.72,0.91-1.13,1.62l-3.89,6.64c1.8,1.59,3.15,3.12,4.04,4.59
			c0.89,1.48,1.33,3.09,1.33,4.84c0,1.75-0.77,3.18-2.3,4.28c-1.53,1.11-2.53,1.66-2.99,1.66c-0.19,0-0.33-0.2-0.41-0.61
			c-0.14-0.96-0.38-1.65-0.72-2.09c-0.34-0.44-0.87-0.78-1.58-1.02l0.04-0.49c1.01,0.25,1.86,0.37,2.54,0.37
			c1.8,0,2.71-0.96,2.71-2.87c0-1.15-0.35-2.51-1.05-4.08c-0.7-1.57-1.67-3.14-2.93-4.69l3.65-9.31h-5.41v23.12
			c0,2.65,0.03,4.58,0.08,5.78c0.05,1.2,0.08,1.86,0.08,1.97c0,0.57-0.41,1.08-1.23,1.52c-0.82,0.44-1.36,0.65-1.62,0.65
			c-0.26,0-0.39-0.31-0.39-0.94l0.21-4.43c0.08-1.89,0.12-3.72,0.12-5.49v-18.69c0-3.01-0.06-5.29-0.16-6.84L-625.33,203.19z
			 M-610,219.75c0.27,0.16,0.41,0.34,0.41,0.53c0,0.19-0.17,0.33-0.51,0.43c-0.34,0.1-0.76,0.55-1.25,1.37
			c-3.09,5.66-6.23,9.88-9.43,12.67l-0.45-0.53c3.91-4.65,6.61-10.1,8.12-16.36L-610,219.75z M-605.04,214.54v17.3
			c0,1.48-0.11,2.49-0.33,3.05c-0.22,0.56-0.82,1.14-1.8,1.74c-0.98,0.6-1.63,0.9-1.95,0.9c-0.31,0-0.49-0.35-0.53-1.05
			c-0.04-0.7-0.33-1.26-0.86-1.68c-0.53-0.42-1.63-0.87-3.3-1.33l0.08-0.74c1.91,0.19,3.24,0.29,3.98,0.29
			c0.74,0,1.2-0.07,1.39-0.21c0.19-0.14,0.29-0.4,0.29-0.78v-17.5h-6.15c-1.12,0-2.05,0.15-2.79,0.45l-1.56-1.8
			c1.04,0.14,2.17,0.21,3.4,0.21h16.6l2.21-2.62l2.71,3.07c0.22,0.27,0.33,0.46,0.33,0.55c0,0.1-0.21,0.14-0.61,0.14H-605.04z
			 M-611.64,203.72h10l2.3-2.79l2.75,3.2c0.19,0.25,0.29,0.44,0.29,0.57c0,0.14-0.21,0.21-0.61,0.21h-13.81
			c-1.07,0-2,0.15-2.79,0.45l-1.52-1.89C-614.04,203.64-612.9,203.72-611.64,203.72 M-602.75,218.73c2.43,2.32,4.39,4.43,5.88,6.33
			c1.49,1.9,2.23,3.41,2.23,4.53c0,1.12-0.18,1.96-0.55,2.52c-0.37,0.56-0.87,0.84-1.5,0.84c-0.33,0-0.63-0.15-0.9-0.45
			c-0.27-0.3-0.45-0.68-0.53-1.15c-0.44-2.46-0.98-4.43-1.64-5.92c-0.65-1.49-1.86-3.56-3.61-6.21L-602.75,218.73z"/>
		<path class="st0" d="M-541.06,207.25h-1.97c-1.04,0-1.94,0.15-2.71,0.45l-1.48-1.8c1.01,0.16,2.13,0.25,3.36,0.25h2.79v-3.2
			c0-1.07-0.06-2.31-0.16-3.73l3.77,1.48c0.41,0.16,0.62,0.34,0.62,0.53c0,0.19-0.12,0.4-0.37,0.61l-0.98,0.78v3.53h1.11l1.72-2.09
			l2.13,2.54c0.16,0.19,0.25,0.35,0.25,0.47c0,0.12-0.19,0.19-0.57,0.19h-4.63v4.47h2.17c2.51-3.14,4.44-6.11,5.78-8.89l2.21,2.17
			c0.22,0.19,0.33,0.4,0.33,0.62c0,0.22-0.27,0.41-0.8,0.57c-0.53,0.16-0.98,0.52-1.33,1.07c-1.12,1.53-2.3,3.02-3.53,4.47h2.5
			l1.6-1.93l1.89,2.34c0.22,0.22,0.33,0.4,0.33,0.53c0,0.14-0.21,0.21-0.61,0.21h-6.72c-1.07,1.23-2.24,2.46-3.52,3.69h3.61l1.8-1.6
			l2.5,2.46c0.22,0.22,0.33,0.42,0.33,0.61c0,0.19-0.36,0.31-1.07,0.35c-0.71,0.04-1.41,0.25-2.09,0.64
			c-0.68,0.38-1.82,1.28-3.4,2.7l1.27,0.49c0.33,0.14,0.49,0.28,0.49,0.43s-0.12,0.32-0.37,0.51l-1.02,0.7v1.02l7.46-1.35l0.12,0.57
			l-7.58,2.09v5.9c0,1.17-0.1,1.98-0.29,2.42c-0.19,0.44-0.77,0.98-1.72,1.62c-0.96,0.64-1.53,0.96-1.72,0.96
			c-0.19,0-0.32-0.31-0.39-0.92c-0.07-0.61-0.46-1.14-1.17-1.58c-0.71-0.44-1.78-0.79-3.2-1.07l0.08-0.7c2,0.27,3.33,0.41,4,0.41
			c0.67,0,1.09-0.08,1.27-0.23c0.18-0.15,0.27-0.39,0.27-0.72v-5.33c-1.56,0.47-3.07,0.95-4.55,1.46c-1.48,0.51-2.33,0.83-2.56,0.96
			c-0.23,0.14-0.42,0.21-0.57,0.21c-0.15,0-0.32-0.16-0.51-0.49l-1.15-2.13l9.35-1.6c0-1.2-0.06-2.79-0.16-4.76l1.89,0.74l3.16-3.69
			h-5.21c-3.47,3.22-6.9,5.74-10.29,7.54l-0.33-0.7c3.03-2.13,5.79-4.41,8.28-6.84h-1.64c-1.12,0-2.02,0.14-2.71,0.41l-1.44-1.76
			c1.01,0.16,2.13,0.25,3.36,0.25h3.53c1.31-1.31,2.42-2.54,3.32-3.69h-8.73c-1.12,0-2.04,0.15-2.75,0.45l-1.48-1.84
			c1.01,0.16,2.13,0.25,3.36,0.25h5.49V207.25z M-526.1,215.32c-1.12,2.16-2.31,4.06-3.57,5.7l-0.7-0.41
			c1.72-2.9,3.26-6.37,4.61-10.43c1.35-4.06,2.23-7.77,2.64-11.13l3.44,1.64c0.3,0.14,0.45,0.31,0.45,0.51
			c0,0.21-0.14,0.34-0.43,0.41c-0.29,0.07-0.5,0.25-0.63,0.55l-3.2,7.54h6.72l2.34-2.79l2.75,3.28c0.14,0.16,0.21,0.3,0.21,0.41
			c0,0.11-0.16,0.16-0.49,0.16h-4.39c-0.47,6.89-1.79,12.17-3.98,15.86c2.3,3.12,5.36,5.33,9.18,6.64l-0.16,0.45
			c-1.26,0.08-2.11,0.27-2.56,0.55c-0.45,0.29-0.77,0.8-0.96,1.54c-0.03,0.19-0.1,0.29-0.21,0.29c-0.3,0-1.33-0.89-3.09-2.68
			c-1.76-1.79-3.03-3.26-3.79-4.41c-2.76,3.58-7.21,6.22-13.36,7.91l-0.25-0.65c5.6-2,9.72-5.12,12.34-9.39
			C-524.94,223.82-525.91,219.97-526.1,215.32 M-523.92,210.77c-0.27,0.66-0.66,1.5-1.15,2.54c0.46,4.24,1.54,7.9,3.24,10.99
			c1.64-3.47,2.6-7.98,2.87-13.53H-523.92z"/>
		<path class="st0" d="M-452.6,206.1h-10.41c-1.12,0-2.04,0.15-2.75,0.45l-1.47-1.8c1.01,0.14,2.12,0.21,3.32,0.21H-436l2.66-2.87
			l3.12,3.32c0.22,0.22,0.33,0.39,0.33,0.51s-0.19,0.18-0.57,0.18h-20.62l1.72,0.98c0.38,0.22,0.57,0.39,0.57,0.51
			c0,0.12-0.21,0.23-0.63,0.31c-0.42,0.08-0.93,0.25-1.52,0.49c-0.59,0.25-2.89,1.52-6.91,3.81l17.83-0.53
			c-1.42-1.12-3.4-2.34-5.94-3.65l0.33-0.57c3.63,1.17,6.18,2.08,7.64,2.7c1.46,0.63,2.41,1.2,2.85,1.72
			c0.44,0.52,0.66,1.13,0.66,1.82c0,0.7-0.12,1.24-0.37,1.62c-0.25,0.38-0.54,0.57-0.88,0.57c-0.34,0-0.77-0.38-1.29-1.13
			c-0.52-0.75-1.13-1.46-1.84-2.11l-13.49,1.11c-4.54,0.36-7.16,0.7-7.87,1.02c-0.27,0.11-0.51,0.16-0.7,0.16
			c-0.19,0-0.33-0.12-0.41-0.37l-0.9-2.5c1.04,0.03,2.01-0.15,2.91-0.53c0.9-0.38,2.06-1.11,3.46-2.19
			C-454.45,208.28-453.37,207.19-452.6,206.1 M-441.49,228.56h-15v7.3c0,0.52-0.41,0.92-1.23,1.19c-0.82,0.27-1.29,0.41-1.42,0.41
			c-0.12,0-0.22-0.06-0.29-0.19c-0.07-0.12-0.09-0.4-0.06-0.84c0.14-1.39,0.21-3.48,0.21-6.27v-10.41c0-1.39-0.06-2.81-0.16-4.26
			l2.99,1.56h14.55l1.6-1.76l2.62,1.97c0.19,0.19,0.29,0.35,0.29,0.47c0,0.12-0.1,0.24-0.29,0.35l-0.9,0.49v14.88
			c0,0.87-0.16,1.56-0.47,2.07c-0.31,0.51-1.04,1.06-2.17,1.66c-1.13,0.6-1.82,0.9-2.05,0.9c-0.23,0-0.38-0.15-0.43-0.45
			c-0.19-1.15-0.66-1.95-1.41-2.42c-0.75-0.47-1.84-0.88-3.26-1.23l0.16-0.74c2.32,0.55,3.88,0.82,4.67,0.82
			c0.79,0,1.33-0.11,1.62-0.33c0.29-0.22,0.43-0.67,0.43-1.35V228.56z M-456.5,222.17h15v-4.02h-15V222.17z M-441.49,223.32h-15
			v4.14h15V223.32z M-451.41,199.42c1.8,0.33,3.09,0.7,3.85,1.11c0.76,0.41,1.15,1.03,1.15,1.86c0,0.83-0.21,1.42-0.62,1.76
			c-0.41,0.34-0.82,0.51-1.23,0.51c-0.6,0-1.04-0.44-1.31-1.31c-0.44-1.48-1.15-2.61-2.13-3.4L-451.41,199.42z"/>
		<path class="st0" d="M-792.84,277.48c-0.11,1.53-0.22,3.06-0.33,4.59c-0.16-0.03-0.33-0.04-0.49-0.04h-0.47h-0.48
			c-0.16,0-0.32,0.01-0.48,0.04c0.44-2.35,0.83-4.69,1.17-7.01c0.34-2.32,0.65-4.68,0.94-7.07c0.15,0.03,0.29,0.05,0.42,0.07
			c0.13,0.02,0.27,0.03,0.42,0.03c0.12,0,0.25-0.01,0.39-0.03c0.14-0.02,0.28-0.04,0.43-0.07c0.37,0.82,0.75,1.65,1.16,2.5
			c0.4,0.85,0.81,1.69,1.21,2.53c0.4,0.84,0.8,1.66,1.21,2.47c0.4,0.81,0.79,1.57,1.16,2.3c0.82-1.53,1.64-3.13,2.45-4.81
			c0.81-1.67,1.59-3.34,2.33-4.99c0.34,0.07,0.64,0.1,0.88,0.1c0.23,0,0.52-0.03,0.86-0.1c0.14,1.17,0.28,2.44,0.44,3.79
			c0.16,1.35,0.31,2.67,0.46,3.97c0.15,1.29,0.3,2.5,0.45,3.62c0.15,1.12,0.29,2.02,0.41,2.71c-0.27-0.03-0.55-0.04-0.83-0.04h-0.83
			h-0.84c-0.29,0-0.57,0.01-0.86,0.04c-0.07-1.41-0.18-2.93-0.34-4.57c-0.16-1.64-0.32-3.27-0.48-4.88h-0.04
			c-0.78,1.61-1.54,3.2-2.29,4.75c-0.75,1.56-1.5,3.12-2.23,4.69c-0.07-0.01-0.13-0.02-0.2-0.03c-0.06-0.01-0.13-0.01-0.19-0.01
			c-0.07,0-0.13,0-0.19,0.01c-0.06,0.01-0.13,0.02-0.19,0.03c-0.74-1.53-1.47-3.06-2.2-4.59c-0.73-1.53-1.49-3.08-2.26-4.65h-0.04
			C-792.57,274.4-792.73,275.95-792.84,277.48"/>
		<path class="st0" d="M-743.71,282.07c-0.33-0.03-0.64-0.04-0.93-0.04h-0.87h-0.87c-0.29,0-0.58,0.01-0.87,0.04
			c-0.22-0.67-0.44-1.35-0.68-2.05c-0.23-0.7-0.48-1.39-0.74-2.09c-0.44-0.01-0.88-0.02-1.31-0.03c-0.44-0.01-0.87-0.01-1.31-0.01
			c-0.36,0-0.71,0-1.07,0.01c-0.36,0.01-0.71,0.02-1.07,0.03c-0.27,0.7-0.53,1.39-0.76,2.09c-0.23,0.7-0.44,1.38-0.64,2.05
			c-0.16-0.03-0.32-0.04-0.48-0.04h-0.48h-0.49c-0.16,0-0.34,0.01-0.53,0.04c0.16-0.35,0.38-0.85,0.66-1.48
			c0.27-0.63,0.57-1.34,0.9-2.13c0.33-0.79,0.68-1.64,1.06-2.55c0.38-0.91,0.75-1.83,1.13-2.76c0.38-0.93,0.75-1.84,1.11-2.75
			c0.36-0.9,0.69-1.74,0.99-2.52c0.14,0.03,0.27,0.05,0.39,0.07c0.12,0.02,0.25,0.03,0.39,0.03c0.14,0,0.27-0.01,0.39-0.03
			c0.12-0.02,0.25-0.04,0.39-0.07c0.44,1.16,0.9,2.4,1.4,3.73c0.5,1.33,1,2.63,1.51,3.9c0.51,1.28,1,2.49,1.47,3.64
			C-744.54,280.31-744.11,281.28-743.71,282.07 M-750.97,271.84c-0.36,0.82-0.69,1.63-1,2.43c-0.31,0.8-0.62,1.62-0.92,2.45h3.75
			c-0.3-0.83-0.6-1.65-0.89-2.45C-750.33,273.47-750.64,272.66-750.97,271.84"/>
		<path class="st0" d="M-718.01,275.61c-0.34-0.63-0.73-1.34-1.17-2.12c-0.44-0.79-0.86-1.54-1.27-2.28
			c-0.41-0.73-0.78-1.39-1.11-1.98c-0.33-0.59-0.56-1-0.7-1.25c0.33,0.03,0.64,0.05,0.94,0.07c0.3,0.02,0.61,0.03,0.92,0.03
			c0.31,0,0.62-0.01,0.91-0.03c0.29-0.02,0.6-0.05,0.91-0.07c0.41,0.83,0.83,1.66,1.25,2.5c0.42,0.83,0.85,1.67,1.29,2.5
			c0.52-0.83,1.03-1.67,1.53-2.5c0.5-0.83,0.99-1.67,1.47-2.5c0.19,0.03,0.37,0.05,0.53,0.07c0.16,0.02,0.33,0.03,0.51,0.03
			c0.16,0,0.33-0.01,0.5-0.03c0.17-0.02,0.35-0.05,0.54-0.07c-0.23,0.3-0.52,0.7-0.87,1.19c-0.35,0.49-0.72,1.02-1.12,1.6
			c-0.4,0.57-0.8,1.16-1.2,1.76c-0.4,0.6-0.78,1.15-1.14,1.66c0.34,0.66,0.72,1.37,1.13,2.13c0.41,0.77,0.82,1.51,1.22,2.23
			c0.4,0.73,0.78,1.4,1.13,2.03c0.35,0.63,0.63,1.12,0.83,1.47c-0.31-0.03-0.62-0.04-0.91-0.04h-0.89h-0.89
			c-0.29,0-0.59,0.01-0.89,0.04c-0.44-0.83-0.88-1.69-1.31-2.56c-0.44-0.88-0.9-1.75-1.37-2.62c-0.56,0.87-1.1,1.74-1.62,2.61
			c-0.52,0.87-1.02,1.73-1.5,2.57c-0.32-0.03-0.65-0.04-1.01-0.04h-0.5c-0.17,0-0.35,0.01-0.54,0.04c0.26-0.33,0.57-0.75,0.92-1.28
			c0.36-0.53,0.73-1.08,1.13-1.67c0.4-0.59,0.8-1.18,1.2-1.79C-718.75,276.72-718.37,276.14-718.01,275.61"/>
		<path class="st0" d="M-688.31,270.64c-0.03-0.88-0.07-1.77-0.12-2.65c0.62,0.01,1.22,0.03,1.82,0.06c0.6,0.03,1.21,0.04,1.82,0.04
			c1.01,0,1.91-0.01,2.7-0.03c0.79-0.02,1.31-0.05,1.59-0.07c-0.05,0.22-0.08,0.5-0.08,0.86c0,0.22,0.01,0.39,0.02,0.51
			c0.01,0.12,0.03,0.26,0.06,0.41c-0.4-0.03-0.83-0.06-1.3-0.08c-0.47-0.03-0.93-0.05-1.37-0.08c-0.44-0.03-0.84-0.05-1.2-0.06
			c-0.36-0.01-0.61-0.02-0.76-0.02c-0.05,0.75-0.09,1.5-0.09,2.23c-0.01,0.74-0.01,1.48-0.01,2.23c0.89-0.01,1.69-0.03,2.41-0.06
			c0.72-0.03,1.47-0.06,2.24-0.1c-0.04,0.23-0.07,0.41-0.08,0.53c-0.01,0.12-0.02,0.25-0.02,0.39c0,0.11,0.01,0.22,0.03,0.34
			c0.02,0.12,0.04,0.28,0.07,0.5c-1.56-0.12-3.11-0.18-4.65-0.18v1.05c0,1.13,0.01,2.14,0.04,3.02c0.03,0.88,0.07,1.75,0.12,2.59
			c-0.23-0.03-0.49-0.04-0.76-0.04h-0.92h-0.92c-0.27,0-0.53,0.01-0.76,0.04c0.06-0.85,0.1-1.71,0.12-2.59
			c0.03-0.88,0.04-1.89,0.04-3.02v-2.79C-688.27,272.53-688.29,271.52-688.31,270.64"/>
		<path class="st0" d="M-651.09,282.34c-0.88,0-1.69-0.09-2.45-0.28c-0.76-0.18-1.42-0.49-1.98-0.92c-0.56-0.43-1-0.98-1.32-1.66
			c-0.32-0.68-0.48-1.5-0.48-2.47c0-0.55,0-1.04,0.01-1.47c0.01-0.43,0.01-0.83,0.01-1.2c0-0.37,0-0.72,0.01-1.07
			c0.01-0.34,0.01-0.7,0.01-1.07c0-1.11-0.01-2-0.02-2.69c-0.01-0.68-0.04-1.2-0.06-1.54c0.27,0.03,0.55,0.05,0.84,0.07
			c0.29,0.02,0.57,0.03,0.84,0.03c0.27,0,0.55-0.01,0.84-0.03c0.29-0.02,0.57-0.05,0.84-0.07c-0.14,1.32-0.22,2.56-0.25,3.7
			c-0.03,1.14-0.04,2.3-0.04,3.47c0,1.24,0.09,2.25,0.27,3.01c0.18,0.77,0.44,1.36,0.79,1.77c0.35,0.42,0.77,0.69,1.28,0.83
			c0.51,0.14,1.09,0.2,1.76,0.2c0.82,0,1.46-0.2,1.93-0.61c0.46-0.41,0.82-0.96,1.06-1.64c0.24-0.68,0.39-1.47,0.44-2.35
			c0.06-0.88,0.08-1.8,0.08-2.76c0-0.94-0.01-1.88-0.04-2.82c-0.03-0.94-0.07-1.87-0.12-2.82c0.19,0.03,0.38,0.05,0.55,0.07
			c0.18,0.02,0.34,0.03,0.49,0.03c0.18,0,0.35-0.01,0.51-0.03c0.16-0.02,0.33-0.05,0.51-0.07c-0.03,0.3-0.05,0.7-0.08,1.21
			c-0.03,0.51-0.06,1.09-0.08,1.75c-0.03,0.66-0.05,1.39-0.07,2.19c-0.02,0.8-0.03,1.64-0.03,2.53c0,2.38-0.51,4.08-1.54,5.11
			C-647.61,281.82-649.11,282.34-651.09,282.34"/>
		<path class="st0" d="M-618.5,270.24c-0.01-0.33-0.02-0.57-0.05-0.72c-0.21,0-0.46,0.01-0.76,0.02c-0.3,0.01-0.62,0.03-0.96,0.05
			c-0.34,0.02-0.69,0.05-1.05,0.08c-0.36,0.03-0.68,0.07-0.98,0.11c0.03-0.15,0.05-0.3,0.07-0.45c0.02-0.15,0.03-0.3,0.03-0.45
			c0-0.15-0.01-0.3-0.03-0.45s-0.04-0.3-0.07-0.45c0.46,0.01,0.88,0.03,1.26,0.04c0.38,0.01,0.76,0.03,1.15,0.03
			c0.39,0.01,0.81,0.01,1.27,0.02c0.46,0.01,1.01,0.01,1.65,0.01c0.64,0,1.19,0,1.65-0.01c0.46-0.01,0.88-0.01,1.26-0.02
			c0.38-0.01,0.75-0.02,1.12-0.03c0.36-0.01,0.75-0.03,1.18-0.04c-0.03,0.15-0.05,0.3-0.07,0.45c-0.02,0.15-0.03,0.3-0.03,0.45
			c0,0.15,0.01,0.3,0.03,0.45c0.02,0.15,0.04,0.3,0.07,0.45c-0.27-0.04-0.58-0.08-0.92-0.11c-0.34-0.03-0.68-0.06-1.01-0.08
			c-0.33-0.02-0.65-0.04-0.95-0.05c-0.3-0.01-0.55-0.02-0.76-0.02c-0.01,0.07-0.02,0.16-0.03,0.29c-0.01,0.12-0.01,0.27-0.01,0.43
			v1.09v5.12c0,1.13,0.01,2.14,0.04,3.02c0.03,0.88,0.07,1.75,0.12,2.59c-0.23-0.03-0.49-0.04-0.76-0.04h-0.92h-0.92
			c-0.27,0-0.53,0.01-0.76,0.04c0.06-0.85,0.1-1.71,0.12-2.59c0.03-0.88,0.04-1.89,0.04-3.02v-5.12
			C-618.49,270.93-618.49,270.57-618.5,270.24"/>
		<path class="st0" d="M-582.77,282.34c-0.88,0-1.69-0.09-2.45-0.28c-0.76-0.18-1.42-0.49-1.98-0.92c-0.56-0.43-1-0.98-1.32-1.66
			c-0.32-0.68-0.48-1.5-0.48-2.47c0-0.55,0-1.04,0.01-1.47c0.01-0.43,0.01-0.83,0.01-1.2c0-0.37,0-0.72,0.01-1.07
			c0.01-0.34,0.01-0.7,0.01-1.07c0-1.11-0.01-2-0.02-2.69c-0.01-0.68-0.04-1.2-0.06-1.54c0.27,0.03,0.55,0.05,0.84,0.07
			c0.29,0.02,0.57,0.03,0.84,0.03c0.27,0,0.55-0.01,0.84-0.03c0.29-0.02,0.57-0.05,0.84-0.07c-0.14,1.32-0.22,2.56-0.25,3.7
			c-0.03,1.14-0.04,2.3-0.04,3.47c0,1.24,0.09,2.25,0.27,3.01c0.18,0.77,0.44,1.36,0.79,1.77c0.35,0.42,0.77,0.69,1.28,0.83
			c0.51,0.14,1.09,0.2,1.76,0.2c0.82,0,1.46-0.2,1.93-0.61c0.46-0.41,0.82-0.96,1.06-1.64c0.24-0.68,0.39-1.47,0.44-2.35
			c0.06-0.88,0.08-1.8,0.08-2.76c0-0.94-0.01-1.88-0.04-2.82c-0.03-0.94-0.07-1.87-0.12-2.82c0.19,0.03,0.38,0.05,0.55,0.07
			c0.18,0.02,0.34,0.03,0.49,0.03c0.18,0,0.35-0.01,0.51-0.03c0.16-0.02,0.33-0.05,0.51-0.07c-0.03,0.3-0.05,0.7-0.08,1.21
			c-0.03,0.51-0.06,1.09-0.08,1.75c-0.03,0.66-0.05,1.39-0.07,2.19c-0.02,0.8-0.03,1.64-0.03,2.53c0,2.38-0.51,4.08-1.54,5.11
			C-579.28,281.82-580.78,282.34-582.77,282.34"/>
		<path class="st0" d="M-549.54,275.61v0.84c0,1.13,0.01,2.14,0.04,3.02c0.03,0.88,0.07,1.75,0.12,2.59
			c-0.23-0.03-0.49-0.04-0.76-0.04h-0.92h-0.92c-0.27,0-0.53,0.01-0.76,0.04c0.05-0.85,0.09-1.71,0.12-2.59
			c0.03-0.88,0.04-1.89,0.04-3.02v-2.79c0-1.13-0.01-2.14-0.04-3.02c-0.03-0.88-0.07-1.77-0.12-2.65c0.23,0.03,0.48,0.05,0.76,0.07
			c0.27,0.02,0.58,0.03,0.92,0.03c0.37,0,0.79-0.02,1.26-0.05c0.47-0.03,1.06-0.05,1.75-0.05c0.52,0,0.96,0.01,1.33,0.04
			c0.37,0.03,0.69,0.07,0.95,0.12c0.27,0.06,0.5,0.13,0.7,0.21c0.2,0.09,0.38,0.2,0.56,0.32c0.41,0.3,0.73,0.67,0.97,1.12
			c0.24,0.44,0.36,0.97,0.36,1.59c0,1-0.27,1.81-0.82,2.44s-1.33,1.07-2.36,1.33c0.66,1.16,1.36,2.32,2.11,3.47
			c0.75,1.16,1.5,2.3,2.25,3.43c-0.31-0.03-0.62-0.04-0.92-0.04h-0.92h-0.93c-0.31,0-0.62,0.01-0.93,0.04l-3.67-6.46H-549.54z
			 M-546.3,271.84c0-0.6-0.06-1.08-0.19-1.43c-0.12-0.36-0.31-0.63-0.56-0.81c-0.25-0.18-0.58-0.3-0.98-0.36
			c-0.4-0.05-0.88-0.08-1.45-0.08c-0.04,1.86-0.06,3.72-0.06,5.57c0.08,0.01,0.16,0.02,0.23,0.03c0.08,0.01,0.15,0.01,0.21,0.01
			c0.9,0,1.59-0.24,2.07-0.73C-546.54,273.56-546.3,272.83-546.3,271.84"/>
		<path class="st0" d="M-519.78,270.64c-0.03-0.88-0.07-1.77-0.12-2.65c0.62,0.01,1.22,0.03,1.82,0.06c0.6,0.03,1.21,0.04,1.82,0.04
			c1.01,0,1.91-0.01,2.7-0.03c0.78-0.02,1.31-0.05,1.59-0.07c-0.05,0.22-0.08,0.5-0.08,0.86c0,0.22,0.01,0.39,0.02,0.51
			c0.01,0.12,0.03,0.26,0.06,0.41c-0.4-0.03-0.83-0.06-1.3-0.08c-0.47-0.03-0.93-0.05-1.37-0.08c-0.44-0.03-0.84-0.05-1.2-0.06
			c-0.36-0.01-0.61-0.02-0.76-0.02c-0.05,0.75-0.09,1.5-0.09,2.23c-0.01,0.74-0.01,1.48-0.01,2.23c0.89-0.01,1.69-0.03,2.41-0.06
			c0.72-0.03,1.47-0.06,2.24-0.1c-0.04,0.23-0.07,0.41-0.08,0.53c-0.01,0.12-0.02,0.25-0.02,0.39c0,0.11,0.01,0.22,0.03,0.34
			c0.02,0.12,0.04,0.28,0.07,0.5c-1.56-0.12-3.11-0.18-4.65-0.18c0,0.44,0,0.87-0.01,1.31c-0.01,0.44-0.01,0.88-0.01,1.31
			c0,0.89,0.02,1.74,0.06,2.56c0.78,0,1.56-0.02,2.34-0.06c0.78-0.04,1.57-0.11,2.36-0.21c-0.03,0.15-0.05,0.29-0.06,0.41
			c-0.01,0.12-0.02,0.29-0.02,0.51c0,0.22,0.01,0.39,0.02,0.51c0.01,0.12,0.03,0.23,0.06,0.31c-0.37-0.01-0.82-0.02-1.36-0.03
			c-0.54-0.01-1.28-0.01-2.22-0.01h-2.03h-1.22c-0.31,0-0.54,0-0.7,0.01c-0.16,0.01-0.29,0.02-0.4,0.03
			c0.06-0.85,0.1-1.71,0.12-2.59c0.03-0.88,0.04-1.89,0.04-3.02v-2.79C-519.74,272.53-519.76,271.52-519.78,270.64"/>
		<path class="st0" d="M-1027.51,306.63l-0.01-3.19l1.55-0.01c0.31-1.22,0.74-2.39,1.31-3.51c1.84-3.64,4.94-6.46,10.7-9.71
			c3.4-1.92,5.63-2.82,8.22-3.86c1.28-0.51,2.59-1.04,4.22-1.76c7.92-3.48,14.18-6.23,18.77-11.42c1.13-1.27,2.09-2.62,2.94-4.11
			c2.93-5.14,3.21-12.41,3.21-12.49c0.21-6.29,0.5-41.07,0-89.8l3.19-0.03c0.5,48.78,0.21,83.62,0,89.93
			c-0.01,0.33-0.3,8.13-3.63,13.96c-0.95,1.66-2.06,3.22-3.32,4.64c-5.05,5.71-11.92,8.73-19.88,12.22c-1.67,0.74-3.08,1.3-4.32,1.8
			c-2.58,1.04-4.62,1.86-7.83,3.68c-5.23,2.96-7.87,5.31-9.42,8.38c-0.62,1.23-1.06,2.55-1.29,3.92l-0.22,1.32L-1027.51,306.63z"/>
		<path class="st0" d="M-1027.38,306.63l-4.26-0.02l-0.22-1.32c-0.23-1.37-0.67-2.69-1.29-3.92c-1.55-3.07-4.19-5.42-9.42-8.38
			c-3.22-1.82-5.25-2.64-7.83-3.68c-1.24-0.5-2.64-1.06-4.32-1.8c-7.95-3.5-14.82-6.52-19.87-12.22c-1.26-1.42-2.37-2.98-3.32-4.64
			c-3.33-5.83-3.62-13.63-3.63-13.96c-0.21-6.32-0.5-41.18,0-89.93l3.19,0.03c-0.5,48.7-0.21,83.5,0,89.8
			c0,0.07,0.28,7.35,3.21,12.49c0.85,1.49,1.81,2.83,2.94,4.11c4.59,5.18,10.85,7.93,18.77,11.42c1.63,0.72,2.95,1.25,4.22,1.76
			c2.58,1.04,4.82,1.93,8.22,3.86c5.76,3.26,8.86,6.07,10.7,9.71c0.56,1.12,1,2.29,1.31,3.51l1.63,0.01L-1027.38,306.63z"/>
		<path class="st0" d="M-1054.05,285.56h-3.19V140l2.71,2.66c4.6,4.51,9.62,9.45,14.63,14.39c5.02,4.94,10.04,9.87,14.63,14.39
			l-2.24,2.28c-4.6-4.51-9.62-9.45-14.63-14.39c-4.05-3.98-8.09-7.96-11.92-11.72V285.56z"/>
		<path class="st0" d="M-997.74,285.56h-3.19V147.6c-3.87,3.8-7.97,7.83-12.06,11.86c-4.97,4.89-9.94,9.78-14.5,14.25l-2.23-2.28
			c4.55-4.47,9.52-9.36,14.49-14.25c5.07-4.98,10.13-9.97,14.77-14.52l2.71-2.66V285.56z"/>
		<path class="st0" d="M-1027.32,273.91c-0.16,0-0.25,0-0.27,0l0.11-3.19c0.04,0,3.55,0.1,6.78-1.46c6.36-3.07,9.07-7.58,9.07-15.09
			c0-11.66-9.76-20.93-23.27-33.75c-3.31-3.14-6.73-6.39-10.33-9.97c-10.73-10.68-23.37-24-35.75-41.83l2.62-1.82
			c12.24,17.62,24.75,30.81,35.38,41.38c3.57,3.55,6.98,6.79,10.27,9.92c14.09,13.37,24.27,23.03,24.27,36.07
			c0,8.68-3.46,14.38-10.88,17.96C-1022.75,273.79-1026.32,273.91-1027.32,273.91"/>
		<path class="st0" d="M-1027.64,273.91c-1.01,0-4.59-0.13-8.02-1.78c-7.42-3.58-10.88-9.29-10.88-17.96
			c0-13.03,10.18-22.7,24.27-36.07c3.29-3.13,6.7-6.36,10.27-9.91c10.63-10.58,23.15-23.77,35.38-41.38l2.62,1.82
			c-12.38,17.83-25.02,31.15-35.75,41.83c-3.6,3.58-7.02,6.83-10.33,9.97c-13.51,12.83-23.27,22.09-23.27,33.76
			c0,7.51,2.71,12.02,9.07,15.09c3.22,1.55,6.76,1.46,6.8,1.46l0.11,3.19C-1027.39,273.91-1027.49,273.91-1027.64,273.91"/>
		<path class="st0" d="M-1055.59,304.4c-0.09,0.78-0.8,1.33-1.58,1.22c-7.18-1.08-22.15-4.92-33.69-18.55
			c-10.09-11.92-12.26-25.09-12.65-31.89l0-66.45h3.19v66.36c0.37,6.3,2.41,18.71,11.9,29.92c10.85,12.82,24.94,16.43,31.7,17.45
			c0.75,0.11,1.27,0.79,1.18,1.54L-1055.59,304.4z"/>
		<polygon class="st0" points="-1103.01,208.21 -1116.21,196.88 -1116.21,192.7 -1103.01,204.03 		"/>
		<polygon class="st0" points="-1101.15,208.18 -1094.52,202.5 -1094.52,198.32 -1101.15,204 		"/>
		<polygon class="st0" points="-1101.17,219.53 -1087.97,208.19 -1087.97,204.01 -1101.17,215.35 		"/>
		<polygon class="st0" points="-1102.98,219.54 -1109.61,213.86 -1109.61,209.68 -1102.98,215.36 		"/>
		<polygon class="st0" points="-1101.17,242.25 -1087.97,230.92 -1087.97,226.74 -1101.17,238.07 		"/>
		<polygon class="st0" points="-1102.98,242.27 -1109.61,236.58 -1109.61,232.4 -1102.98,238.09 		"/>
		<polygon class="st0" points="-1102.97,230.93 -1116.18,219.6 -1116.18,215.42 -1102.97,226.75 		"/>
		<polygon class="st0" points="-1101.15,230.91 -1094.52,225.22 -1094.52,221.04 -1101.15,226.73 		"/>
		<polygon class="st0" points="-1102.97,253.65 -1116.18,242.32 -1116.18,238.14 -1102.97,249.47 		"/>
		<polygon class="st0" points="-1101.15,253.63 -1094.52,247.94 -1094.52,243.76 -1101.15,249.45 		"/>
		<polygon class="st0" points="-1101.14,196.93 -1094.52,191.24 -1094.52,187.06 -1101.14,192.75 		"/>
		<polygon class="st0" points="-1102.98,196.93 -1109.6,191.24 -1109.6,187.06 -1102.98,192.75 		"/>
		<path class="st0" d="M-999.39,304.4c0.09,0.78,0.8,1.33,1.58,1.22c7.18-1.08,22.15-4.92,33.69-18.55
			c10.09-11.92,12.26-25.09,12.65-31.89l0-66.45h-3.19v66.36c-0.37,6.3-2.41,18.71-11.9,29.92c-10.85,12.82-24.94,16.43-31.7,17.45
			c-0.75,0.11-1.27,0.79-1.18,1.54L-999.39,304.4z"/>
		<polygon class="st0" points="-951.97,208.21 -938.77,196.88 -938.77,192.7 -951.97,204.03 		"/>
		<polygon class="st0" points="-953.83,208.18 -960.46,202.5 -960.46,198.32 -953.83,204 		"/>
		<polygon class="st0" points="-953.81,219.53 -967.01,208.19 -967.01,204.01 -953.81,215.35 		"/>
		<polygon class="st0" points="-952,219.54 -945.37,213.86 -945.37,209.68 -952,215.36 		"/>
		<polygon class="st0" points="-953.81,242.25 -967.01,230.92 -967.01,226.74 -953.81,238.07 		"/>
		<polygon class="st0" points="-952,242.27 -945.37,236.58 -945.37,232.4 -952,238.09 		"/>
		<polygon class="st0" points="-952.01,230.93 -938.8,219.6 -938.8,215.42 -952.01,226.75 		"/>
		<polygon class="st0" points="-953.83,230.91 -960.46,225.22 -960.46,221.04 -953.83,226.73 		"/>
		<polygon class="st0" points="-952.01,253.65 -938.8,242.32 -938.8,238.14 -952.01,249.47 		"/>
		<polygon class="st0" points="-953.83,253.63 -960.46,247.94 -960.46,243.76 -953.83,249.45 		"/>
		<polygon class="st0" points="-953.84,196.93 -960.46,191.24 -960.46,187.06 -953.84,192.75 		"/>
		<polygon class="st0" points="-952,196.93 -945.38,191.24 -945.38,187.06 -952,192.75 		"/>
	</g>
</g>
<g>
	<g>
		<g>
			<path class="st1" d="M-157.06,278.84h7.68c0-2.83-0.05-5.08-0.16-6.75l4.19,1.36c0.58,0.18,0.87,0.41,0.87,0.68
				c0,0.27-0.2,0.52-0.6,0.73l-0.98,0.49v3.49h7.68l1.69-2.51l3.27,2.18c0.29,0.18,0.44,0.39,0.44,0.63c0,0.24-0.15,0.46-0.44,0.68
				l-1.2,0.98v2.61c0,0.87,0.05,1.93,0.16,3.16c0.11,1.23,0.16,1.96,0.16,2.18c0,0.65-0.48,1.23-1.44,1.74
				c-0.96,0.51-1.6,0.76-1.91,0.76c-0.31,0-0.46-0.25-0.46-0.76v-2.07h-30.88c-0.04,6.86-0.82,12.05-2.34,15.55
				c-1.53,3.51-3.92,6.71-7.19,9.61l-0.82-0.55c2.32-2.9,4.04-5.99,5.15-9.26c1.11-3.27,1.66-7.53,1.66-12.8v-18.3
				c0-1.82-0.07-3.7-0.22-5.67l4.25,3.16h31.32l3.38-3.87l3.59,4.14c0.4,0.51,0.6,0.89,0.6,1.14c0,0.25-0.31,0.38-0.93,0.38h-38.45
				v6.86h8.66c0-2.83-0.05-5.07-0.16-6.7l4.14,1.36c0.58,0.18,0.87,0.41,0.87,0.68c0,0.27-0.2,0.52-0.6,0.74l-0.98,0.49V278.84z
				 M-160.32,280.47h-8.66v6.32h8.66V280.47z M-160.54,297.79V307l8.99-4.41l0.55,0.87l-7.95,6.1c-1.13,0.83-2.27,1.87-3.43,3.1
				c-0.33,0.36-0.65,0.55-0.98,0.55c-0.33,0-0.6-0.22-0.82-0.65l-1.63-3.32c0.91-0.25,1.47-0.57,1.69-0.95
				c0.22-0.38,0.33-1.15,0.33-2.32V294.2c0-1.82-0.07-3.68-0.22-5.61l4.3,1.8c0.51,0.18,0.76,0.36,0.76,0.55
				c0,0.18-0.22,0.38-0.65,0.6l-0.93,0.49v4.25h4.36l2.18-2.67l2.5,3.1c0.25,0.29,0.38,0.55,0.38,0.76c0,0.22-0.22,0.33-0.65,0.33
				H-160.54z M-149.38,280.47h-7.68v6.32h7.68V280.47z M-156.18,262.33c4.61,1.13,6.92,2.53,6.92,4.2c0,0.76-0.29,1.45-0.87,2.07
				c-0.58,0.62-1.14,0.93-1.69,0.93c-0.55,0-0.99-0.16-1.34-0.46c-0.34-0.31-0.6-0.93-0.76-1.85c-0.16-0.93-0.46-1.71-0.9-2.34
				c-0.44-0.64-1.02-1.21-1.74-1.72L-156.18,262.33z M-146.71,301.66v5.99c0,0.65,0.36,1.05,1.09,1.2c0.73,0.14,2.34,0.22,4.85,0.22
				c2.51,0,4-0.1,4.49-0.3c0.49-0.2,0.88-0.81,1.17-1.82c0.29-1.02,0.63-2.98,1.04-5.88h0.82c0.14,2.07,0.31,3.57,0.49,4.49
				c0.18,0.93,0.4,1.57,0.65,1.93c0.25,0.36,0.64,0.65,1.14,0.87c0.51,0.22,0.76,0.48,0.76,0.79c0,0.31-0.38,0.86-1.14,1.66
				c-0.76,0.8-1.83,1.29-3.21,1.47c-1.38,0.18-3.7,0.27-6.97,0.27c-3.27,0-5.37-0.13-6.32-0.38c-0.95-0.25-1.56-0.69-1.85-1.31
				c-0.29-0.62-0.44-1.53-0.44-2.72v-10.95c0-2.8-0.07-5.67-0.22-8.61l4.68,1.8c0.47,0.18,0.71,0.39,0.71,0.63
				c0,0.24-0.24,0.48-0.71,0.73l-1.04,0.49v8.33c4.61-2.76,8.32-5.34,11.11-7.73l2.5,3c0.36,0.44,0.54,0.79,0.54,1.06
				s-0.36,0.43-1.09,0.46c-0.73,0.04-1.51,0.18-2.34,0.44L-146.71,301.66z M-138.1,280.47h-7.95v6.32h7.95V280.47z"/>
			<path class="st1" d="M-50.03,308.47v2.18c0,0.94-0.58,1.65-1.74,2.12c-1.16,0.47-1.89,0.71-2.18,0.71c-0.29,0-0.44-0.2-0.44-0.6
				c0-0.4,0.02-0.83,0.06-1.31c0.29-2.98,0.44-5.72,0.44-8.22v-7.24c-4.9,2.72-9.75,4.88-14.54,6.48l-0.44-1.03
				c5.45-2.43,10.42-5.16,14.92-8.17l-0.22-2.23l2.23,0.82c4.39-2.98,8.02-5.88,10.87-8.71c2.85-2.83,5.6-6.35,8.25-10.57h-16.77
				c-1.16,1.71-2.2,3.16-3.11,4.36c5.41,1.82,8.11,3.81,8.11,5.99c0,0.62-0.21,1.27-0.63,1.96c-0.42,0.69-0.93,1.03-1.53,1.03
				c-0.6,0-1.02-0.13-1.25-0.41c-0.24-0.27-0.47-0.75-0.71-1.44c-0.24-0.69-0.79-1.68-1.66-2.97c-0.87-1.29-1.83-2.44-2.89-3.46
				c-3.2,4.39-7.37,8.46-12.53,12.2l-0.65-0.65c3.7-3.45,7.08-7.54,10.13-12.26c3.05-4.72,5.39-9.46,7.03-14.21l4.52,2.72
				c0.44,0.26,0.65,0.48,0.65,0.68c0,0.2-0.26,0.35-0.79,0.46c-0.53,0.11-1.12,0.65-1.77,1.63l-1.85,2.83h16.07l2.56-2.67l4.68,3.32
				c0.33,0.22,0.49,0.46,0.49,0.73c0,0.27-0.28,0.43-0.84,0.46c-0.56,0.04-1.12,0.25-1.66,0.65c-0.54,0.4-1.36,1.22-2.45,2.45
				c-5.45,6.39-11.82,12-19.12,16.83h17.97l1.91-2.94l4.63,3.05c0.25,0.22,0.38,0.43,0.38,0.63c0,0.2-0.18,0.41-0.54,0.63
				l-1.52,1.09v7.19c0,1.38,0.06,2.8,0.16,4.25l0.16,3.27c0,0.69-0.54,1.29-1.63,1.8c-1.09,0.51-1.78,0.76-2.07,0.76
				c-0.29,0-0.44-0.24-0.44-0.71v-3.49H-50.03z M-50.03,307h20.26v-12.58h-20.26V307z"/>
			<path class="st1" d="M79.49,308.09H47.52v2.61c0,0.58-0.17,1.01-0.52,1.28c-0.35,0.27-0.87,0.56-1.58,0.87
				c-0.71,0.31-1.23,0.46-1.55,0.46c-0.65,0-0.89-0.6-0.71-1.8c0.36-3.45,0.55-7.39,0.55-11.82v-27.67c0-3.23-0.07-5.7-0.22-7.41
				l3.87,2.4h31.48l1.85-2.29l4.14,2.83c0.29,0.15,0.44,0.32,0.44,0.52c0,0.2-0.16,0.41-0.49,0.63l-1.47,1.03v29.08
				c0,2.47,0.07,4.72,0.22,6.75l0.33,4.63c0,0.44-0.55,0.98-1.63,1.63c-1.09,0.65-1.82,0.98-2.18,0.98s-0.54-0.25-0.54-0.76V308.09z
				 M47.52,306.56h31.97v-38.07H47.52V306.56z M60.97,298.77v-12.09h-5.12c-1.56,0-2.76,0.18-3.59,0.55l-1.91-2.29
				c1.34,0.18,2.81,0.27,4.41,0.27h6.21v-8.99h-7.08c-1.31,0-2.5,0.18-3.59,0.55l-1.85-2.23c1.42,0.15,2.89,0.22,4.41,0.22h18.63
				l2.83-3.43l3.21,3.76c0.29,0.36,0.44,0.65,0.44,0.84c0,0.2-0.25,0.3-0.76,0.3H64.46v8.99h4.74l2.78-3.21l2.99,3.6
				c0.33,0.36,0.49,0.64,0.49,0.82c0,0.18-0.29,0.27-0.87,0.27H64.46v12.09h7.79l2.99-3.54l3.27,3.87c0.25,0.36,0.38,0.64,0.38,0.84
				c0,0.2-0.25,0.3-0.76,0.3H53.45c-1.45,0-2.65,0.16-3.59,0.49l-1.91-2.23c1.42,0.18,2.87,0.27,4.36,0.27H60.97z M66.25,288.32
				c1.49,0.4,2.83,0.91,4.03,1.53c1.2,0.62,2,1.17,2.42,1.66c0.42,0.49,0.63,1.09,0.63,1.8c0,0.71-0.22,1.4-0.65,2.07
				c-0.44,0.67-0.93,1.01-1.47,1.01c-0.44,0-0.85-0.56-1.25-1.69c-0.69-1.93-2.03-3.85-4.03-5.77L66.25,288.32z"/>
			<path class="st1" d="M155.31,267.73h5.72l1.96-2.67l3.7,3.59c0.33,0.33,0.49,0.58,0.49,0.76c0,0.18-0.26,0.33-0.79,0.44
				c-0.53,0.11-1.02,0.41-1.47,0.9c-0.45,0.49-0.95,1.21-1.5,2.15l-5.17,8.82c2.4,2.11,4.18,4.14,5.37,6.1
				c1.18,1.96,1.77,4.11,1.77,6.43c0,2.32-1.02,4.22-3.05,5.69c-2.03,1.47-3.36,2.2-3.97,2.2c-0.26,0-0.44-0.27-0.55-0.82
				c-0.18-1.27-0.5-2.2-0.95-2.78c-0.45-0.58-1.15-1.03-2.1-1.36l0.05-0.65c1.34,0.33,2.47,0.49,3.38,0.49c2.4,0,3.6-1.27,3.6-3.81
				c0-1.52-0.46-3.33-1.39-5.42c-0.93-2.09-2.22-4.17-3.89-6.24l4.85-12.36h-7.19v30.72c0,3.52,0.04,6.08,0.11,7.68
				c0.07,1.6,0.11,2.47,0.11,2.61c0,0.76-0.55,1.43-1.63,2.02c-1.09,0.58-1.81,0.87-2.15,0.87c-0.34,0-0.52-0.42-0.52-1.25
				l0.27-5.88c0.11-2.51,0.16-4.94,0.16-7.3v-24.84c0-3.99-0.07-7.03-0.22-9.1L155.31,267.73z M175.68,289.73
				c0.36,0.22,0.55,0.45,0.55,0.71c0,0.25-0.23,0.45-0.68,0.57c-0.45,0.13-1.01,0.73-1.66,1.82c-4.1,7.52-8.28,13.13-12.53,16.83
				l-0.6-0.71c5.19-6.17,8.79-13.42,10.78-21.73L175.68,289.73z M182.27,282.81v22.99c0,1.96-0.15,3.31-0.44,4.06
				c-0.29,0.74-1.09,1.52-2.4,2.32c-1.31,0.8-2.17,1.2-2.59,1.2c-0.42,0-0.65-0.46-0.71-1.39c-0.05-0.92-0.44-1.67-1.14-2.23
				c-0.71-0.56-2.17-1.15-4.38-1.77l0.11-0.98c2.54,0.25,4.3,0.38,5.28,0.38c0.98,0,1.6-0.09,1.85-0.27
				c0.25-0.18,0.38-0.53,0.38-1.03v-23.26h-8.17c-1.49,0-2.72,0.2-3.71,0.6l-2.07-2.4c1.38,0.18,2.89,0.27,4.52,0.27h22.06
				l2.94-3.49l3.6,4.09c0.29,0.36,0.44,0.61,0.44,0.73c0,0.13-0.27,0.19-0.82,0.19H182.27z M173.5,268.44h13.29l3.05-3.7l3.65,4.25
				c0.25,0.33,0.38,0.58,0.38,0.76c0,0.18-0.27,0.27-0.82,0.27H174.7c-1.42,0-2.65,0.2-3.71,0.6l-2.01-2.5
				C170.32,268.33,171.83,268.44,173.5,268.44 M185.32,288.37c3.23,3.09,5.84,5.89,7.82,8.42c1.98,2.52,2.97,4.53,2.97,6.02
				c0,1.49-0.25,2.61-0.73,3.35c-0.49,0.74-1.15,1.12-1.99,1.12c-0.44,0-0.84-0.2-1.2-0.6c-0.36-0.4-0.6-0.91-0.71-1.52
				c-0.58-3.27-1.31-5.89-2.18-7.87c-0.87-1.98-2.47-4.73-4.79-8.25L185.32,288.37z"/>
			<path class="st1" d="M267.29,273.12h-2.61c-1.38,0-2.58,0.2-3.6,0.6l-1.96-2.4c1.34,0.22,2.83,0.33,4.47,0.33h3.7v-4.25
				c0-1.42-0.07-3.07-0.22-4.96l5.01,1.96c0.55,0.22,0.82,0.45,0.82,0.71c0,0.25-0.16,0.53-0.49,0.82l-1.31,1.03v4.68h1.47
				l2.29-2.78l2.83,3.38c0.22,0.26,0.33,0.46,0.33,0.63c0,0.16-0.25,0.25-0.76,0.25h-6.15v5.94h2.89c3.34-4.17,5.9-8.11,7.68-11.82
				l2.94,2.89c0.29,0.26,0.44,0.53,0.44,0.82c0,0.29-0.35,0.54-1.06,0.76c-0.71,0.22-1.3,0.69-1.77,1.42
				c-1.49,2.03-3.05,4.01-4.68,5.94h3.32l2.12-2.56l2.5,3.1c0.29,0.29,0.44,0.53,0.44,0.71c0,0.18-0.27,0.27-0.82,0.27h-8.93
				c-1.42,1.64-2.98,3.27-4.68,4.9h4.79l2.4-2.12l3.32,3.27c0.29,0.29,0.44,0.56,0.44,0.82c0,0.25-0.47,0.41-1.42,0.46
				c-0.94,0.05-1.87,0.34-2.78,0.84c-0.91,0.51-2.41,1.71-4.52,3.59l1.69,0.65c0.44,0.18,0.65,0.37,0.65,0.57s-0.16,0.43-0.49,0.68
				l-1.36,0.93v1.36l9.91-1.8l0.16,0.76l-10.08,2.78v7.84c0,1.56-0.13,2.63-0.38,3.21c-0.25,0.58-1.02,1.3-2.29,2.15
				c-1.27,0.85-2.03,1.28-2.29,1.28c-0.25,0-0.43-0.41-0.52-1.23c-0.09-0.82-0.61-1.51-1.55-2.1c-0.95-0.58-2.36-1.05-4.25-1.42
				l0.11-0.93c2.65,0.36,4.42,0.55,5.31,0.55c0.89,0,1.45-0.1,1.69-0.3c0.24-0.2,0.35-0.52,0.35-0.95v-7.08
				c-2.07,0.62-4.09,1.26-6.05,1.93c-1.96,0.67-3.1,1.1-3.4,1.28c-0.31,0.18-0.56,0.27-0.76,0.27c-0.2,0-0.43-0.22-0.68-0.65
				l-1.53-2.83l12.42-2.12c0-1.6-0.07-3.7-0.22-6.32l2.51,0.98l4.19-4.9h-6.92c-4.61,4.28-9.17,7.62-13.67,10.02l-0.44-0.93
				c4.03-2.83,7.7-5.86,11-9.1h-2.18c-1.49,0-2.69,0.18-3.6,0.54l-1.91-2.34c1.34,0.22,2.83,0.33,4.47,0.33h4.68
				c1.74-1.74,3.21-3.38,4.41-4.9h-11.6c-1.49,0-2.71,0.2-3.65,0.6l-1.96-2.45c1.34,0.22,2.83,0.33,4.47,0.33h7.3V273.12z
				 M287.17,283.85c-1.49,2.87-3.07,5.39-4.74,7.57l-0.93-0.55c2.29-3.85,4.33-8.47,6.13-13.86c1.8-5.39,2.97-10.32,3.51-14.79
				l4.57,2.18c0.4,0.18,0.6,0.41,0.6,0.68c0,0.27-0.19,0.45-0.57,0.55c-0.38,0.09-0.66,0.34-0.84,0.74l-4.25,10.02h8.93l3.11-3.71
				l3.65,4.36c0.18,0.22,0.27,0.4,0.27,0.55c0,0.15-0.22,0.22-0.65,0.22h-5.83c-0.62,9.15-2.38,16.18-5.28,21.08
				c3.05,4.14,7.12,7.08,12.2,8.83l-0.22,0.6c-1.67,0.11-2.81,0.35-3.4,0.73c-0.6,0.38-1.03,1.06-1.28,2.04
				c-0.04,0.25-0.13,0.38-0.27,0.38c-0.4,0-1.77-1.19-4.11-3.57c-2.34-2.38-4.02-4.33-5.04-5.85c-3.67,4.76-9.59,8.26-17.76,10.51
				l-0.33-0.87c7.44-2.65,12.91-6.81,16.39-12.47C288.71,295.14,287.42,290.02,287.17,283.85 M290.05,277.8
				c-0.36,0.87-0.87,2-1.52,3.38c0.62,5.63,2.05,10.49,4.3,14.6c2.18-4.61,3.45-10.6,3.81-17.98H290.05z"/>
			<path class="st1" d="M384.83,271.6h-13.83c-1.49,0-2.71,0.2-3.65,0.6l-1.96-2.4c1.34,0.18,2.81,0.27,4.41,0.27h37.09l3.54-3.81
				l4.14,4.41c0.29,0.29,0.44,0.52,0.44,0.68s-0.25,0.25-0.76,0.25h-27.4l2.29,1.31c0.51,0.29,0.76,0.52,0.76,0.68
				c0,0.17-0.28,0.3-0.84,0.41c-0.56,0.11-1.23,0.33-2.01,0.65c-0.78,0.33-3.84,2.01-9.18,5.06l23.69-0.71
				c-1.89-1.49-4.52-3.11-7.9-4.85l0.44-0.76c4.83,1.56,8.21,2.76,10.16,3.59c1.94,0.84,3.21,1.6,3.79,2.29
				c0.58,0.69,0.87,1.5,0.87,2.42c0,0.92-0.16,1.64-0.49,2.15c-0.33,0.51-0.72,0.76-1.17,0.76c-0.45,0-1.03-0.5-1.72-1.5
				c-0.69-1-1.51-1.93-2.45-2.81l-17.92,1.47c-6.03,0.47-9.51,0.92-10.46,1.36c-0.36,0.15-0.67,0.22-0.93,0.22
				c-0.26,0-0.44-0.16-0.55-0.49l-1.2-3.32c1.38,0.04,2.67-0.2,3.87-0.71c1.2-0.51,2.73-1.48,4.6-2.91
				C382.37,274.49,383.81,273.05,384.83,271.6 M399.59,301.44h-19.93v9.69c0,0.69-0.55,1.22-1.63,1.58
				c-1.09,0.36-1.72,0.54-1.88,0.54c-0.16,0-0.29-0.08-0.38-0.25c-0.09-0.16-0.12-0.54-0.08-1.12c0.18-1.85,0.27-4.63,0.27-8.33
				v-13.83c0-1.85-0.07-3.74-0.22-5.67l3.98,2.07h19.34l2.12-2.34l3.49,2.61c0.25,0.25,0.38,0.46,0.38,0.63
				c0,0.16-0.13,0.32-0.38,0.46l-1.2,0.65v19.77c0,1.16-0.21,2.08-0.62,2.75c-0.42,0.67-1.38,1.41-2.89,2.21
				c-1.51,0.8-2.42,1.2-2.72,1.2c-0.31,0-0.5-0.2-0.57-0.6c-0.25-1.52-0.88-2.6-1.88-3.21c-1-0.62-2.44-1.16-4.33-1.64l0.22-0.98
				c3.09,0.73,5.16,1.09,6.21,1.09c1.05,0,1.77-0.15,2.15-0.44c0.38-0.29,0.57-0.89,0.57-1.8V301.44z M379.65,292.95h19.93v-5.34
				h-19.93V292.95z M399.59,294.47h-19.93v5.5h19.93V294.47z M386.4,262.72c2.4,0.44,4.1,0.93,5.12,1.47
				c1.02,0.55,1.52,1.37,1.52,2.48c0,1.11-0.27,1.89-0.82,2.34c-0.54,0.45-1.09,0.68-1.63,0.68c-0.8,0-1.38-0.58-1.74-1.74
				c-0.58-1.96-1.52-3.47-2.83-4.52L386.4,262.72z"/>
			<path class="st1" d="M-67.27,366.44c-0.15,2.03-0.29,4.07-0.44,6.1c-0.22-0.04-0.44-0.05-0.65-0.05h-0.63h-0.64
				c-0.21,0-0.42,0.02-0.64,0.05c0.58-3.12,1.1-6.23,1.55-9.31c0.45-3.09,0.87-6.22,1.25-9.39c0.2,0.04,0.39,0.07,0.56,0.09
				c0.17,0.03,0.36,0.04,0.56,0.04c0.16,0,0.34-0.01,0.52-0.04c0.18-0.03,0.37-0.06,0.57-0.09c0.49,1.09,1,2.2,1.54,3.32
				c0.54,1.13,1.07,2.25,1.61,3.36c0.53,1.12,1.07,2.21,1.61,3.28c0.54,1.07,1.05,2.09,1.54,3.05c1.09-2.03,2.17-4.16,3.25-6.39
				c1.08-2.22,2.11-4.43,3.09-6.63c0.45,0.09,0.84,0.13,1.17,0.13c0.31,0,0.69-0.04,1.14-0.13c0.18,1.56,0.38,3.24,0.58,5.04
				c0.21,1.8,0.41,3.55,0.61,5.27c0.2,1.72,0.4,3.32,0.6,4.8c0.2,1.49,0.38,2.69,0.55,3.6c-0.36-0.04-0.73-0.05-1.1-0.05h-1.1h-1.12
				c-0.38,0-0.76,0.02-1.14,0.05c-0.09-1.87-0.24-3.89-0.45-6.07c-0.21-2.18-0.42-4.34-0.64-6.48h-0.06
				c-1.03,2.14-2.05,4.25-3.05,6.32c-1,2.07-1.99,4.15-2.97,6.24c-0.09-0.02-0.18-0.03-0.26-0.04c-0.08-0.01-0.17-0.01-0.26-0.01
				c-0.09,0-0.18,0-0.26,0.01c-0.08,0.01-0.17,0.02-0.26,0.04c-0.98-2.03-1.96-4.07-2.93-6.1c-0.97-2.03-1.97-4.09-3.01-6.18h-0.05
				C-66.91,362.35-67.12,364.41-67.27,366.44"/>
			<path class="st1" d="M-1.99,372.54c-0.44-0.04-0.85-0.05-1.24-0.05h-1.16h-1.16c-0.39,0-0.78,0.02-1.16,0.05
				c-0.29-0.89-0.59-1.8-0.9-2.72c-0.31-0.93-0.64-1.85-0.98-2.78c-0.58-0.02-1.16-0.03-1.74-0.04c-0.58-0.01-1.16-0.01-1.74-0.01
				c-0.47,0-0.94,0-1.42,0.01c-0.47,0.01-0.94,0.02-1.42,0.04c-0.36,0.93-0.7,1.85-1.01,2.78c-0.31,0.93-0.59,1.83-0.84,2.72
				c-0.22-0.04-0.43-0.05-0.64-0.05h-0.64h-0.65c-0.22,0-0.45,0.02-0.71,0.05c0.22-0.47,0.51-1.12,0.87-1.96
				c0.36-0.83,0.76-1.78,1.2-2.83c0.44-1.05,0.9-2.18,1.4-3.39c0.5-1.21,1-2.43,1.5-3.66c0.5-1.23,0.99-2.45,1.47-3.65
				c0.48-1.2,0.92-2.32,1.32-3.35c0.18,0.04,0.35,0.07,0.52,0.1c0.16,0.03,0.34,0.04,0.52,0.04c0.18,0,0.35-0.01,0.52-0.04
				c0.16-0.03,0.33-0.06,0.52-0.1c0.58,1.55,1.2,3.2,1.86,4.96c0.66,1.76,1.33,3.49,2,5.19c0.67,1.7,1.33,3.31,1.96,4.83
				C-3.1,370.2-2.52,371.49-1.99,372.54 M-11.63,358.95c-0.47,1.09-0.92,2.17-1.33,3.23c-0.42,1.06-0.83,2.15-1.23,3.25h4.98
				c-0.4-1.11-0.79-2.19-1.18-3.25C-10.78,361.12-11.2,360.04-11.63,358.95"/>
			<path class="st1" d="M32.16,363.96c-0.45-0.83-0.97-1.77-1.55-2.82c-0.58-1.04-1.14-2.05-1.69-3.02
				c-0.55-0.97-1.03-1.85-1.47-2.63c-0.44-0.78-0.75-1.33-0.93-1.66c0.44,0.03,0.85,0.07,1.25,0.09c0.4,0.03,0.81,0.04,1.22,0.04
				c0.42,0,0.82-0.01,1.21-0.04c0.39-0.03,0.79-0.06,1.21-0.09c0.54,1.11,1.1,2.21,1.66,3.32c0.56,1.11,1.13,2.22,1.72,3.32
				c0.69-1.11,1.37-2.22,2.03-3.32c0.66-1.11,1.31-2.22,1.95-3.32c0.25,0.03,0.49,0.07,0.71,0.09c0.22,0.03,0.44,0.04,0.68,0.04
				c0.22,0,0.44-0.01,0.67-0.04c0.23-0.03,0.47-0.06,0.72-0.09c-0.31,0.4-0.69,0.92-1.16,1.58c-0.46,0.65-0.96,1.36-1.48,2.12
				c-0.53,0.76-1.06,1.54-1.59,2.34c-0.54,0.8-1.04,1.53-1.51,2.21c0.45,0.87,0.95,1.82,1.5,2.83c0.55,1.02,1.08,2,1.62,2.97
				c0.54,0.96,1.03,1.86,1.5,2.7c0.46,0.83,0.83,1.49,1.1,1.96c-0.42-0.04-0.82-0.05-1.21-0.05h-1.18h-1.18
				c-0.39,0-0.79,0.02-1.19,0.05c-0.58-1.11-1.16-2.24-1.74-3.4c-0.58-1.16-1.19-2.32-1.83-3.49c-0.74,1.16-1.46,2.32-2.15,3.47
				c-0.69,1.15-1.35,2.29-1.99,3.42c-0.42-0.04-0.86-0.05-1.34-0.05h-0.67c-0.23,0-0.47,0.02-0.72,0.05c0.34-0.44,0.75-1,1.22-1.7
				c0.47-0.7,0.97-1.44,1.5-2.22c0.53-0.78,1.06-1.57,1.59-2.38C31.18,365.43,31.69,364.67,32.16,363.96"/>
			<path class="st1" d="M71.62,357.36c-0.04-1.17-0.09-2.35-0.16-3.53c0.82,0.02,1.63,0.05,2.42,0.08c0.8,0.04,1.61,0.05,2.42,0.05
				c1.34,0,2.54-0.01,3.58-0.04c1.04-0.03,1.75-0.06,2.11-0.1c-0.07,0.29-0.11,0.67-0.11,1.14c0,0.29,0.01,0.52,0.03,0.68
				c0.02,0.17,0.04,0.35,0.08,0.55c-0.53-0.04-1.1-0.07-1.73-0.11c-0.63-0.04-1.24-0.07-1.83-0.11c-0.59-0.04-1.12-0.06-1.59-0.08
				c-0.47-0.02-0.81-0.03-1.01-0.03c-0.07,1-0.11,1.99-0.12,2.97c-0.01,0.98-0.01,1.97-0.01,2.97c1.18-0.02,2.25-0.05,3.2-0.08
				c0.95-0.04,1.95-0.08,2.98-0.14c-0.05,0.31-0.09,0.54-0.11,0.71c-0.02,0.16-0.03,0.34-0.03,0.52c0,0.14,0.01,0.29,0.04,0.45
				c0.03,0.15,0.06,0.38,0.09,0.67c-2.07-0.16-4.13-0.24-6.18-0.24v1.39c0,1.51,0.02,2.85,0.06,4.01c0.04,1.17,0.09,2.32,0.16,3.45
				c-0.31-0.04-0.65-0.06-1.01-0.06h-1.23h-1.22c-0.36,0-0.7,0.02-1.01,0.06c0.07-1.12,0.13-2.27,0.16-3.45
				c0.04-1.17,0.06-2.51,0.06-4.01v-3.71C71.67,359.87,71.66,358.53,71.62,357.36"/>
			<path class="st1" d="M121.08,372.89c-1.16,0-2.25-0.12-3.25-0.37c-1.01-0.24-1.88-0.65-2.63-1.22c-0.74-0.57-1.33-1.31-1.76-2.21
				c-0.43-0.9-0.64-1.99-0.64-3.28c0-0.73,0-1.38,0.01-1.95c0.01-0.57,0.01-1.1,0.01-1.59c0-0.49,0-0.96,0.01-1.42
				c0.01-0.45,0.01-0.93,0.01-1.42c0-1.47-0.01-2.66-0.03-3.57c-0.02-0.91-0.05-1.59-0.08-2.04c0.36,0.04,0.73,0.07,1.11,0.1
				c0.38,0.03,0.75,0.04,1.12,0.04c0.36,0,0.73-0.01,1.12-0.04c0.38-0.03,0.75-0.06,1.12-0.1c-0.18,1.76-0.29,3.4-0.33,4.92
				c-0.04,1.52-0.05,3.05-0.05,4.61c0,1.65,0.12,2.99,0.35,4c0.23,1.02,0.58,1.8,1.05,2.36c0.46,0.55,1.03,0.92,1.7,1.1
				c0.67,0.18,1.45,0.27,2.34,0.27c1.09,0,1.94-0.27,2.56-0.82c0.62-0.54,1.08-1.27,1.4-2.18c0.32-0.91,0.51-1.95,0.58-3.12
				c0.07-1.17,0.11-2.39,0.11-3.66c0-1.25-0.02-2.5-0.06-3.75c-0.04-1.24-0.09-2.49-0.16-3.74c0.25,0.04,0.5,0.07,0.74,0.1
				c0.23,0.03,0.45,0.04,0.65,0.04c0.23,0,0.46-0.01,0.68-0.04c0.22-0.03,0.45-0.06,0.68-0.1c-0.04,0.4-0.07,0.94-0.11,1.61
				c-0.04,0.67-0.07,1.45-0.11,2.33c-0.04,0.88-0.07,1.85-0.09,2.91c-0.03,1.06-0.04,2.18-0.04,3.37c0,3.16-0.68,5.42-2.04,6.79
				C125.7,372.21,123.71,372.89,121.08,372.89"/>
			<path class="st1" d="M164.39,356.83c-0.01-0.44-0.03-0.75-0.07-0.95c-0.27,0-0.61,0.01-1.01,0.03c-0.4,0.02-0.83,0.04-1.28,0.07
				c-0.45,0.03-0.92,0.06-1.39,0.11c-0.47,0.05-0.91,0.09-1.31,0.15c0.04-0.2,0.07-0.4,0.1-0.6c0.03-0.2,0.04-0.4,0.04-0.6
				c0-0.2-0.01-0.4-0.04-0.6c-0.03-0.2-0.06-0.4-0.1-0.6c0.62,0.02,1.18,0.04,1.68,0.05c0.5,0.02,1.01,0.03,1.52,0.04
				c0.52,0.01,1.08,0.02,1.69,0.03c0.61,0.01,1.34,0.01,2.19,0.01c0.85,0,1.58-0.01,2.19-0.01c0.61-0.01,1.17-0.02,1.68-0.03
				c0.51-0.01,1-0.02,1.48-0.04c0.48-0.02,1-0.04,1.57-0.05c-0.04,0.2-0.07,0.4-0.09,0.6c-0.03,0.2-0.04,0.4-0.04,0.6
				c0,0.2,0.01,0.4,0.04,0.6c0.03,0.2,0.06,0.4,0.09,0.6c-0.36-0.06-0.77-0.1-1.22-0.15c-0.45-0.05-0.9-0.08-1.35-0.11
				c-0.45-0.03-0.87-0.05-1.27-0.07c-0.4-0.02-0.73-0.03-1.01-0.03c-0.02,0.09-0.03,0.22-0.04,0.38c-0.01,0.16-0.02,0.35-0.02,0.57
				v1.44v6.81c0,1.51,0.02,2.85,0.06,4.02c0.04,1.17,0.09,2.32,0.16,3.45c-0.31-0.04-0.65-0.06-1.01-0.06h-1.23h-1.22
				c-0.36,0-0.7,0.02-1.01,0.06c0.07-1.13,0.13-2.27,0.16-3.45c0.04-1.17,0.05-2.51,0.05-4.02v-6.81
				C164.4,357.74,164.4,357.26,164.39,356.83"/>
			<path class="st1" d="M211.87,372.89c-1.16,0-2.25-0.12-3.25-0.37c-1.01-0.24-1.88-0.65-2.63-1.22c-0.74-0.57-1.33-1.31-1.76-2.21
				c-0.43-0.9-0.64-1.99-0.64-3.28c0-0.73,0-1.38,0.01-1.95c0.01-0.57,0.01-1.1,0.01-1.59c0-0.49,0-0.96,0.01-1.42
				c0.01-0.45,0.01-0.93,0.01-1.42c0-1.47-0.01-2.66-0.03-3.57c-0.02-0.91-0.05-1.59-0.08-2.04c0.36,0.04,0.73,0.07,1.12,0.1
				c0.38,0.03,0.75,0.04,1.12,0.04c0.36,0,0.73-0.01,1.12-0.04c0.38-0.03,0.75-0.06,1.12-0.1c-0.18,1.76-0.29,3.4-0.33,4.92
				c-0.04,1.52-0.05,3.05-0.05,4.61c0,1.65,0.12,2.99,0.35,4c0.23,1.02,0.58,1.8,1.05,2.36c0.46,0.55,1.03,0.92,1.7,1.1
				c0.67,0.18,1.45,0.27,2.34,0.27c1.09,0,1.94-0.27,2.56-0.82c0.62-0.54,1.08-1.27,1.4-2.18c0.32-0.91,0.51-1.95,0.58-3.12
				c0.07-1.17,0.11-2.39,0.11-3.66c0-1.25-0.02-2.5-0.06-3.75c-0.04-1.24-0.09-2.49-0.16-3.74c0.25,0.04,0.5,0.07,0.74,0.1
				c0.23,0.03,0.45,0.04,0.65,0.04c0.23,0,0.46-0.01,0.68-0.04c0.22-0.03,0.44-0.06,0.68-0.1c-0.04,0.4-0.07,0.94-0.11,1.61
				c-0.04,0.67-0.07,1.45-0.11,2.33c-0.04,0.88-0.07,1.85-0.09,2.91c-0.03,1.06-0.04,2.18-0.04,3.37c0,3.16-0.68,5.42-2.04,6.79
				C216.5,372.21,214.5,372.89,211.87,372.89"/>
			<path class="st1" d="M256.01,363.96v1.12c0,1.51,0.02,2.85,0.06,4.01c0.04,1.17,0.09,2.32,0.16,3.45
				c-0.31-0.04-0.65-0.05-1.01-0.05H254h-1.22c-0.36,0-0.7,0.02-1.01,0.05c0.07-1.12,0.13-2.27,0.16-3.45
				c0.04-1.17,0.06-2.51,0.06-4.01v-3.71c0-1.51-0.02-2.85-0.06-4.02c-0.04-1.17-0.09-2.35-0.16-3.53c0.31,0.04,0.64,0.07,1.01,0.1
				c0.36,0.03,0.77,0.04,1.22,0.04c0.49,0,1.05-0.02,1.67-0.07c0.63-0.05,1.4-0.07,2.33-0.07c0.69,0,1.28,0.02,1.77,0.05
				c0.49,0.04,0.91,0.09,1.27,0.16c0.35,0.07,0.66,0.17,0.93,0.29c0.26,0.12,0.51,0.26,0.75,0.42c0.55,0.4,0.98,0.89,1.29,1.48
				c0.32,0.59,0.48,1.29,0.48,2.11c0,1.33-0.36,2.41-1.09,3.24c-0.73,0.83-1.77,1.43-3.13,1.77c0.87,1.54,1.81,3.08,2.81,4.62
				c1,1.54,2,3.06,2.99,4.56c-0.42-0.04-0.83-0.05-1.23-0.05h-1.22h-1.24c-0.41,0-0.82,0.02-1.24,0.05l-4.88-8.58H256.01z
				 M260.32,358.95c0-0.8-0.08-1.43-0.25-1.91c-0.16-0.47-0.41-0.83-0.75-1.08c-0.33-0.24-0.77-0.4-1.31-0.48
				c-0.54-0.07-1.18-0.11-1.92-0.11c-0.05,2.47-0.08,4.94-0.08,7.41c0.11,0.02,0.21,0.03,0.31,0.04c0.1,0.01,0.19,0.01,0.29,0.01
				c1.2,0,2.12-0.32,2.75-0.97C260,361.23,260.32,360.26,260.32,358.95"/>
			<path class="st1" d="M295.56,357.36c-0.04-1.17-0.09-2.35-0.16-3.53c0.82,0.02,1.63,0.05,2.42,0.08c0.8,0.04,1.61,0.05,2.42,0.05
				c1.34,0,2.54-0.01,3.58-0.04c1.04-0.03,1.75-0.06,2.11-0.1c-0.07,0.29-0.11,0.67-0.11,1.14c0,0.29,0.01,0.52,0.03,0.68
				c0.02,0.17,0.04,0.35,0.08,0.55c-0.53-0.04-1.1-0.07-1.73-0.11c-0.63-0.04-1.24-0.07-1.83-0.11c-0.59-0.04-1.12-0.06-1.59-0.08
				c-0.47-0.02-0.81-0.03-1.01-0.03c-0.07,1-0.11,1.99-0.12,2.97c-0.01,0.98-0.01,1.97-0.01,2.97c1.18-0.02,2.25-0.05,3.2-0.08
				c0.95-0.04,1.95-0.08,2.98-0.14c-0.05,0.31-0.09,0.54-0.11,0.71c-0.02,0.16-0.03,0.34-0.03,0.52c0,0.14,0.01,0.29,0.04,0.45
				c0.03,0.15,0.06,0.38,0.09,0.67c-2.07-0.16-4.13-0.24-6.18-0.24c0,0.58,0,1.16-0.01,1.74c-0.01,0.58-0.01,1.16-0.01,1.74
				c0,1.18,0.03,2.31,0.08,3.4c1.03,0,2.07-0.03,3.1-0.08c1.04-0.05,2.08-0.15,3.13-0.27c-0.04,0.2-0.06,0.38-0.08,0.55
				c-0.02,0.16-0.03,0.39-0.03,0.68s0.01,0.52,0.03,0.68c0.02,0.16,0.04,0.3,0.08,0.41c-0.49-0.02-1.09-0.03-1.81-0.04
				c-0.72-0.01-1.7-0.01-2.95-0.01h-2.7h-1.62c-0.41,0-0.72,0-0.93,0.01c-0.21,0.01-0.39,0.02-0.53,0.04
				c0.07-1.12,0.13-2.27,0.16-3.45c0.04-1.17,0.05-2.51,0.05-4.01v-3.71C295.61,359.87,295.59,358.53,295.56,357.36"/>
		</g>
		<g>
			<path class="st1" d="M117.8,226.68l-0.02-4.24l2.06-0.01c0.41-1.61,0.99-3.18,1.74-4.66c2.45-4.84,6.57-8.58,14.22-12.91
				c4.52-2.56,7.48-3.75,10.92-5.13c1.7-0.68,3.45-1.39,5.61-2.34c10.53-4.63,18.85-8.28,24.94-15.17c1.5-1.69,2.77-3.48,3.9-5.45
				c3.89-6.82,4.26-16.5,4.27-16.59c0.27-8.36,0.66-54.57,0-119.32l4.24-0.04c0.66,64.82,0.27,111.12,0,119.5
				c-0.01,0.44-0.4,10.8-4.82,18.55c-1.26,2.2-2.74,4.28-4.41,6.16c-6.71,7.58-15.84,11.59-26.41,16.24
				c-2.23,0.98-4.09,1.73-5.74,2.39c-3.43,1.38-6.14,2.47-10.41,4.88c-6.95,3.93-10.46,7.05-12.52,11.13
				c-0.83,1.64-1.4,3.39-1.71,5.21l-0.3,1.75L117.8,226.68z"/>
			<path class="st1" d="M117.97,226.68l-5.67-0.03l-0.3-1.75c-0.31-1.82-0.88-3.58-1.71-5.21c-2.06-4.08-5.57-7.2-12.52-11.13
				c-4.27-2.42-6.98-3.5-10.41-4.88c-1.65-0.66-3.51-1.41-5.74-2.39c-10.57-4.65-19.7-8.66-26.41-16.24
				c-1.67-1.89-3.15-3.96-4.41-6.16c-4.42-7.75-4.81-18.12-4.82-18.55c-0.27-8.4-0.66-54.72,0-119.5l4.24,0.04
				c-0.66,64.72-0.27,110.95,0,119.32c0,0.1,0.37,9.77,4.27,16.59c1.13,1.98,2.41,3.76,3.9,5.45c6.1,6.89,14.41,10.54,24.94,15.17
				c2.17,0.95,3.92,1.66,5.61,2.34c3.43,1.38,6.4,2.57,10.92,5.13c7.65,4.33,11.77,8.07,14.21,12.91c0.75,1.49,1.33,3.05,1.74,4.66
				l2.17,0.01L117.97,226.68z"/>
			<path class="st1" d="M82.54,198.67H78.3V5.26l3.6,3.54c6.11,6,12.78,12.56,19.45,19.12c6.67,6.56,13.34,13.12,19.44,19.12
				l-2.97,3.02c-6.11-6-12.78-12.56-19.45-19.12C93,25.65,87.62,20.36,82.54,15.36V198.67z"/>
			<path class="st1" d="M157.37,198.67h-4.24V15.36c-5.14,5.05-10.58,10.41-16.02,15.76c-6.61,6.5-13.21,12.99-19.26,18.94
				l-2.97-3.02c6.05-5.94,12.65-12.44,19.26-18.93c6.73-6.62,13.46-13.25,19.63-19.3l3.6-3.54V198.67z"/>
			<path class="st1" d="M118.06,183.2c-0.21,0-0.33,0-0.36-0.01l0.15-4.24c0.05,0,4.72,0.13,9-1.94
				c8.45-4.08,12.06-10.07,12.06-20.05c0-15.5-12.97-27.81-30.92-44.85c-4.4-4.17-8.94-8.49-13.72-13.24
				C80.01,84.68,63.21,66.98,46.76,43.29l3.48-2.42C66.5,64.28,83.13,81.81,97.25,95.86c4.74,4.72,9.27,9.02,13.65,13.18
				c18.72,17.77,32.24,30.61,32.24,47.93c0,11.53-4.59,19.11-14.46,23.87C124.14,183.03,119.39,183.2,118.06,183.2"/>
			<path class="st1" d="M117.63,183.2c-1.35,0-6.1-0.17-10.65-2.36c-9.86-4.76-14.46-12.34-14.46-23.87
				c0-17.32,13.52-30.16,32.24-47.93c4.38-4.16,8.91-8.45,13.65-13.17c14.12-14.06,30.76-31.58,47.02-54.99l3.48,2.42
				c-16.45,23.69-33.25,41.39-47.51,55.58c-4.78,4.75-9.32,9.07-13.72,13.24c-17.95,17.04-30.92,29.35-30.92,44.85
				c0,9.98,3.61,15.98,12.06,20.05c4.28,2.07,8.99,1.94,9.03,1.94l0.15,4.24C117.96,183.19,117.84,183.2,117.63,183.2"/>
			<path class="st1" d="M80.5,223.71c-0.12,1.03-1.07,1.77-2.1,1.61c-9.54-1.43-29.44-6.53-44.77-24.65
				c-13.41-15.84-16.29-33.34-16.81-42.37l0-88.3h4.24v88.17c0.49,8.38,3.2,24.86,15.81,39.76c14.41,17.03,33.13,21.84,42.12,23.19
				c0.99,0.15,1.69,1.05,1.57,2.05L80.5,223.71z"/>
			<polygon class="st1" points="17.48,95.9 -0.06,80.83 -0.06,75.28 17.48,90.34 			"/>
			<polygon class="st1" points="19.96,95.86 28.77,88.3 28.77,82.75 19.96,90.3 			"/>
			<polygon class="st1" points="19.93,110.93 37.47,95.87 37.47,90.32 19.93,105.38 			"/>
			<polygon class="st1" points="17.52,110.96 8.72,103.4 8.72,97.85 17.52,105.4 			"/>
			<polygon class="st1" points="19.93,141.13 37.47,126.07 37.47,120.51 19.93,135.57 			"/>
			<polygon class="st1" points="17.52,141.15 8.72,133.59 8.72,128.04 17.52,135.59 			"/>
			<polygon class="st1" points="17.53,126.09 -0.01,111.03 -0.01,105.47 17.53,120.53 			"/>
			<polygon class="st1" points="19.96,126.05 28.77,118.5 28.77,112.94 19.96,120.5 			"/>
			<polygon class="st1" points="17.53,156.28 -0.01,141.22 -0.01,135.67 17.53,150.72 			"/>
			<polygon class="st1" points="19.96,156.25 28.77,148.69 28.77,143.14 19.96,150.69 			"/>
			<polygon class="st1" points="19.97,80.9 28.77,73.35 28.77,67.8 19.97,75.35 			"/>
			<polygon class="st1" points="17.53,80.9 8.72,73.35 8.72,67.8 17.53,75.35 			"/>
			<path class="st1" d="M155.17,223.71c0.12,1.03,1.07,1.77,2.1,1.61c9.54-1.43,29.44-6.53,44.77-24.65
				c13.41-15.84,16.29-33.34,16.81-42.37l0-88.3h-4.24v88.17c-0.49,8.38-3.2,24.86-15.81,39.76
				c-14.41,17.03-33.13,21.84-42.12,23.19c-0.99,0.15-1.69,1.05-1.57,2.05L155.17,223.71z"/>
			<polygon class="st1" points="218.18,95.9 235.73,80.83 235.73,75.28 218.18,90.34 			"/>
			<polygon class="st1" points="215.71,95.86 206.9,88.3 206.9,82.75 215.71,90.3 			"/>
			<polygon class="st1" points="215.74,110.93 198.2,95.87 198.2,90.32 215.74,105.38 			"/>
			<polygon class="st1" points="218.14,110.96 226.95,103.4 226.95,97.85 218.14,105.4 			"/>
			<polygon class="st1" points="215.74,141.13 198.2,126.07 198.2,120.51 215.74,135.57 			"/>
			<polygon class="st1" points="218.14,141.15 226.95,133.59 226.95,128.04 218.14,135.59 			"/>
			<polygon class="st1" points="218.13,126.09 235.68,111.03 235.68,105.47 218.13,120.53 			"/>
			<polygon class="st1" points="215.71,126.05 206.9,118.5 206.9,112.94 215.71,120.5 			"/>
			<polygon class="st1" points="218.13,156.28 235.68,141.22 235.68,135.67 218.13,150.72 			"/>
			<polygon class="st1" points="215.71,156.25 206.9,148.69 206.9,143.14 215.71,150.69 			"/>
			<polygon class="st1" points="215.7,80.9 206.9,73.35 206.9,67.8 215.7,75.35 			"/>
			<polygon class="st1" points="218.14,80.9 226.94,73.35 226.94,67.8 218.14,75.35 			"/>
		</g>
	</g>
</g>
</svg>
