<svg id="图层_1" data-name="图层 1" xmlns="http://www.w3.org/2000/svg" viewBox="0 0 594.33 367.63"><defs><style>.cls-1{fill:#cd932f;}</style></defs><path class="cls-1" d="M21.94,273.84h7.68c0-2.83-.05-5.09-.16-6.76l4.19,1.37c.58.18.88.4.88.68s-.2.51-.6.73l-1,.49v3.49h7.68l1.68-2.51,3.27,2.18a.77.77,0,0,1,.44.63.91.91,0,0,1-.44.68l-1.2,1v2.61c0,.88.06,1.93.17,3.16s.16,2,.16,2.18c0,.65-.48,1.24-1.44,1.74a5.76,5.76,0,0,1-1.91.77c-.31,0-.46-.26-.46-.77v-2.07H10Q10,293.73,7.67,299a27.6,27.6,0,0,1-7.19,9.62L-.33,308a30.22,30.22,0,0,0,5.14-9.26A40.61,40.61,0,0,0,6.48,286v-18.3c0-1.81-.08-3.7-.22-5.66l4.25,3.16H41.82l3.38-3.87,3.6,4.14a2.24,2.24,0,0,1,.59,1.14c0,.26-.3.39-.92.39H10v6.86h8.66c0-2.83-.06-5.07-.17-6.7l4.14,1.36c.58.18.87.41.87.68s-.2.52-.6.74l-1,.49Zm-3.26,1.63H10v6.32h8.66Zm-.22,17.32V302l9-4.41.54.87L20,304.56a25.75,25.75,0,0,0-3.43,3.1,1.4,1.4,0,0,1-1,.55q-.48,0-.81-.66l-1.63-3.32a2.72,2.72,0,0,0,1.68-1,5.34,5.34,0,0,0,.33-2.32V289.2c0-1.82-.07-3.69-.22-5.61l4.31,1.8c.5.18.76.36.76.54s-.22.38-.66.6l-.92.49v4.25h4.36L25,288.6l2.51,3.1a1.28,1.28,0,0,1,.38.77c0,.21-.22.32-.65.32Zm11.16-17.32H21.94v6.32h7.68Zm-6.8-18.14q6.91,1.69,6.91,4.2a3,3,0,0,1-.87,2.07,2.39,2.39,0,0,1-1.69.92,1.91,1.91,0,0,1-1.33-.46,3.21,3.21,0,0,1-.76-1.85,6,6,0,0,0-.9-2.34,6.83,6.83,0,0,0-1.75-1.72Zm9.47,39.33v6a1.17,1.17,0,0,0,1.09,1.2,33,33,0,0,0,4.85.22,18.08,18.08,0,0,0,4.49-.3q.73-.3,1.17-1.83a50.43,50.43,0,0,0,1-5.88h.82a40.48,40.48,0,0,0,.48,4.49,5.74,5.74,0,0,0,.66,1.94,2.59,2.59,0,0,0,1.14.87c.51.22.77.48.77.79s-.39.86-1.15,1.66a5.19,5.19,0,0,1-3.21,1.47,61.65,61.65,0,0,1-7,.27,31,31,0,0,1-6.32-.38,2.61,2.61,0,0,1-1.85-1.31,6.58,6.58,0,0,1-.44-2.72V292.19q0-4.19-.22-8.6l4.69,1.8c.47.18.71.39.71.62s-.24.48-.71.74l-1,.49v8.33a82.39,82.39,0,0,0,11.11-7.73l2.51,3a1.91,1.91,0,0,1,.54,1.06c0,.28-.36.43-1.09.47a9.7,9.7,0,0,0-2.34.43Zm8.61-21.19H33v6.32H40.9Z" transform="translate(0.33 -0.26)"/><path class="cls-1" d="M129,303.47v2.18c0,.94-.58,1.65-1.74,2.12a9.05,9.05,0,0,1-2.18.71c-.29,0-.44-.2-.44-.6s0-.84.06-1.31q.43-4.47.43-8.22v-7.24a86.47,86.47,0,0,1-14.54,6.48l-.43-1a99.67,99.67,0,0,0,14.92-8.17l-.22-2.23,2.23.81a75,75,0,0,0,10.87-8.71,59.18,59.18,0,0,0,8.25-10.57H129.41c-1.17,1.71-2.2,3.16-3.11,4.36q8.12,2.73,8.12,6a3.79,3.79,0,0,1-.63,2,1.81,1.81,0,0,1-1.53,1,1.62,1.62,0,0,1-1.25-.41,4.74,4.74,0,0,1-.71-1.44,14.07,14.07,0,0,0-1.66-3,21.77,21.77,0,0,0-2.88-3.46A56.08,56.08,0,0,1,113.23,285l-.66-.65A64.22,64.22,0,0,0,122.71,272a65.28,65.28,0,0,0,7-14.21l4.52,2.72c.44.25.66.48.66.68s-.27.35-.79.46-1.12.66-1.77,1.64l-1.85,2.83h16.06l2.56-2.67,4.69,3.32a.94.94,0,0,1,.49.74c0,.27-.29.42-.85.46a3.27,3.27,0,0,0-1.66.65,18.94,18.94,0,0,0-2.45,2.46A90.8,90.8,0,0,1,130.22,288h18l1.9-2.95,4.63,3.05a.87.87,0,0,1,.38.63q0,.3-.54.63L153,290.4v7.19c0,1.38.06,2.79.17,4.24l.16,3.27c0,.69-.54,1.29-1.63,1.8a7.24,7.24,0,0,1-2.07.76c-.29,0-.44-.23-.44-.71v-3.48Zm0-1.47h20.26V289.42H129Z" transform="translate(0.33 -0.26)"/><path class="cls-1" d="M258.49,303.09h-32v2.61A1.55,1.55,0,0,1,226,307a7.43,7.43,0,0,1-1.58.87,4.58,4.58,0,0,1-1.55.47c-.65,0-.89-.6-.71-1.8a114.84,114.84,0,0,0,.55-11.82V267c0-3.23-.08-5.7-.22-7.41l3.86,2.4h31.49l1.85-2.29,4.14,2.83c.29.15.43.32.43.52s-.16.41-.49.63l-1.47,1v29.09c0,2.47.08,4.72.22,6.75l.33,4.63c0,.44-.55,1-1.64,1.63a5.84,5.84,0,0,1-2.18,1c-.36,0-.54-.26-.54-.77Zm-32-1.53h32V263.49h-32ZM240,293.77V281.68h-5.12a9.15,9.15,0,0,0-3.59.55l-1.91-2.29a33.25,33.25,0,0,0,4.41.27H240v-9h-7.08a11.36,11.36,0,0,0-3.59.55l-1.86-2.23c1.42.14,2.89.21,4.42.21h18.62l2.84-3.43,3.21,3.76a1.6,1.6,0,0,1,.43.84c0,.2-.25.3-.76.3H243.46v9h4.74L251,277l3,3.59a1.57,1.57,0,0,1,.49.82q0,.27-.87.27H243.46v12.09h7.79l3-3.54,3.27,3.87a1.71,1.71,0,0,1,.38.84c0,.2-.25.3-.76.3H232.45a11.31,11.31,0,0,0-3.59.49L227,293.5a34.6,34.6,0,0,0,4.36.27Zm5.28-10.45a19.87,19.87,0,0,1,4,1.52,8.46,8.46,0,0,1,2.43,1.66,2.66,2.66,0,0,1,.62,1.8,3.71,3.71,0,0,1-.65,2.07,1.81,1.81,0,0,1-1.47,1c-.43,0-.85-.57-1.25-1.69a15.62,15.62,0,0,0-4-5.78Z" transform="translate(0.33 -0.26)"/><path class="cls-1" d="M334.31,262.73H340l2-2.67,3.7,3.59c.33.33.49.58.49.77s-.26.32-.79.43a2.77,2.77,0,0,0-1.47.9,12.9,12.9,0,0,0-1.5,2.15l-5.17,8.82a27.32,27.32,0,0,1,5.36,6.1,12.28,12.28,0,0,1,1.77,6.43,6.71,6.71,0,0,1-3.05,5.69c-2,1.47-3.36,2.21-4,2.21-.26,0-.44-.27-.55-.82a6,6,0,0,0-.95-2.78,4.52,4.52,0,0,0-2.1-1.36l.06-.65a14.5,14.5,0,0,0,3.37.49q3.6,0,3.6-3.81a13.7,13.7,0,0,0-1.39-5.42,28.36,28.36,0,0,0-3.9-6.24l4.85-12.36h-7.19v30.72q0,5.28.11,7.68c.07,1.59.11,2.47.11,2.61,0,.76-.55,1.43-1.63,2a6.38,6.38,0,0,1-2.16.87q-.51,0-.51-1.26l.27-5.88q.16-3.75.16-7.3V268.83q0-6-.22-9.1Zm20.37,22c.36.22.54.46.54.71s-.23.44-.68.57-1,.74-1.66,1.83q-6.15,11.27-12.53,16.83l-.6-.71a52.21,52.21,0,0,0,10.79-21.73Zm6.59-6.92v23a12.75,12.75,0,0,1-.44,4.06,5.55,5.55,0,0,1-2.39,2.31,7.18,7.18,0,0,1-2.59,1.2c-.42,0-.66-.46-.71-1.39a2.93,2.93,0,0,0-1.15-2.23,13.47,13.47,0,0,0-4.38-1.77l.11-1c2.54.25,4.3.38,5.28.38a3.85,3.85,0,0,0,1.85-.27,1.2,1.2,0,0,0,.39-1V277.81h-8.17a9.9,9.9,0,0,0-3.71.6L343.29,276a35.1,35.1,0,0,0,4.52.27h22.06l2.94-3.49,3.6,4.09a1.71,1.71,0,0,1,.43.73c0,.13-.27.19-.81.19Zm-8.77-14.37h13.29l3-3.71,3.65,4.25a1.5,1.5,0,0,1,.38.76c0,.18-.28.27-.82.27H353.7a10.69,10.69,0,0,0-3.71.6l-2-2.5a28.09,28.09,0,0,0,4.52.33m11.82,19.93a81.63,81.63,0,0,1,7.81,8.42c2,2.52,3,4.53,3,6a6.15,6.15,0,0,1-.73,3.35,2.28,2.28,0,0,1-2,1.12,1.59,1.59,0,0,1-1.2-.6,3,3,0,0,1-.71-1.52,35.61,35.61,0,0,0-2.18-7.88A62.83,62.83,0,0,0,363.5,284Z" transform="translate(0.33 -0.26)"/><path class="cls-1" d="M446.29,268.12h-2.62a9.78,9.78,0,0,0-3.59.6l-2-2.4a27.71,27.71,0,0,0,4.47.33h3.7V262.4c0-1.42-.08-3.07-.22-5l5,2c.55.22.82.46.82.71a1.2,1.2,0,0,1-.49.82l-1.31,1v4.69h1.47l2.29-2.78,2.83,3.38a1.07,1.07,0,0,1,.33.62c0,.17-.26.25-.77.25H450.1v5.94H453a63.2,63.2,0,0,0,7.68-11.82l2.94,2.88a1.1,1.1,0,0,1,.43.82c0,.29-.35.55-1.06.76a3.23,3.23,0,0,0-1.77,1.42q-2.23,3-4.68,5.94h3.32L462,271.5l2.5,3.1a1.21,1.21,0,0,1,.44.71c0,.18-.28.27-.82.27h-8.93q-2.13,2.46-4.69,4.9h4.79l2.4-2.12,3.32,3.27a1.22,1.22,0,0,1,.44.81c0,.26-.47.41-1.42.47a6.26,6.26,0,0,0-2.77.84,31.21,31.21,0,0,0-4.52,3.6l1.68.65q.66.27.66.57c0,.2-.17.43-.49.68l-1.37.93v1.36l9.92-1.8.16.76-10.08,2.78v7.85a9,9,0,0,1-.38,3.21,6.29,6.29,0,0,1-2.28,2.15,8.29,8.29,0,0,1-2.29,1.28c-.26,0-.43-.41-.52-1.23a2.89,2.89,0,0,0-1.55-2.09,13.06,13.06,0,0,0-4.25-1.42l.11-.92a49.44,49.44,0,0,0,5.31.54,3,3,0,0,0,1.69-.3,1.2,1.2,0,0,0,.35-1v-7.08q-3.11.93-6,1.93a32,32,0,0,0-3.41,1.28,1.62,1.62,0,0,1-.76.27c-.2,0-.43-.21-.68-.65L437,294.32l12.42-2.13c0-1.59-.07-3.7-.22-6.31l2.51,1,4.19-4.91H449a65.78,65.78,0,0,1-13.67,10l-.44-.93a87.09,87.09,0,0,0,11-9.1h-2.18a9.88,9.88,0,0,0-3.59.55l-1.91-2.34a27.86,27.86,0,0,0,4.47.32h4.68a52.39,52.39,0,0,0,4.41-4.9h-11.6a9.37,9.37,0,0,0-3.64.6l-2-2.45a27.89,27.89,0,0,0,4.47.33h7.3Zm19.88,10.73a51.27,51.27,0,0,1-4.74,7.57l-.93-.54A71.26,71.26,0,0,0,466.63,272a76,76,0,0,0,3.51-14.78l4.58,2.17c.4.19.6.41.6.69s-.19.45-.57.54a1.21,1.21,0,0,0-.85.74l-4.25,10h8.94l3.1-3.71,3.65,4.36a1,1,0,0,1,.27.55c0,.14-.22.21-.65.21h-5.83q-.93,13.72-5.28,21.08a24.77,24.77,0,0,0,12.2,8.83l-.22.6a7.78,7.78,0,0,0-3.4.73,3.23,3.23,0,0,0-1.28,2c0,.26-.13.38-.28.38q-.6,0-4.11-3.56a43.73,43.73,0,0,1-5-5.86q-5.49,7.14-17.75,10.51l-.33-.87q11.16-4,16.39-12.47-3.48-6.1-3.86-15.36m2.88-6.05c-.36.87-.87,2-1.52,3.38a39,39,0,0,0,4.3,14.6q3.27-6.91,3.82-18Z" transform="translate(0.33 -0.26)"/><path class="cls-1" d="M563.83,266.6H550a9.48,9.48,0,0,0-3.65.59l-2-2.39a33.25,33.25,0,0,0,4.41.27h37.1l3.53-3.81,4.14,4.41c.29.29.44.52.44.68s-.25.25-.76.25h-27.4l2.29,1.3c.51.29.76.52.76.68s-.28.3-.84.41a10.39,10.39,0,0,0-2,.66q-1.17.48-9.18,5.06l23.7-.71a50.78,50.78,0,0,0-7.9-4.85l.44-.76q7.23,2.34,10.15,3.6a10.85,10.85,0,0,1,3.79,2.28,3.66,3.66,0,0,1,.87,2.43,4,4,0,0,1-.49,2.15,1.4,1.4,0,0,1-1.17.76c-.46,0-1-.5-1.72-1.5a16.84,16.84,0,0,0-2.45-2.8l-17.92,1.47c-6,.47-9.51.93-10.46,1.36a2.47,2.47,0,0,1-.92.22c-.26,0-.44-.16-.55-.49L551,274.55a9.24,9.24,0,0,0,3.86-.71,23.15,23.15,0,0,0,4.61-2.91,20.56,20.56,0,0,0,4.33-4.33m14.76,29.84H558.65v9.7c0,.69-.54,1.21-1.63,1.58a12.24,12.24,0,0,1-1.88.54.41.41,0,0,1-.38-.24,2.49,2.49,0,0,1-.08-1.12q.27-2.77.27-8.33V284.73c0-1.85-.08-3.74-.22-5.66l4,2.07H578l2.13-2.35,3.48,2.62a1,1,0,0,1,.38.63c0,.16-.13.31-.38.46l-1.2.65v19.77a5.26,5.26,0,0,1-.62,2.75,7.61,7.61,0,0,1-2.89,2.21,10.58,10.58,0,0,1-2.72,1.2c-.31,0-.5-.2-.58-.6a4.35,4.35,0,0,0-1.87-3.21,15.65,15.65,0,0,0-4.33-1.64l.21-1a33.92,33.92,0,0,0,6.21,1.09,3.84,3.84,0,0,0,2.15-.43,2.22,2.22,0,0,0,.58-1.8ZM558.65,288h19.94v-5.34H558.65Zm19.94,1.52H558.65V295h19.94ZM565.4,257.72a18.62,18.62,0,0,1,5.13,1.47,2.65,2.65,0,0,1,1.52,2.47,2.91,2.91,0,0,1-.82,2.35,2.57,2.57,0,0,1-1.63.68q-1.2,0-1.74-1.74a8.83,8.83,0,0,0-2.84-4.53Z" transform="translate(0.33 -0.26)"/><path class="cls-1" d="M111.73,361.44c-.14,2-.29,4.07-.43,6.1a3.68,3.68,0,0,0-.66-.06h-1.26a3.47,3.47,0,0,0-.64.06c.58-3.12,1.09-6.23,1.55-9.31s.87-6.22,1.25-9.4l.56.1a3.59,3.59,0,0,0,1.07,0l.58-.1c.49,1.09,1,2.2,1.54,3.32s1.07,2.25,1.6,3.37,1.07,2.21,1.61,3.28,1,2.08,1.54,3.05q1.63-3.06,3.25-6.39t3.09-6.63a6.32,6.32,0,0,0,1.17.14,6.23,6.23,0,0,0,1.15-.14c.18,1.56.37,3.24.58,5s.42,3.55.62,5.27.4,3.32.59,4.8.39,2.69.55,3.6a10,10,0,0,0-1.1-.06h-2.22a11.07,11.07,0,0,0-1.15.06c-.09-1.87-.24-3.9-.44-6.07s-.43-4.34-.65-6.49h0l-3.05,6.32q-1.5,3.1-3,6.24l-.26,0-.26,0-.25,0-.26,0c-1-2-2-4.07-2.93-6.1s-2-4.09-3-6.18h0c-.3,2.09-.51,4.15-.66,6.18" transform="translate(0.33 -0.26)"/><path class="cls-1" d="M177,367.54c-.44,0-.85-.06-1.24-.06h-2.31a11,11,0,0,0-1.16.06c-.29-.89-.59-1.8-.9-2.72s-.64-1.86-1-2.78l-1.74,0-1.75,0-1.41,0-1.42,0c-.36.92-.7,1.85-1,2.78s-.59,1.83-.84,2.72a3.55,3.55,0,0,0-.64-.06h-1.3a4.51,4.51,0,0,0-.7.06c.22-.47.51-1.13.87-2s.76-1.78,1.2-2.83.9-2.19,1.4-3.4,1-2.42,1.5-3.66,1-2.45,1.47-3.65.92-2.31,1.32-3.35l.52.1a2.78,2.78,0,0,0,.51,0,2.89,2.89,0,0,0,.52,0l.52-.1,1.86,5c.67,1.76,1.33,3.49,2,5.19s1.32,3.31,2,4.83,1.21,2.82,1.74,3.87M167.37,354c-.47,1.09-.92,2.17-1.34,3.23s-.82,2.14-1.22,3.25h5c-.4-1.11-.79-2.19-1.18-3.25s-.81-2.14-1.24-3.23" transform="translate(0.33 -0.26)"/><path class="cls-1" d="M211.16,359c-.45-.83-1-1.77-1.55-2.82l-1.69-3c-.55-1-1-1.85-1.47-2.63l-.93-1.66,1.26.1c.39,0,.8,0,1.22,0s.82,0,1.21,0l1.21-.1c.55,1.11,1.1,2.21,1.67,3.32s1.13,2.22,1.71,3.33c.69-1.11,1.37-2.22,2-3.33s1.31-2.21,1.95-3.32l.71.1c.21,0,.44,0,.68,0s.44,0,.66,0l.72-.1c-.3.4-.69.93-1.15,1.58s-1,1.36-1.49,2.12-1.06,1.55-1.59,2.35-1,1.53-1.51,2.2c.45.87.95,1.82,1.5,2.83s1.08,2,1.62,3l1.49,2.7,1.11,2c-.42,0-.82-.06-1.22-.06H217c-.39,0-.79,0-1.19.06-.58-1.11-1.16-2.24-1.74-3.4s-1.19-2.33-1.83-3.49c-.74,1.16-1.46,2.32-2.15,3.47s-1.35,2.29-2,3.42c-.42,0-.87-.06-1.34-.06h-.67a4.66,4.66,0,0,0-.72.06c.35-.44.75-1,1.23-1.7l1.5-2.22,1.59-2.39,1.51-2.27" transform="translate(0.33 -0.26)"/><path class="cls-1" d="M250.62,352.36c0-1.17-.09-2.35-.16-3.53l2.42.08c.8,0,1.61.06,2.42.06,1.35,0,2.54,0,3.59,0s1.74-.06,2.1-.1a5.06,5.06,0,0,0-.1,1.14,6.35,6.35,0,0,0,0,.68c0,.17,0,.35.08.55l-1.72-.11-1.83-.11c-.59,0-1.12-.06-1.59-.08l-1,0q-.1,1.5-.12,3c0,1,0,2,0,3l3.21-.08c.95,0,1.94-.08,3-.14-.06.31-.09.55-.11.71a4.28,4.28,0,0,0,0,.52,2.42,2.42,0,0,0,0,.45c0,.15.06.37.1.66q-3.11-.24-6.19-.24v1.39c0,1.5,0,2.84.06,4s.09,2.32.16,3.45a7.79,7.79,0,0,0-1-.06h-2.46a7.79,7.79,0,0,0-1,.06c.07-1.13.12-2.28.16-3.45s0-2.51,0-4v-3.71c0-1.5,0-2.84,0-4" transform="translate(0.33 -0.26)"/><path class="cls-1" d="M300.08,367.89a13.5,13.5,0,0,1-3.26-.37,6.93,6.93,0,0,1-2.63-1.22,6,6,0,0,1-1.76-2.21,7.68,7.68,0,0,1-.63-3.28c0-.72,0-1.37,0-1.95s0-1.1,0-1.59,0-1,0-1.41,0-.93,0-1.42q0-2.2,0-3.57c0-.9,0-1.59-.08-2l1.12.1c.38,0,.75,0,1.11,0s.74,0,1.12,0l1.12-.1q-.27,2.64-.33,4.92c0,1.51-.05,3.05-.05,4.61a18,18,0,0,0,.35,4,5.69,5.69,0,0,0,1.05,2.36,3.3,3.3,0,0,0,1.7,1.1,9,9,0,0,0,2.34.28,3.75,3.75,0,0,0,2.56-.82,5.1,5.1,0,0,0,1.41-2.18,11.87,11.87,0,0,0,.58-3.12c.07-1.17.11-2.39.11-3.66s0-2.5-.05-3.75-.1-2.49-.17-3.74l.74.1c.23,0,.45,0,.65,0s.46,0,.68,0l.68-.1c0,.4-.07.94-.11,1.61s-.07,1.44-.11,2.32-.06,1.86-.09,2.92,0,2.18,0,3.36q0,4.74-2,6.8a8.1,8.1,0,0,1-6,2.05" transform="translate(0.33 -0.26)"/><path class="cls-1" d="M343.39,351.83a6.31,6.31,0,0,0-.07-1l-1,0L341,351c-.45,0-.91.06-1.38.11s-.91.09-1.31.15c0-.2.07-.4.09-.6a4.52,4.52,0,0,0,0-1.2c0-.2-.06-.4-.09-.6l1.67.05,1.53.05,1.68,0,2.2,0,2.19,0,1.68,0,1.48-.05,1.56-.05-.09.6a4.52,4.52,0,0,0,0,1.2l.09.6c-.36-.06-.77-.11-1.22-.15s-.9-.09-1.35-.11l-1.27-.07-1,0a1.76,1.76,0,0,0,0,.38c0,.17,0,.36,0,.58v8.25c0,1.5,0,2.84.06,4s.09,2.32.16,3.45a7.84,7.84,0,0,0-1-.06h-2.45a8,8,0,0,0-1,.06c.08-1.13.13-2.28.17-3.45s0-2.51,0-4v-6.81c0-.53,0-1,0-1.44" transform="translate(0.33 -0.26)"/><path class="cls-1" d="M390.87,367.89a13.56,13.56,0,0,1-3.26-.37A6.88,6.88,0,0,1,385,366.3a5.92,5.92,0,0,1-1.76-2.21,7.52,7.52,0,0,1-.64-3.28c0-.72,0-1.37,0-1.95s0-1.1,0-1.59,0-1,0-1.41,0-.93,0-1.42c0-1.47,0-2.66,0-3.57s-.05-1.59-.08-2l1.11.1c.38,0,.76,0,1.12,0s.73,0,1.12,0l1.11-.1q-.27,2.64-.33,4.92c0,1.51-.05,3.05-.05,4.61a18,18,0,0,0,.36,4,5.57,5.57,0,0,0,1,2.36,3.34,3.34,0,0,0,1.7,1.1,9.18,9.18,0,0,0,2.35.28,3.76,3.76,0,0,0,2.56-.82,5.18,5.18,0,0,0,1.4-2.18,11.47,11.47,0,0,0,.58-3.12c.08-1.17.11-2.39.11-3.66s0-2.5-.05-3.75-.09-2.49-.16-3.74l.73.1c.24,0,.46,0,.66,0s.46,0,.68,0l.68-.1c0,.4-.08.94-.11,1.61s-.08,1.44-.11,2.32-.07,1.86-.1,2.92,0,2.18,0,3.36q0,4.74-2,6.8t-6,2.05" transform="translate(0.33 -0.26)"/><path class="cls-1" d="M435,359v1.12c0,1.5,0,2.84.06,4s.09,2.32.16,3.45a7.84,7.84,0,0,0-1-.06h-2.45a7.68,7.68,0,0,0-1,.06c.07-1.13.12-2.28.16-3.45s.05-2.51.05-4v-3.71c0-1.5,0-2.84-.05-4s-.09-2.35-.16-3.53l1,.1c.37,0,.77,0,1.23,0s1.05,0,1.67-.07,1.41-.07,2.33-.07c.69,0,1.28,0,1.77.05a11.59,11.59,0,0,1,1.27.17,4.78,4.78,0,0,1,.92.28,4,4,0,0,1,.75.43,4.39,4.39,0,0,1,1.3,1.48,4.47,4.47,0,0,1,.47,2.11,4.72,4.72,0,0,1-1.09,3.24,5.86,5.86,0,0,1-3.13,1.77q1.31,2.31,2.81,4.62c1,1.53,2,3,3,4.56-.42,0-.82-.06-1.22-.06h-2.47c-.41,0-.82,0-1.24.06L435.26,359Zm4.31-5a5.85,5.85,0,0,0-.25-1.91,2.08,2.08,0,0,0-.75-1.07,2.72,2.72,0,0,0-1.3-.48,15.14,15.14,0,0,0-1.93-.11q-.07,3.71-.08,7.41l.32,0h.28a3.7,3.7,0,0,0,2.75-1,4,4,0,0,0,1-2.93" transform="translate(0.33 -0.26)"/><path class="cls-1" d="M474.56,352.36c0-1.17-.09-2.35-.17-3.53l2.43.08c.8,0,1.6.06,2.42.06,1.34,0,2.54,0,3.58,0s1.75-.06,2.11-.1a5,5,0,0,0-.11,1.14,5.89,5.89,0,0,0,0,.68c0,.17,0,.35.08.55l-1.73-.11-1.82-.11c-.59,0-1.12-.06-1.6-.08l-1,0c-.07,1-.12,2-.13,3s0,2,0,3l3.2-.08c1,0,2-.08,3-.14-.05.31-.09.55-.11.71s0,.34,0,.52a2.42,2.42,0,0,0,0,.45c0,.15.06.37.09.66q-3.1-.24-6.18-.24c0,.58,0,1.16,0,1.74s0,1.16,0,1.74c0,1.18,0,2.32.09,3.41,1,0,2.07,0,3.1-.08s2.08-.15,3.13-.28c0,.2-.06.38-.08.55a7.72,7.72,0,0,0,0,1.36,2,2,0,0,0,.08.41l-1.81,0-2.95,0h-4.32l-.93,0-.53,0c.08-1.13.13-2.28.17-3.45s.05-2.51.05-4v-3.71c0-1.5,0-2.84-.05-4" transform="translate(0.33 -0.26)"/><path class="cls-1" d="M296.8,221.68l0-4.24h2.06a22.51,22.51,0,0,1,1.74-4.66c2.45-4.84,6.57-8.58,14.22-12.91a79.14,79.14,0,0,1,10.92-5.13c1.69-.68,3.44-1.38,5.61-2.34,10.53-4.63,18.84-8.28,24.94-15.17a31.42,31.42,0,0,0,3.9-5.45c3.9-6.83,4.27-16.5,4.27-16.59.27-8.36.66-54.57,0-119.32l4.24,0c.66,64.82.27,111.12,0,119.51,0,.43-.4,10.8-4.83,18.55a36.35,36.35,0,0,1-4.41,6.16c-6.71,7.59-15.84,11.6-26.41,16.24-2.22,1-4.09,1.73-5.73,2.39a75.13,75.13,0,0,0-10.41,4.89c-6.95,3.93-10.46,7-12.52,11.13a18.34,18.34,0,0,0-1.72,5.21l-.29,1.76Z" transform="translate(0.33 -0.26)"/><path class="cls-1" d="M297,221.68l-5.66,0-.3-1.76a18.32,18.32,0,0,0-1.71-5.21c-2.06-4.08-5.57-7.2-12.52-11.13a75.13,75.13,0,0,0-10.41-4.89c-1.65-.66-3.51-1.41-5.74-2.39-10.57-4.64-19.69-8.65-26.41-16.24a36.91,36.91,0,0,1-4.41-6.16c-4.42-7.75-4.8-18.12-4.82-18.56-.27-8.39-.66-54.71,0-119.5l4.24,0c-.66,64.72-.27,110.94,0,119.32,0,.09.37,9.76,4.26,16.59a32,32,0,0,0,3.91,5.45c6.09,6.89,14.41,10.54,24.94,15.17,2.16,1,3.91,1.66,5.61,2.34a79.69,79.69,0,0,1,10.92,5.13c7.65,4.33,11.77,8.07,14.21,12.91a22,22,0,0,1,1.74,4.66H297Z" transform="translate(0.33 -0.26)"/><path class="cls-1" d="M261.54,193.67H257.3V.26l3.6,3.54,19.45,19.12L299.8,42l-3,3L277.38,25.94,261.54,10.36Z" transform="translate(0.33 -0.26)"/><path class="cls-1" d="M336.37,193.67h-4.24V10.36l-16,15.76L296.84,45.06l-3-3L313.13,23.1,332.76,3.8,336.37.26Z" transform="translate(0.33 -0.26)"/><path class="cls-1" d="M297.06,178.2h-.36l.15-4.23a22,22,0,0,0,9-1.94c8.45-4.08,12.06-10.08,12.06-20.06,0-15.49-13-27.81-30.92-44.85-4.4-4.17-8.95-8.49-13.72-13.24C259,79.68,242.21,62,225.76,38.29l3.48-2.42c16.26,23.41,32.89,40.94,47,55,4.75,4.72,9.28,9,13.65,13.18,18.72,17.77,32.25,30.6,32.25,47.92,0,11.53-4.6,19.12-14.46,23.87a25.94,25.94,0,0,1-10.63,2.37" transform="translate(0.33 -0.26)"/><path class="cls-1" d="M296.63,178.2A26,26,0,0,1,286,175.83c-9.86-4.75-14.45-12.34-14.45-23.87,0-17.32,13.52-30.15,32.24-47.92,4.38-4.16,8.91-8.46,13.65-13.18,14.13-14,30.76-31.58,47-55l3.48,2.42C351.45,62,334.66,79.68,320.4,93.87c-4.78,4.75-9.32,9.07-13.72,13.24-17.95,17-30.92,29.35-30.92,44.85,0,10,3.6,16,12.05,20.06a21.83,21.83,0,0,0,9,1.93l.15,4.24h-.37" transform="translate(0.33 -0.26)"/><path class="cls-1" d="M259.5,218.71a1.85,1.85,0,0,1-2.1,1.62c-9.54-1.43-29.44-6.53-44.77-24.65a72.62,72.62,0,0,1-16.81-42.37V65h4.24v88.18a68.26,68.26,0,0,0,15.8,39.75C230.28,210,249,214.78,258,216.13a1.85,1.85,0,0,1,1.57,2.05Z" transform="translate(0.33 -0.26)"/><polygon class="cls-1" points="196.82 90.64 179.28 75.58 179.28 70.02 196.82 85.08 196.82 90.64"/><polygon class="cls-1" points="199.29 90.6 208.1 83.04 208.1 77.49 199.29 85.05 199.29 90.6"/><polygon class="cls-1" points="199.26 105.67 216.8 90.61 216.8 85.06 199.26 100.12 199.26 105.67"/><polygon class="cls-1" points="196.86 105.7 188.05 98.14 188.05 92.59 196.86 100.14 196.86 105.7"/><polygon class="cls-1" points="199.26 135.87 216.8 120.81 216.8 115.25 199.26 130.31 199.26 135.87"/><polygon class="cls-1" points="196.86 135.89 188.05 128.33 188.05 122.78 196.86 130.34 196.86 135.89"/><polygon class="cls-1" points="196.87 120.83 179.32 105.77 179.32 100.21 196.87 115.27 196.87 120.83"/><polygon class="cls-1" points="199.29 120.79 208.1 113.24 208.1 107.68 199.29 115.24 199.29 120.79"/><polygon class="cls-1" points="196.87 151.02 179.32 135.96 179.32 130.41 196.87 145.47 196.87 151.02"/><polygon class="cls-1" points="199.29 150.99 208.1 143.43 208.1 137.88 199.29 145.43 199.29 150.99"/><polygon class="cls-1" points="199.3 75.64 208.1 68.09 208.1 62.54 199.3 70.09 199.3 75.64"/><polygon class="cls-1" points="196.86 75.64 188.06 68.09 188.06 62.54 196.86 70.09 196.86 75.64"/><path class="cls-1" d="M334.17,218.71a1.85,1.85,0,0,0,2.1,1.62c9.54-1.43,29.44-6.53,44.77-24.65a72.76,72.76,0,0,0,16.81-42.37V65h-4.24v88.18a68.35,68.35,0,0,1-15.81,39.75c-14.41,17-33.13,21.84-42.12,23.19a1.84,1.84,0,0,0-1.57,2.05Z" transform="translate(0.33 -0.26)"/><polygon class="cls-1" points="397.51 90.64 415.06 75.58 415.06 70.02 397.51 85.08 397.51 90.64"/><polygon class="cls-1" points="395.04 90.6 386.23 83.04 386.23 77.49 395.04 85.05 395.04 90.6"/><polygon class="cls-1" points="395.07 105.67 377.53 90.61 377.53 85.06 395.07 100.12 395.07 105.67"/><polygon class="cls-1" points="397.48 105.7 406.28 98.14 406.28 92.59 397.48 100.14 397.48 105.7"/><polygon class="cls-1" points="395.07 135.87 377.53 120.81 377.53 115.25 395.07 130.31 395.07 135.87"/><polygon class="cls-1" points="397.48 135.89 406.28 128.33 406.28 122.78 397.48 130.34 397.48 135.89"/><polygon class="cls-1" points="397.47 120.83 415.01 105.77 415.01 100.21 397.47 115.27 397.47 120.83"/><polygon class="cls-1" points="395.04 120.79 386.23 113.24 386.23 107.68 395.04 115.24 395.04 120.79"/><polygon class="cls-1" points="397.47 151.02 415.01 135.96 415.01 130.41 397.47 145.47 397.47 151.02"/><polygon class="cls-1" points="395.04 150.99 386.23 143.43 386.23 137.88 395.04 145.43 395.04 150.99"/><polygon class="cls-1" points="395.03 75.64 386.23 68.09 386.23 62.54 395.03 70.09 395.03 75.64"/><polygon class="cls-1" points="397.47 75.64 406.27 68.09 406.27 62.54 397.47 70.09 397.47 75.64"/></svg>